<svg width="199" height="148" viewBox="0 0 199 148" fill="none" xmlns="http://www.w3.org/2000/svg">
<path d="M198.749 129.972H0V130.072H198.749V129.972Z" fill="#EBEBEB"/>
<path d="M178.834 136.36H165.669V136.459H178.834V136.36Z" fill="#EBEBEB"/>
<path d="M131.659 137.44H128.205V137.539H131.659V137.44Z" fill="#EBEBEB"/>
<path d="M165.271 132.676H146.323V132.775H165.271V132.676Z" fill="#EBEBEB"/>
<path d="M30.2653 133.343H20.8525V133.442H30.2653V133.343Z" fill="#EBEBEB"/>
<path d="M44.0785 133.343H33.8032V133.442H44.0785V133.343Z" fill="#EBEBEB"/>
<path d="M77.9535 135.018H52.2593V135.117H77.9535V135.018Z" fill="#EBEBEB"/>
<path d="M94.2065 112.267H17.4537C16.8524 112.266 16.2762 112.026 15.8514 111.601C15.4266 111.176 15.188 110.6 15.188 110V2.24692C15.1932 1.64987 15.4341 1.07899 15.8583 0.658284C16.2826 0.237578 16.8559 0.00102278 17.4537 0H94.2065C94.8085 0 95.3858 0.23882 95.8114 0.663922C96.2371 1.08902 96.4762 1.66559 96.4762 2.26677V110C96.4762 110.601 96.2371 111.178 95.8114 111.603C95.3858 112.028 94.8085 112.267 94.2065 112.267V112.267ZM17.4537 0.0793968C16.8788 0.0804485 16.3278 0.309275 15.9216 0.715651C15.5155 1.12203 15.2874 1.67275 15.2874 2.24692V110C15.2874 110.574 15.5155 111.125 15.9216 111.531C16.3278 111.938 16.8788 112.166 17.4537 112.167H94.2065C94.7818 112.166 95.3332 111.938 95.74 111.531C96.1468 111.125 96.3758 110.574 96.3768 110V2.24692C96.3758 1.67238 96.1468 1.12167 95.74 0.715409C95.3332 0.309146 94.7818 0.0804462 94.2065 0.0793968H17.4537Z" fill="#EBEBEB"/>
<path d="M180.19 112.267H103.433C102.831 112.266 102.254 112.027 101.829 111.602C101.404 111.177 101.164 110.601 101.163 110V2.24692C101.169 1.64951 101.411 1.07863 101.836 0.658036C102.261 0.237439 102.835 0.00101163 103.433 0H180.19C180.787 0.0020661 181.359 0.239083 181.782 0.659677C182.206 1.08027 182.446 1.65056 182.451 2.24692V110C182.451 110.6 182.213 111.175 181.789 111.6C181.365 112.025 180.79 112.265 180.19 112.267V112.267ZM103.433 0.0793968C102.858 0.0804462 102.306 0.309146 101.899 0.715409C101.493 1.12167 101.264 1.67238 101.262 2.24692V110C101.264 110.574 101.493 111.125 101.899 111.531C102.306 111.938 102.858 112.166 103.433 112.167H180.19C180.765 112.166 181.316 111.938 181.723 111.531C182.13 111.125 182.359 110.574 182.36 110V2.24692C182.359 1.67238 182.13 1.12167 181.723 0.715409C181.316 0.309146 180.765 0.0804462 180.19 0.0793968H103.433Z" fill="#EBEBEB"/>
<path d="M175.459 10.3218H112.667V129.972H175.459V10.3218Z" fill="#EBEBEB"/>
<path d="M170.789 14.224H117.337V129.972H170.789V14.224Z" fill="#F5F5F5"/>
<path d="M151.582 23.823H136.552V27.9715H151.582V23.823Z" fill="white"/>
<path d="M158.351 65.0338H166.504C166.841 65.0338 167.165 65.1677 167.403 65.4059C167.642 65.6441 167.776 65.9672 167.776 66.3042V66.3042C167.776 66.6411 167.642 66.9642 167.403 67.2024C167.165 67.4407 166.841 67.5745 166.504 67.5745H158.351C158.014 67.5745 157.69 67.4407 157.452 67.2024C157.213 66.9642 157.079 66.6411 157.079 66.3042V66.3042C157.079 65.9672 157.213 65.6441 157.452 65.4059C157.69 65.1677 158.014 65.0338 158.351 65.0338Z" fill="white"/>
<path d="M69.7372 23.0529H27.9761V56.6654H69.7372V23.0529Z" fill="#EBEBEB"/>
<path d="M67.4912 54.4266V25.292L30.2139 25.292V54.4266H67.4912Z" fill="#FAFAFA"/>
<path d="M63.146 40.2424V38.849H34.562V40.2424H63.146Z" fill="#E0E0E0"/>
<path d="M63.146 43.414V42.0206H34.562V43.414H63.146Z" fill="#E0E0E0"/>
<path d="M63.146 46.582V45.1886H34.562V46.582H63.146Z" fill="#E0E0E0"/>
<path d="M55.9795 49.754V48.3606H41.7292V49.754H55.9795Z" fill="#E0E0E0"/>
<path d="M34.5821 25.2918C34.5821 25.864 34.4688 26.4305 34.2488 26.9588C34.0287 27.487 33.7062 27.9666 33.2998 28.3699C32.8934 28.7731 32.4112 29.0922 31.8808 29.3086C31.3505 29.525 30.7825 29.6345 30.2097 29.6309C29.4192 29.6328 28.6435 29.4172 27.9678 29.0076V23.0529H33.9302C34.348 23.7258 34.5735 24.5001 34.5821 25.2918V25.2918Z" fill="#EBEBEB"/>
<path d="M69.7369 23.0529V29.0076C68.9059 29.5068 67.9316 29.714 66.969 29.5962C66.0065 29.4784 65.1111 29.0424 64.4254 28.3576C63.7396 27.6727 63.303 26.7785 63.1851 25.8172C63.0671 24.8559 63.2746 23.8828 63.7745 23.0529H69.7369Z" fill="#EBEBEB"/>
<path d="M34.5826 54.4305C34.5839 55.218 34.3695 55.991 33.9625 56.6655H28V50.7107C28.6595 50.3164 29.4119 50.1036 30.1805 50.0942C30.9491 50.0848 31.7064 50.279 32.3754 50.657C33.0444 51.035 33.6011 51.5834 33.9889 52.2463C34.3766 52.9091 34.5814 53.6628 34.5826 54.4305V54.4305Z" fill="#EBEBEB"/>
<path d="M69.7369 50.7067V56.6614H63.7745C63.3643 55.988 63.1484 55.2146 63.1504 54.4264C63.1512 53.6577 63.3562 52.9029 63.7443 52.2391C64.1324 51.5753 64.6898 51.0261 65.3598 50.6476C66.0297 50.2691 66.7881 50.0748 67.5578 50.0845C68.3274 50.0941 69.0807 50.3075 69.7409 50.7027L69.7369 50.7067Z" fill="#EBEBEB"/>
<path d="M52.5091 32.9826C52.8366 30.9678 51.4666 29.0693 49.4491 28.7423C47.4317 28.4152 45.5308 29.7834 45.2033 31.7982C44.8758 33.8131 46.2458 35.7115 48.2632 36.0386C50.2807 36.3656 52.1816 34.9974 52.5091 32.9826Z" fill="#E0E0E0"/>
<path d="M103.484 82.235H20.8525V85.2044H103.484V82.235Z" fill="#EBEBEB"/>
<path d="M102.769 85.2045H75.9224V129.972H102.769V85.2045Z" fill="#F5F5F5"/>
<path d="M48.721 85.2045H21.874V129.972H48.721V85.2045Z" fill="#F5F5F5"/>
<path d="M22.7922 85.2045H21.874V129.972H22.7922V85.2045Z" fill="#EBEBEB"/>
<path d="M76.8406 85.2045H75.9224V129.972H76.8406V85.2045Z" fill="#EBEBEB"/>
<path d="M35.9735 75.0774H31.0366L31.4341 82.235H35.576L35.9735 75.0774Z" fill="#F0F0F0"/>
<path d="M78.8356 79.1307H53.042V82.2351H78.8356V79.1307Z" fill="#F0F0F0"/>
<path d="M78.8394 79.4958H66.9463V81.8738H78.8394V79.4958Z" fill="#FAFAFA"/>
<path d="M99.3745 147.9C141.939 147.9 176.445 145.888 176.445 143.406C176.445 140.924 141.939 138.912 99.3745 138.912C56.8095 138.912 22.3037 140.924 22.3037 143.406C22.3037 145.888 56.8095 147.9 99.3745 147.9Z" fill="#F5F5F5"/>
<path d="M135.431 115.61C142.386 115.61 148.024 109.979 148.024 103.033C148.024 96.0876 142.386 90.4569 135.431 90.4569C128.476 90.4569 122.838 96.0876 122.838 103.033C122.838 109.979 128.476 115.61 135.431 115.61Z" fill="white"/>
<path d="M135.431 115.764C132.91 115.765 130.445 115.019 128.348 113.621C126.251 112.222 124.617 110.234 123.651 107.908C122.686 105.582 122.433 103.022 122.924 100.552C123.416 98.0819 124.629 95.8131 126.412 94.0322C128.195 92.2513 130.466 91.0384 132.939 90.5468C135.412 90.0552 137.975 90.3071 140.305 91.2706C142.634 92.2341 144.626 93.8659 146.027 95.9596C147.427 98.0533 148.175 100.515 148.175 103.033C148.172 106.408 146.828 109.644 144.439 112.031C142.05 114.417 138.811 115.76 135.431 115.764ZM135.431 90.6155C132.971 90.6155 130.566 91.3441 128.521 92.7092C126.476 94.0743 124.881 96.0145 123.94 98.2845C122.999 100.554 122.753 103.052 123.233 105.462C123.713 107.872 124.898 110.085 126.638 111.822C128.378 113.559 130.594 114.742 133.007 115.22C135.42 115.699 137.921 115.453 140.194 114.512C142.466 113.571 144.409 111.979 145.775 109.935C147.141 107.892 147.87 105.49 147.869 103.033C147.866 99.7401 146.554 96.5828 144.222 94.2546C141.891 91.9264 138.729 90.6176 135.431 90.6155V90.6155Z" fill="#1DD3B0"/>
<path d="M137.458 95.9034H133.404V110.163H137.458V95.9034Z" fill="#1DD3B0"/>
<path d="M142.57 105.062V101.012H128.292V105.062H142.57Z" fill="#1DD3B0"/>
<path d="M50.1287 7.96752L49.8584 7.67772C51.6985 5.94053 54.0333 4.81693 56.5403 4.46216L56.596 4.85914C54.1698 5.20087 51.9098 6.28707 50.1287 7.96752V7.96752Z" fill="#1DD3B0"/>
<path d="M47.1871 12.3066L46.8174 12.1637C47.2186 11.1524 47.7534 10.1991 48.4074 9.32922L48.7254 9.56741C48.0947 10.4093 47.5775 11.3302 47.1871 12.3066V12.3066Z" fill="#1DD3B0"/>
<path d="M58.277 27.5148C64.3009 27.5148 69.1843 22.6378 69.1843 16.6216C69.1843 10.6055 64.3009 5.72839 58.277 5.72839C52.253 5.72839 47.3696 10.6055 47.3696 16.6216C47.3696 22.6378 52.253 27.5148 58.277 27.5148Z" fill="#1DD3B0"/>
<path d="M64.7921 11.715C64.3721 11.2795 63.8692 10.9319 63.3131 10.6927C62.7569 10.4536 62.1586 10.3275 61.5531 10.322C60.9476 10.3164 60.3471 10.4315 59.7867 10.6605C59.2262 10.8894 58.7171 11.2277 58.2891 11.6555C57.8614 11.2278 57.3526 10.8896 56.7925 10.6607C56.2324 10.4318 55.6322 10.3167 55.027 10.3223C54.4219 10.3278 53.8239 10.4539 53.268 10.693C52.7122 10.9321 52.2097 11.2796 51.79 11.715C50.9674 12.6036 50.5243 13.7776 50.5547 14.9874C50.5851 16.1972 51.0868 17.3475 51.953 18.1938L57.1204 23.3545C57.2755 23.5094 57.4595 23.6322 57.6621 23.716C57.8647 23.7998 58.0818 23.8429 58.301 23.8429C58.5203 23.8429 58.7374 23.7998 58.9399 23.716C59.1425 23.6322 59.3266 23.5094 59.4816 23.3545L64.649 18.1938C65.5125 17.3449 66.0105 16.1932 66.0373 14.9834C66.064 13.7736 65.6173 12.6011 64.7921 11.715V11.715Z" fill="white"/>
<path d="M58.2774 21.3816C58.1973 21.3789 58.1199 21.352 58.0553 21.3045C57.9908 21.2571 57.9421 21.1912 57.9157 21.1156L55.6142 14.3947L54.6523 17.2054C54.6249 17.2835 54.5738 17.3511 54.5061 17.3988C54.4384 17.4465 54.3575 17.4718 54.2746 17.4713H50.4229C50.3175 17.4713 50.2164 17.4295 50.1418 17.3551C50.0673 17.2806 50.0254 17.1796 50.0254 17.0744C50.0254 16.9691 50.0673 16.8681 50.1418 16.7936C50.2164 16.7192 50.3175 16.6774 50.4229 16.6774H54.0004L55.2485 13.037C55.2755 12.959 55.3262 12.8914 55.3936 12.8435C55.4609 12.7956 55.5415 12.7699 55.6241 12.7699C55.7068 12.7699 55.7874 12.7956 55.8547 12.8435C55.922 12.8914 55.9727 12.959 55.9998 13.037L58.341 19.8771L60.6147 14.5297C60.6435 14.4615 60.6907 14.4028 60.7511 14.36C60.8115 14.3172 60.8827 14.2921 60.9566 14.2875C61.031 14.2833 61.1051 14.3 61.1705 14.3358C61.2359 14.3716 61.2898 14.425 61.3262 14.49L62.5267 16.6734H66.1479C66.2533 16.6734 66.3544 16.7152 66.429 16.7897C66.5035 16.8641 66.5454 16.9651 66.5454 17.0704C66.5454 17.1757 66.5035 17.2766 66.429 17.3511C66.3544 17.4255 66.2533 17.4674 66.1479 17.4674H62.2961C62.225 17.468 62.1551 17.4495 62.0935 17.4139C62.032 17.3783 61.9812 17.3268 61.9463 17.2649L61.0043 15.5817L58.6431 21.1395C58.6127 21.2112 58.5618 21.2724 58.4968 21.3155C58.4317 21.3586 58.3555 21.3816 58.2774 21.3816V21.3816Z" fill="#1DD3B0"/>
<path d="M118.796 129.496H77.3093C76.6333 129.503 75.9631 129.37 75.3414 129.105C74.7196 128.84 74.1599 128.448 73.6979 127.956C73.2358 127.463 72.8814 126.879 72.6574 126.242C72.4333 125.605 72.3443 124.929 72.3962 124.256L79.102 25.0099C79.2191 23.5925 79.8597 22.2692 80.8991 21.2971C81.9386 20.3251 83.3027 19.7736 84.7266 19.7498H126.221C126.899 19.7421 127.571 19.8757 128.194 20.142C128.817 20.4083 129.378 20.8016 129.841 21.2966C130.303 21.7917 130.657 22.3776 130.88 23.017C131.102 23.6563 131.189 24.3351 131.134 25.0099L124.417 124.256C124.296 125.669 123.654 126.987 122.616 127.955C121.577 128.924 120.216 129.472 118.796 129.496V129.496Z" fill="#263238"/>
<path d="M127.995 60.1665H126.949C126.76 60.1688 126.572 60.1316 126.398 60.0573C126.224 59.9829 126.068 59.8731 125.938 59.7349C125.809 59.5966 125.711 59.4329 125.648 59.2543C125.586 59.0757 125.562 58.8861 125.578 58.6977L126.862 39.7259C126.892 39.3291 127.07 38.958 127.36 38.686C127.651 38.414 128.033 38.2609 128.432 38.2571H129.477C129.667 38.2548 129.854 38.292 130.028 38.3663C130.202 38.4407 130.359 38.5505 130.488 38.6888C130.617 38.827 130.716 38.9907 130.778 39.1693C130.84 39.3479 130.864 39.5375 130.849 39.7259L129.565 58.6977C129.535 59.0945 129.357 59.4656 129.066 59.7376C128.775 60.0096 128.393 60.1627 127.995 60.1665Z" fill="#263238"/>
<path d="M78.4978 47.5109H77.4564C77.3023 47.513 77.1494 47.483 77.0075 47.423C76.8656 47.363 76.7378 47.2742 76.632 47.1622C76.5263 47.0503 76.4449 46.9176 76.3932 46.7726C76.3415 46.6276 76.3204 46.4735 76.3315 46.32L76.7965 39.4681C76.8259 39.1464 76.9732 38.8469 77.2102 38.6271C77.4471 38.4073 77.7571 38.2826 78.0804 38.2771H79.1259C79.2795 38.2762 79.4316 38.307 79.5728 38.3674C79.7139 38.4279 79.8411 38.5168 79.9463 38.6286C80.0515 38.7404 80.1324 38.8726 80.1842 39.017C80.2359 39.1615 80.2572 39.315 80.2468 39.4681L79.7817 46.32C79.7532 46.642 79.6062 46.942 79.369 47.162C79.1319 47.382 78.8215 47.5063 78.4978 47.5109V47.5109Z" fill="#1DD3B0"/>
<path d="M77.6712 59.7459H76.6257C76.472 59.7474 76.3196 59.7171 76.1781 59.6568C76.0367 59.5965 75.9093 59.5076 75.804 59.3957C75.6987 59.2838 75.6177 59.1514 75.5662 59.0067C75.5147 58.8619 75.4938 58.7082 75.5048 58.555L75.9699 51.7031C75.9992 51.3814 76.1465 51.0819 76.3835 50.8621C76.6205 50.6423 76.9304 50.5176 77.2538 50.5121H78.3072C78.4608 50.5112 78.6129 50.542 78.754 50.6024C78.8952 50.6629 79.0223 50.7518 79.1275 50.8636C79.2327 50.9753 79.3137 51.1076 79.3654 51.252C79.4172 51.3965 79.4385 51.55 79.4281 51.7031L78.963 58.555C78.9344 58.8783 78.7862 59.1794 78.5474 59.3996C78.3085 59.6198 77.9962 59.7432 77.6712 59.7459V59.7459Z" fill="#1DD3B0"/>
<path d="M117.918 129.496H76.4309C75.7549 129.503 75.0847 129.37 74.463 129.105C73.8412 128.84 73.2815 128.449 72.8195 127.956C72.3574 127.463 72.003 126.879 71.7789 126.242C71.5548 125.605 71.4659 124.929 71.5178 124.256L78.2275 25.0099C78.3488 23.5921 78.9938 22.2699 80.037 21.3006C81.0803 20.3314 82.4472 19.7843 83.872 19.7658H125.343C126.019 19.7583 126.69 19.8914 127.312 20.1568C127.934 20.4222 128.494 20.814 128.956 21.3073C129.418 21.8005 129.772 22.3845 129.996 23.022C130.22 23.6594 130.308 24.3365 130.256 25.0099L123.542 124.256C123.421 125.67 122.779 126.989 121.74 127.957C120.701 128.925 119.339 129.473 117.918 129.496V129.496Z" fill="#1DD3B0"/>
<path opacity="0.3" d="M71.9551 123.144L78.5058 26.2963H129.807L123.256 123.144H71.9551Z" fill="white"/>
<path opacity="0.1" d="M92.2075 123.144L110.516 26.2963H122.008L103.699 123.144H92.2075Z" fill="white"/>
<path opacity="0.1" d="M83.5264 123.144L101.835 26.2963H107.658L89.3497 123.144H83.5264Z" fill="white"/>
<path d="M99.4302 22.1992H109.435C109.519 22.1978 109.602 22.2139 109.678 22.2465C109.755 22.2791 109.825 22.3275 109.881 22.3885C109.938 22.4495 109.982 22.5217 110.009 22.6006C110.036 22.6795 110.047 22.7632 110.039 22.8463C110.026 23.0212 109.947 23.1847 109.819 23.305C109.692 23.4254 109.523 23.4939 109.348 23.4973H99.3428C99.2591 23.4982 99.1761 23.4816 99.0992 23.4485C99.0223 23.4154 98.9532 23.3667 98.8963 23.3054C98.8394 23.2441 98.796 23.1716 98.7688 23.0925C98.7417 23.0134 98.7313 22.9296 98.7386 22.8463C98.7524 22.6717 98.831 22.5087 98.9589 22.389C99.0869 22.2693 99.2549 22.2016 99.4302 22.1992Z" fill="white"/>
<path d="M97.3471 139.043L93.8412 139.377L92.5771 131.298L96.0831 130.961L97.3471 139.043Z" fill="#FFB573"/>
<path d="M93.4402 137.666L97.113 136.526C97.1764 136.504 97.2457 136.508 97.3066 136.536C97.3674 136.564 97.4149 136.615 97.439 136.677L98.6315 139.587C98.6611 139.665 98.6743 139.748 98.6701 139.832C98.6658 139.915 98.6444 139.996 98.607 140.071C98.5697 140.146 98.5172 140.212 98.453 140.265C98.3888 140.318 98.3142 140.358 98.234 140.381C96.9064 140.778 95.6423 140.869 94.0404 141.572C92.1682 142.366 91.3851 143.43 89.3698 143.43C87.9269 143.43 87.6009 142.108 88.2131 141.925C90.9956 141.084 90.6299 140.393 92.6492 138.221C92.8592 137.97 93.1321 137.778 93.4402 137.666V137.666Z" fill="#263238"/>
<path opacity="0.2" d="M92.5771 131.298L93.229 135.466L96.7389 135.129L96.0871 130.961L92.5771 131.298Z" fill="black"/>
<path d="M95.1135 29.2178C90.5145 28.6779 85.9393 29.0392 81.3482 29.9284C80.5831 30.0767 79.8852 30.4645 79.3557 31.0355C78.8261 31.6065 78.4923 32.3311 78.4027 33.1043C77.9059 37.4949 77.3374 47.3361 79.5555 62.0165L98.3491 60.4286C98.3849 57.7648 96.4889 45.6291 98.055 33.0368C98.1191 32.5923 98.0934 32.1394 97.9794 31.705C97.8654 31.2706 97.6654 30.8634 97.3912 30.5074C97.117 30.1514 96.7742 29.8539 96.383 29.6324C95.9918 29.4109 95.5602 29.27 95.1135 29.2178Z" fill="white"/>
<path d="M84.1699 32.9811L84.8417 34.3229C84.873 34.3906 84.9229 34.4481 84.9854 34.4888C85.048 34.5295 85.1208 34.5518 85.1955 34.5531L85.9229 34.5928C86.0527 34.5984 86.1804 34.5592 86.2846 34.4817L87.5367 33.5488L85.9905 32.4253L84.1699 32.9811Z" fill="#263238"/>
<path d="M85.9469 34.208C85.6818 34.0853 85.3815 34.0614 85.1002 34.1405C84.508 36.2247 83.8601 42.2072 83.7925 44.8591C85.5892 50.0873 86.1775 50.6153 86.1775 50.6153L87.0877 44.3231C87.0877 44.3231 86.0662 37.8881 85.9469 34.208Z" fill="#263238"/>
<path d="M91.1342 20.1666C90.705 22.755 90.3393 27.483 92.1995 29.1543C90.8361 30.5835 89.0514 32.2389 85.9906 32.4255C82.9299 32.612 83.4029 30.4961 84.178 29.3647C87.0361 28.6025 86.8969 26.4747 86.3365 24.4858L91.1342 20.1666Z" fill="#FFB573"/>
<path d="M92.9787 28.9281C92.762 28.8347 92.5372 28.7617 92.307 28.7098C92.2506 28.6949 92.191 28.6989 92.1371 28.7211C92.0833 28.7433 92.0382 28.7826 92.0088 28.8328C91.7147 29.333 90.8163 31.568 85.9907 32.4255C86.7857 32.894 87.8391 34.3469 88.2922 35.0456C89.7391 34.2953 93.5034 32.0524 93.1457 29.1504C93.1384 29.1025 93.1193 29.0571 93.0902 29.0183C93.0611 28.9795 93.0228 28.9485 92.9787 28.9281V28.9281Z" fill="#F5F5F5"/>
<path d="M84.2062 29.4839C84.2163 29.4387 84.2151 29.3917 84.2024 29.3472C84.1898 29.3026 84.1662 29.2619 84.1338 29.2288C84.1014 29.1957 84.0613 29.1711 84.017 29.1574C83.9727 29.1438 83.9257 29.1413 83.8802 29.1504C83.7131 29.1828 83.5484 29.2266 83.3873 29.2814C83.3501 29.2959 83.3152 29.316 83.284 29.341C82.9143 29.6824 80.899 32.5883 82.7871 34.9384C83.1846 34.2993 84.556 32.8503 85.9909 32.4255C84.6315 31.8142 83.9637 30.6748 84.2062 29.4839Z" fill="#F5F5F5"/>
<path opacity="0.2" d="M89.1785 21.9293L86.3403 24.4859C86.4772 24.9477 86.5729 25.4206 86.6265 25.8992C87.7236 25.7126 89.1983 24.47 89.2778 23.3188C89.3316 22.8535 89.2979 22.3823 89.1785 21.9293V21.9293Z" fill="black"/>
<path d="M85.3867 12.3423C82.9381 13.299 82.7791 15.3077 83.0017 17.503C83.2243 19.6984 85.6173 18.2454 86.1499 16.8718C86.6826 15.4983 88.7774 11.0164 85.3867 12.3423Z" fill="#263238"/>
<path d="M93.1975 16.7208C92.5178 20.1785 92.2912 22.2309 90.3117 23.8228C87.3265 26.2047 83.2839 24.1484 82.9262 20.5835C82.6042 17.3719 83.7689 12.2468 87.3344 11.2464C88.112 11.0178 88.9359 10.9957 89.7246 11.1824C90.5134 11.3691 91.2397 11.7581 91.8318 12.311C92.4239 12.8639 92.8613 13.5614 93.1009 14.3348C93.3404 15.1082 93.3737 15.9306 93.1975 16.7208V16.7208Z" fill="#FFB573"/>
<path d="M93.054 19.5831C90.1404 19.7379 90.7565 18.0865 91.2851 17.1377C91.8138 16.1889 90.7366 14.6208 91.4402 13.807C90.1841 14.3072 88.8604 13.8943 87.179 12.7272C85.8752 11.8181 84.2415 15.4505 82.6515 13.6284C81.149 11.9094 82.5442 9.31713 86.1535 8.9003C89.7627 8.48347 90.4186 11.0321 92.7877 10.8058C95.1568 10.5795 94.334 12.5287 93.8689 12.9257C95.8564 13.0567 96.9415 14.9543 93.054 19.5831Z" fill="#263238"/>
<path d="M93.4121 13.1679C93.868 12.9182 94.2487 12.5514 94.515 12.1054C94.7813 11.6594 94.9234 11.1505 94.9266 10.6312C95.7136 12.0088 95.6301 13.5729 93.4121 13.1679Z" fill="#263238"/>
<path d="M85.8599 20.4129C86.1766 20.4676 86.5011 20.4579 86.814 20.3842C87.1268 20.3105 87.4215 20.1744 87.6804 19.9841C87.6882 19.9767 87.6944 19.9678 87.6987 19.9579C87.7029 19.948 87.7051 19.9373 87.7051 19.9266C87.7051 19.9158 87.7029 19.9051 87.6987 19.8953C87.6944 19.8854 87.6882 19.8764 87.6804 19.869C87.6649 19.8542 87.6442 19.8459 87.6228 19.8459C87.6013 19.8459 87.5807 19.8542 87.5651 19.869C87.2752 20.0742 86.9416 20.2094 86.5905 20.2638C86.2394 20.3182 85.8804 20.2904 85.5419 20.1826C85.5203 20.1773 85.4975 20.1799 85.4777 20.1902C85.4579 20.2004 85.4426 20.2175 85.4345 20.2382C85.4283 20.2593 85.4307 20.2819 85.4411 20.3012C85.4515 20.3206 85.4692 20.335 85.4902 20.3414C85.611 20.3762 85.7347 20.4001 85.8599 20.4129Z" fill="#263238"/>
<path d="M93.9012 20.6431C93.3569 21.3436 92.559 21.8026 91.6792 21.9214C90.5224 22.0722 90.1369 20.9964 90.6218 19.992C91.063 19.0869 92.2118 17.9198 93.2771 18.2334C94.3424 18.547 94.569 19.7697 93.9012 20.6431Z" fill="#FFB573"/>
<path d="M92.7519 95.8197C92.891 85.4545 94.2186 60.7661 94.2186 60.7661L79.5669 62.0007C79.5669 62.0007 82.4806 87.4434 84.2375 98.019C86.066 109.011 91.6747 134.764 91.6747 134.764L97.6371 134.256C97.6371 134.256 95.4588 103.835 92.7519 95.8197Z" fill="#263238"/>
<path d="M91.3171 134.927L98.3886 134.327L98.1103 132.048L90.7407 132.541L91.3171 134.927Z" fill="#1DD3B0"/>
<path d="M87.9745 16.9274C87.9387 17.2092 87.7558 17.4236 87.577 17.4037C87.3981 17.3839 87.2749 17.1378 87.3146 16.8519C87.3544 16.5661 87.5332 16.3557 87.7121 16.3756C87.891 16.3954 88.0142 16.6455 87.9745 16.9274Z" fill="#263238"/>
<path d="M84.7308 16.6733C84.695 16.9591 84.5122 17.1695 84.3333 17.1496C84.1544 17.1298 84.0312 16.8837 84.071 16.6018C84.1107 16.3199 84.2896 16.1056 84.4685 16.1254C84.6473 16.1453 84.7706 16.3755 84.7308 16.6733Z" fill="#263238"/>
<path d="M85.6448 17.0067C85.166 17.7413 84.5912 18.4089 83.9355 18.9916C84.3569 19.4323 85.2274 19.3132 85.2274 19.3132L85.6448 17.0067Z" fill="#ED893E"/>
<path opacity="0.4" d="M82.68 16.7446C82.6204 17.1972 83.0775 17.5743 83.7095 17.6537C84.3416 17.7331 84.9259 17.3877 84.9815 16.9352" fill="#1DD3B0"/>
<path opacity="0.4" d="M86.4359 17.1655C86.3484 17.6141 86.7896 18.019 87.4097 18.1381C88.0298 18.2572 88.638 17.9396 88.7215 17.495" fill="#1DD3B0"/>
<path d="M87.6563 18.2611C87.5848 18.2651 87.5131 18.2651 87.4416 18.2611C87.1361 18.2246 86.849 18.0958 86.6188 17.8919C86.5183 17.8062 86.4399 17.6976 86.3901 17.5754C86.3403 17.4531 86.3206 17.3207 86.3326 17.1893C86.1309 17.1016 85.9159 17.0479 85.6966 17.0305C85.4761 16.9755 85.2454 16.9755 85.0248 17.0305C84.9692 17.5148 84.365 17.8483 83.6892 17.7649C83.3836 17.7316 83.096 17.6039 82.8664 17.3997C82.7665 17.3135 82.6884 17.2049 82.6387 17.0827C82.5889 16.9606 82.5689 16.8284 82.5802 16.697L82.771 16.7208C82.763 16.8224 82.7794 16.9243 82.8188 17.0182C82.8582 17.1121 82.9195 17.1953 82.9976 17.2607C83.1978 17.4368 83.4478 17.5463 83.7131 17.5744C84.2855 17.6498 84.7943 17.3838 84.846 16.9868C84.8738 16.7645 85.3349 16.7804 85.7165 16.828C86.0981 16.8757 86.5512 16.9829 86.5115 17.2012C86.5031 17.3027 86.5193 17.4048 86.5588 17.4988C86.5982 17.5927 86.6597 17.6758 86.7381 17.7411C86.9407 17.9148 87.1899 18.0253 87.4548 18.0592C87.7197 18.0931 87.9887 18.0487 88.2287 17.9316C88.3213 17.8886 88.4021 17.8239 88.4644 17.7431C88.5267 17.6622 88.5685 17.5676 88.5864 17.4672V17.3719L93.4915 18.0031L93.4677 18.1936L88.7454 17.5863C88.7111 17.6968 88.6546 17.7991 88.5795 17.8872C88.5043 17.9752 88.412 18.0471 88.3082 18.0984C88.1073 18.2046 87.8836 18.2604 87.6563 18.2611Z" fill="#263238"/>
<path d="M89.2226 15.6807C89.2509 15.6808 89.2785 15.6725 89.3021 15.6569C89.3408 15.6344 89.3691 15.5978 89.3809 15.5547C89.3928 15.5117 89.3874 15.4657 89.3657 15.4266C89.2425 15.1958 89.0641 14.9988 88.8464 14.8534C88.6286 14.708 88.3783 14.6185 88.1176 14.593C88.0729 14.5908 88.0291 14.6062 87.9957 14.6359C87.9622 14.6656 87.9418 14.7072 87.9387 14.7518C87.9365 14.7954 87.9515 14.8381 87.9805 14.8707C88.0095 14.9034 88.0501 14.9234 88.0937 14.9264V14.9264C88.3 14.9506 88.4973 15.0247 88.6684 15.1424C88.8395 15.26 88.9792 15.4175 89.0755 15.6013C89.0906 15.6266 89.1122 15.6473 89.1381 15.6613C89.164 15.6753 89.1932 15.682 89.2226 15.6807V15.6807Z" fill="#263238"/>
<path d="M83.6815 15.2323C83.709 15.235 83.7368 15.231 83.7624 15.2206C83.788 15.2103 83.8107 15.1938 83.8286 15.1728C83.9571 15.0047 84.1233 14.869 84.3138 14.7766C84.5043 14.6842 84.7139 14.6377 84.9257 14.6408C84.9476 14.643 84.9698 14.6408 84.9909 14.6344C85.012 14.628 85.0316 14.6175 85.0486 14.6034C85.0656 14.5894 85.0796 14.5722 85.0899 14.5527C85.1002 14.5332 85.1065 14.5119 85.1085 14.49C85.1113 14.4686 85.1098 14.4468 85.1041 14.426C85.0983 14.4052 85.0885 14.3857 85.0752 14.3687C85.0619 14.3517 85.0453 14.3376 85.0265 14.327C85.0076 14.3165 84.9869 14.3098 84.9654 14.3073C84.6984 14.3004 84.4335 14.356 84.1919 14.4697C83.9502 14.5835 83.7387 14.7522 83.5742 14.9624C83.5458 14.9961 83.532 15.0397 83.5358 15.0836C83.5395 15.1275 83.5604 15.1681 83.594 15.1966C83.62 15.2152 83.6499 15.2275 83.6815 15.2323Z" fill="#263238"/>
<path d="M104.96 94.1484C101.919 78.5391 101.235 66.3319 98.3494 60.4049L84.1548 61.9928C84.1548 61.9928 92.6095 85.2521 96.7395 95.1806C101.029 105.502 109.495 123.136 109.495 123.136H116.587C116.587 123.136 109.968 101.258 104.96 94.1484Z" fill="#263238"/>
<path d="M59.9666 35.0576L58.4322 34.0889C58.1832 33.9287 57.8862 33.8597 57.5919 33.8937C57.2976 33.9278 57.0242 34.0627 56.8184 34.2755L55.777 35.3712C55.6648 35.4895 55.5781 35.6294 55.5223 35.7825C55.4664 35.9355 55.4426 36.0984 55.4523 36.261C55.462 36.4236 55.505 36.5824 55.5786 36.7278C55.6522 36.8731 55.7549 37.0019 55.8803 37.106L56.6236 37.7412C57.2702 38.2884 58.0244 38.6941 58.8377 38.9321L61.0836 39.5951L62.5583 38.0072C63.0074 36.3517 59.9666 35.0576 59.9666 35.0576Z" fill="#FFB573"/>
<path d="M82.6793 34.3151C82.1228 35.6728 81.5782 36.9352 80.986 38.2254C80.3937 39.5156 79.7935 40.7899 79.1297 42.0563C78.4658 43.3227 77.7583 44.5811 76.9554 45.8435C76.5579 46.4707 76.1166 47.098 75.6158 47.7292C75.0773 48.4252 74.4642 49.0601 73.7873 49.6228C73.3404 49.9876 72.8472 50.2919 72.3205 50.5279C72.1536 50.5914 71.9986 50.6549 71.8157 50.7105L71.5375 50.7859C71.3975 50.8203 71.2554 50.8455 71.1121 50.8614C70.6276 50.9159 70.1371 50.8809 69.6652 50.7582C69.0753 50.5932 68.5147 50.3374 68.0037 49.9999C67.621 49.7614 67.2557 49.4961 66.9106 49.2059C65.7634 48.2057 64.706 47.1071 63.7505 45.9229C62.8243 44.8113 61.9498 43.6958 61.1111 42.5565C60.2724 41.4171 59.4655 40.2977 58.6387 39.1027L63.035 36.2683C64.4224 38.5049 65.9575 40.6468 67.6301 42.6795C68.3989 43.6211 69.246 44.4963 70.1621 45.2957C70.3396 45.4407 70.5269 45.5733 70.7226 45.6927C70.8697 45.7919 71.0167 45.8316 70.9134 45.7959C70.7736 45.7575 70.6273 45.7494 70.4841 45.772C70.4263 45.7774 70.369 45.788 70.3132 45.8038H70.2814C70.2615 45.8038 70.2615 45.8038 70.2575 45.8038C70.3479 45.7448 70.4342 45.6798 70.5159 45.6093C70.8787 45.2804 71.2076 44.916 71.4977 44.5215C71.8356 44.069 72.1735 43.5608 72.4954 43.0329C73.1536 41.9351 73.7533 40.8035 74.2921 39.6426C74.8486 38.4517 75.3852 37.2607 75.8821 36.0221C76.379 34.7836 76.852 33.5251 77.2535 32.3223L82.6793 34.3151Z" fill="#1DD3B0"/>
<g opacity="0.6">
<path opacity="0.6" d="M82.6793 34.3152C82.1228 35.6729 81.5782 36.9353 80.986 38.2255C80.3937 39.5157 79.7935 40.79 79.1297 42.0564C78.4658 43.3228 77.7583 44.5812 76.9554 45.8436C76.5579 46.4709 76.1166 47.0981 75.6158 47.7293C75.0773 48.4253 74.4642 49.0603 73.7873 49.6229C73.3404 49.9877 72.8472 50.292 72.3205 50.528C72.1536 50.5915 71.9986 50.6551 71.8157 50.7106L71.5375 50.7861C71.3975 50.8204 71.2554 50.8456 71.1121 50.8615C70.6276 50.916 70.1371 50.881 69.6652 50.7583C69.0753 50.5933 68.5147 50.3375 68.0037 50C67.621 49.7615 67.2557 49.4962 66.9106 49.2061C65.7634 48.2058 64.706 47.1073 63.7505 45.923C62.8243 44.8115 61.9498 43.6959 61.1111 42.5566C60.2724 41.4173 59.4655 40.2978 58.6387 39.1029L63.035 36.2684C64.4224 38.5051 65.9575 40.6469 67.6301 42.6797C68.3989 43.6212 69.246 44.4964 70.1621 45.2958C70.3396 45.4408 70.5269 45.5735 70.7226 45.6928C70.8697 45.792 71.0167 45.8317 70.9134 45.796C70.7736 45.7576 70.6273 45.7495 70.4841 45.7722C70.4263 45.7775 70.369 45.7881 70.3132 45.8039H70.2814C70.2615 45.8039 70.2615 45.8039 70.2575 45.8039C70.3479 45.745 70.4342 45.68 70.5159 45.6094C70.8787 45.2805 71.2076 44.9161 71.4977 44.5217C71.8356 44.0691 72.1735 43.561 72.4954 43.033C73.1536 41.9352 73.7533 40.8036 74.2921 39.6428C74.8486 38.4518 75.3852 37.2609 75.8821 36.0223C76.379 34.7837 76.852 33.5252 77.2535 32.3224L82.6793 34.3152Z" fill="white"/>
</g>
<path d="M93.0861 28.2215C91.5955 31.0004 86.2889 41.5879 85.645 48.1223C83.2958 42.1675 83.8085 28.9956 83.8085 28.9956C82.1343 29.1586 80.4919 29.5596 78.9312 30.1866C78.4283 30.393 77.9923 30.7344 77.6717 31.173C77.3511 31.6117 77.1583 32.1304 77.1147 32.6717C76.6572 39.4872 76.8728 46.3311 77.7586 53.1044C79.4082 65.927 80.9386 85.8674 80.9386 85.8674C80.9386 85.8674 94.0759 85.3196 104.212 83.1838C102.976 73.3823 98.7465 56.9551 98.7067 52.5566C98.659 46.8956 98.7902 35.8277 98.9691 31.2068C98.9991 30.5544 98.7944 29.9128 98.3919 29.3981C97.9895 28.8833 97.4159 28.5293 96.7749 28.4002C95.559 28.1751 94.3182 28.115 93.0861 28.2215Z" fill="#1DD3B0"/>
<path opacity="0.7" d="M93.0861 28.2215C91.5955 31.0004 86.2889 41.5879 85.645 48.1223C83.2958 42.1675 83.8085 28.9956 83.8085 28.9956C82.1343 29.1586 80.4919 29.5597 78.9312 30.1866C78.4283 30.393 77.9923 30.7344 77.6717 31.173C77.3511 31.6117 77.1583 32.1304 77.1147 32.6717C76.6572 39.4872 76.8728 46.3311 77.7586 53.1044C79.4082 65.927 80.9386 85.8674 80.9386 85.8674C80.9386 85.8674 94.0759 85.3196 104.212 83.1838C102.976 73.3823 98.7465 56.9551 98.7067 52.5566C98.659 46.8956 98.7902 35.8238 98.9691 31.2029C99.0066 30.5703 98.8195 29.9448 98.4407 29.4365C98.0619 28.9282 97.5156 28.5696 96.8981 28.424C95.6432 28.1784 94.36 28.1102 93.0861 28.2215Z" fill="white"/>
<path d="M89.9898 83.7396C87.7081 71.1672 85.8995 52.7194 85.7524 50.5002H85.9552C86.1022 52.7194 87.9148 71.1433 90.1925 83.7158L89.9898 83.7396Z" fill="white"/>
<path d="M88.8525 61.3735H76.7367C76.4921 61.3625 76.2576 61.2726 76.0684 61.1172C75.8792 60.9619 75.7455 60.7496 75.6873 60.512L71.6368 41.7069C71.6072 41.6043 71.6023 41.4961 71.6227 41.3912C71.6431 41.2863 71.6882 41.1878 71.7541 41.1036C71.8201 41.0195 71.9051 40.9523 72.0022 40.9074C72.0993 40.8625 72.2057 40.8413 72.3126 40.8455H84.4243C84.6697 40.8557 84.9051 40.9452 85.095 41.1006C85.285 41.2559 85.4193 41.4687 85.4777 41.7069L89.5282 60.512C89.5579 60.6147 89.5627 60.7229 89.5423 60.8278C89.5219 60.9327 89.4769 61.0312 89.4109 61.1153C89.3449 61.1994 89.2599 61.2667 89.1628 61.3116C89.0657 61.3564 88.9594 61.3777 88.8525 61.3735V61.3735Z" fill="white"/>
<path d="M88.4751 61.5324H76.1527C75.9036 61.5208 75.6649 61.4291 75.4722 61.271C75.2795 61.1129 75.1432 60.8968 75.0834 60.655L70.9614 41.5324C70.9319 41.4276 70.9276 41.3173 70.9488 41.2105C70.9701 41.1038 71.0163 41.0035 71.0838 40.918C71.1512 40.8325 71.2379 40.7641 71.3368 40.7184C71.4358 40.6727 71.5441 40.651 71.653 40.655H83.9755C84.2246 40.6666 84.4633 40.7583 84.6559 40.9164C84.8486 41.0745 84.985 41.2905 85.0447 41.5324L89.1628 60.655C89.1931 60.7595 89.1981 60.8697 89.1774 60.9766C89.1567 61.0834 89.1109 61.1838 89.0438 61.2694C88.9766 61.3551 88.89 61.4236 88.7912 61.4693C88.6923 61.5151 88.584 61.5366 88.4751 61.5324Z" fill="#1DD3B0"/>
<path d="M89.8861 50.7424L86.8214 50.6273C86.4529 50.6146 86.0859 50.6795 85.7442 50.8178L84.1542 51.453C84.0051 51.512 83.8693 51.6005 83.7552 51.7131C83.6411 51.8257 83.5509 51.9602 83.49 52.1085C83.4291 52.2567 83.3989 52.4157 83.401 52.576C83.4031 52.7362 83.4376 52.8943 83.5023 53.0409L84.1383 54.4145C84.2666 54.6809 84.4829 54.895 84.7508 55.0208C85.0187 55.1466 85.3218 55.1764 85.6091 55.1053L87.362 54.6686C87.362 54.6686 90.6533 54.4066 90.7726 52.6837L89.8861 50.7424Z" fill="#FFB573"/>
<path d="M98.3489 29.9244C99.1082 31.1154 99.8038 32.2031 100.487 33.3702C101.171 34.5374 101.843 35.6926 102.475 36.8994C103.107 38.1063 103.707 39.3528 104.252 40.6866C104.535 41.3852 104.776 42.0996 104.975 42.8264C105.232 43.7121 105.349 44.632 105.325 45.5536V45.7085C105.326 45.7349 105.326 45.7614 105.325 45.7879C105.325 45.9308 105.285 46.0737 105.257 46.2166C105.23 46.3595 105.194 46.4707 105.154 46.6136C105.114 46.7565 105.071 46.8319 105.027 46.9431C104.875 47.2866 104.68 47.6094 104.447 47.9038C104.122 48.3091 103.752 48.6766 103.345 48.9995C102.72 49.4913 102.056 49.9308 101.358 50.3135C100.131 50.9836 98.8676 51.5853 97.5738 52.1158C96.3217 52.6477 95.0736 53.1321 93.8175 53.5886C92.5614 54.0451 91.3252 54.4858 90.0174 54.9224L88.5029 49.9205C89.6954 49.5949 90.9118 49.194 92.1003 48.7891C93.2888 48.3841 94.4853 47.9316 95.6142 47.4592C96.722 47.0021 97.8024 46.4812 98.8498 45.899C99.2918 45.6543 99.7132 45.3742 100.11 45.0614C100.214 44.9825 100.308 44.8904 100.388 44.7875C100.354 44.826 100.327 44.8704 100.309 44.9185C100.309 44.9542 100.289 44.978 100.269 45.0217C100.253 45.0683 100.241 45.1161 100.233 45.1646C100.216 45.2256 100.206 45.2881 100.201 45.3512C100.201 45.375 100.201 45.379 100.201 45.371V45.3432C100.174 44.9666 100.1 44.5947 99.9827 44.2357C99.8237 43.7159 99.6352 43.2056 99.4182 42.7073C98.9323 41.6085 98.3828 40.5388 97.7726 39.5036C97.1525 38.4397 96.4926 37.3758 95.7851 36.3278C95.0775 35.2797 94.3541 34.2357 93.6267 33.2829L98.3489 29.9244Z" fill="#1DD3B0"/>
<g opacity="0.7">
<path opacity="0.7" d="M98.3489 29.9247C99.1082 31.1156 99.8038 32.2034 100.487 33.3705C101.171 34.5376 101.843 35.6928 102.475 36.8997C103.107 38.1065 103.707 39.353 104.252 40.6869C104.535 41.3854 104.776 42.0999 104.975 42.8266C105.232 43.7124 105.349 44.6322 105.325 45.5539V45.7087C105.326 45.7352 105.326 45.7617 105.325 45.7881C105.325 45.931 105.285 46.0739 105.257 46.2169C105.23 46.3598 105.194 46.4709 105.154 46.6138C105.114 46.7568 105.071 46.8322 105.027 46.9433C104.875 47.2868 104.68 47.6096 104.447 47.904C104.122 48.3093 103.752 48.6768 103.345 48.9997C102.72 49.4915 102.056 49.931 101.358 50.3137C100.131 50.9838 98.8676 51.5855 97.5738 52.116C96.3217 52.648 95.0736 53.1323 93.8175 53.5888C92.5614 54.0454 91.3252 54.486 90.0174 54.9227L88.5029 49.9207C89.6954 49.5952 90.9118 49.1942 92.1003 48.7893C93.2888 48.3844 94.4853 47.9318 95.6142 47.4594C96.722 47.0023 97.8024 46.4814 98.8498 45.8993C99.2918 45.6546 99.7132 45.3744 100.11 45.0616C100.214 44.9827 100.308 44.8906 100.388 44.7877C100.354 44.8262 100.327 44.8706 100.309 44.9187C100.309 44.9544 100.289 44.9783 100.269 45.0219C100.253 45.0686 100.241 45.1164 100.233 45.1649C100.216 45.2259 100.206 45.2883 100.201 45.3514C100.201 45.3753 100.201 45.3792 100.201 45.3713V45.3435C100.174 44.9668 100.1 44.5949 99.9827 44.2359C99.8237 43.7162 99.6352 43.2059 99.4182 42.7075C98.9323 41.6087 98.3828 40.539 97.7726 39.5039C97.1525 38.44 96.4926 37.376 95.7851 36.328C95.0775 35.28 94.3541 34.2359 93.6267 33.2832L98.3489 29.9247Z" fill="white"/>
</g>
<path d="M94.3263 43.6998C94.2998 43.6994 94.2738 43.6923 94.2509 43.6791C94.2279 43.6659 94.2087 43.6471 94.1951 43.6243C94.1835 43.607 94.1754 43.5875 94.1715 43.567C94.1676 43.5465 94.1679 43.5254 94.1724 43.505C94.1768 43.4846 94.1853 43.4653 94.1975 43.4483C94.2096 43.4313 94.225 43.4169 94.2428 43.406L94.8629 43.009C95.4417 42.6445 95.896 42.113 96.1657 41.4849C96.4355 40.8569 96.5079 40.1618 96.3734 39.4917L95.1253 33.1797C95.0339 32.7078 94.7858 32.2804 94.4211 31.9667C94.0564 31.653 93.5964 31.4714 93.1155 31.4512C92.6346 31.431 92.1609 31.5734 91.7711 31.8554C91.3813 32.1374 91.0982 32.5424 90.9674 33.005L89.1986 39.194C89.0054 39.8482 89.016 40.5456 89.229 41.1937C89.442 41.8418 89.8473 42.4098 90.3911 42.8224L90.9794 43.267C91.0125 43.2929 91.034 43.3308 91.0392 43.3725C91.0444 43.4141 91.0329 43.4562 91.0072 43.4894C90.9947 43.5056 90.9792 43.5192 90.9614 43.5294C90.9436 43.5396 90.924 43.5462 90.9037 43.5488C90.8834 43.5514 90.8627 43.5499 90.843 43.5445C90.8232 43.5391 90.8047 43.5298 90.7886 43.5171L90.2321 43.0765C89.6343 42.627 89.1876 42.0065 88.9512 41.2975C88.7147 40.5884 88.6998 39.8244 88.9084 39.1067L90.6812 32.9177C90.8334 32.3892 91.159 31.9271 91.6057 31.6056C92.0523 31.284 92.5942 31.1217 93.1443 31.1446C93.6945 31.1675 94.221 31.3743 94.6393 31.7318C95.0576 32.0894 95.3436 32.5769 95.4512 33.1162L96.6994 39.4322C96.8467 40.1642 96.7679 40.9237 96.4733 41.6099C96.1787 42.2962 95.6822 42.8769 95.0497 43.275L94.4257 43.672C94.4118 43.6831 94.3959 43.6913 94.3788 43.696C94.3618 43.7008 94.3439 43.7021 94.3263 43.6998V43.6998Z" fill="#263238"/>
<path d="M95.2802 33.3108L90.8163 33.1242C90.7954 33.1232 90.7749 33.1181 90.756 33.1092C90.7371 33.1002 90.7202 33.0876 90.7061 33.0722C90.6921 33.0567 90.6813 33.0386 90.6743 33.0189C90.6672 32.9992 90.6642 32.9784 90.6652 32.9575C90.6692 32.9161 90.6885 32.8776 90.7194 32.8497C90.7503 32.8218 90.7905 32.8065 90.8322 32.8066L95.2921 32.9932C95.313 32.9942 95.3335 32.9994 95.3524 33.0083C95.3713 33.0172 95.3882 33.0298 95.4023 33.0453C95.4163 33.0608 95.4271 33.0789 95.4342 33.0986C95.4412 33.1182 95.4442 33.1391 95.4432 33.16C95.4427 33.1806 95.438 33.201 95.4295 33.2199C95.421 33.2387 95.4088 33.2557 95.3936 33.2697C95.3784 33.2838 95.3605 33.2947 95.341 33.3017C95.3216 33.3088 95.3009 33.3119 95.2802 33.3108Z" fill="#263238"/>
<path d="M93.1097 31.4609C93.0685 31.46 93.0292 31.4435 92.9997 31.4147C92.9702 31.386 92.9527 31.3472 92.9507 31.3061C92.9507 30.5121 92.7043 29.1346 91.9609 28.8329C91.9404 28.826 91.9214 28.815 91.9053 28.8005C91.8891 28.786 91.8761 28.7684 91.8671 28.7487C91.858 28.729 91.8531 28.7077 91.8526 28.686C91.8521 28.6643 91.856 28.6428 91.8642 28.6227C91.8723 28.6026 91.8845 28.5844 91.9 28.5692C91.9155 28.554 91.9339 28.5421 91.9541 28.5343C91.9743 28.5265 91.996 28.5228 92.0176 28.5237C92.0393 28.5245 92.0606 28.5298 92.0802 28.5391C93.1812 28.9917 93.2727 31.0639 93.2727 31.318C93.2727 31.3598 93.2566 31.4001 93.2278 31.4304C93.1989 31.4607 93.1595 31.4787 93.1177 31.4808L93.1097 31.4609Z" fill="#263238"/>
<path d="M79.456 36.8559H79.4242C79.3832 36.8473 79.3472 36.8228 79.3241 36.7879C79.301 36.753 79.2927 36.7103 79.3009 36.6693C79.8256 34.0611 81.996 29.9444 83.9079 28.7296C83.9254 28.7188 83.9448 28.7115 83.9651 28.7083C83.9854 28.705 84.0061 28.7058 84.0261 28.7106C84.046 28.7154 84.0649 28.7241 84.0814 28.7362C84.098 28.7484 84.112 28.7637 84.1226 28.7812C84.1342 28.7983 84.1421 28.8175 84.146 28.8377C84.1499 28.8579 84.1495 28.8786 84.1451 28.8987C84.1406 28.9188 84.1321 28.9377 84.12 28.9544C84.1079 28.9711 84.0926 28.9851 84.0749 28.9956C82.2265 30.1627 80.1198 34.1564 79.611 36.7249C79.6045 36.7613 79.5855 36.7944 79.5572 36.8183C79.5288 36.8422 79.4931 36.8555 79.456 36.8559Z" fill="#263238"/>
<path d="M80.7597 37.2649C80.5132 37.8961 79.9647 38.2772 79.5672 38.1144C79.1697 37.9517 79.0147 37.3205 79.2611 36.6734C79.5076 36.0263 80.0561 35.6611 80.4536 35.8278C80.8511 35.9945 81.0101 36.6337 80.7597 37.2649Z" fill="white"/>
<path d="M91.2537 43.4141C91.2537 43.7078 91.0708 43.942 90.8761 43.9341C90.6813 43.9262 90.5302 43.68 90.5422 43.3823C90.5541 43.0846 90.725 42.8503 90.9198 42.8623C91.1146 42.8742 91.2656 43.1163 91.2537 43.4141Z" fill="white"/>
<path d="M94.6799 43.557C94.6799 43.8508 94.501 44.085 94.3023 44.0771C94.1035 44.0691 93.9604 43.823 93.9724 43.5253C93.9843 43.2275 94.1512 42.9973 94.3699 43.0052C94.5885 43.0131 94.6918 43.2712 94.6799 43.557Z" fill="white"/>
<path d="M162.087 38.0509L161.69 38.0271C161.756 37.1819 161.646 36.3322 161.365 35.532C161.085 34.7317 160.642 33.9983 160.063 33.3783C159.484 32.7583 158.782 32.2652 158.002 31.9304C157.223 31.5956 156.382 31.4263 155.533 31.4332V31.0362C156.436 31.0286 157.331 31.2085 158.161 31.5645C158.991 31.9206 159.738 32.445 160.354 33.1046C160.97 33.7641 161.443 34.5444 161.741 35.3959C162.039 36.2474 162.157 37.1515 162.087 38.0509V38.0509Z" fill="#1DD3B0"/>
<path d="M162.297 39.7153L162.067 43.0023L162.464 43.0301L162.695 39.7431L162.297 39.7153Z" fill="#1DD3B0"/>
<path d="M155.533 32.4256H128.106C126.608 32.4501 125.173 33.0303 124.08 34.0531C122.986 35.076 122.313 36.4684 122.191 37.9595L121.941 41.6475C121.884 42.3571 121.976 43.0708 122.21 43.743C122.445 44.4153 122.817 45.0314 123.303 45.552C123.789 46.0726 124.379 46.4864 125.034 46.767C125.689 47.0475 126.395 47.1886 127.108 47.1814H154.535L159.854 50.4565L160.697 37.9595C160.754 37.2501 160.663 36.5365 160.429 35.8642C160.195 35.192 159.823 34.5758 159.337 34.0551C158.851 33.5344 158.262 33.1206 157.607 32.84C156.952 32.5594 156.246 32.4183 155.533 32.4256V32.4256Z" fill="#1DD3B0"/>
<path d="M154.141 37.7096H128.737V38.6306H154.141V37.7096Z" fill="white"/>
<path d="M153.919 40.9768H135.058V41.8978H153.919V40.9768Z" fill="white"/>
<path d="M114.273 52.1557H142.304C143.033 52.1478 143.756 52.2918 144.426 52.5784C145.095 52.865 145.698 53.288 146.195 53.8203C146.692 54.3526 147.073 54.9826 147.313 55.67C147.552 56.3574 147.646 57.0872 147.587 57.8127L147.333 61.584C147.207 63.1078 146.518 64.5305 145.401 65.5759C144.284 66.6213 142.817 67.2147 141.287 67.241H113.251L107.36 70.5956L108.227 57.8127C108.352 56.2886 109.04 54.8654 110.158 53.8198C111.275 52.7743 112.742 52.1811 114.273 52.1557V52.1557Z" fill="white"/>
<path opacity="0.15" d="M114.273 52.1557H142.304C143.033 52.1478 143.756 52.2918 144.426 52.5784C145.095 52.865 145.698 53.288 146.195 53.8203C146.692 54.3526 147.073 54.9826 147.313 55.67C147.552 56.3574 147.646 57.0872 147.587 57.8127L147.333 61.584C147.207 63.1078 146.518 64.5305 145.401 65.5759C144.284 66.6213 142.817 67.2147 141.287 67.241H113.251L107.36 70.5956L108.227 57.8127C108.352 56.2886 109.04 54.8654 110.158 53.8198C111.275 52.7743 112.742 52.1811 114.273 52.1557V52.1557Z" fill="#1DD3B0"/>
<path opacity="0.5" d="M140.881 57.5586H114.901V58.5034H140.881V57.5586Z" fill="#1DD3B0"/>
<path opacity="0.5" d="M124.942 60.8972H114.674V61.842H124.942V60.8972Z" fill="#1DD3B0"/>
<path opacity="0.5" d="M134.017 60.8972H127.458V61.842H134.017V60.8972Z" fill="#1DD3B0"/>
</svg>
