<svg width="170" height="152" viewBox="0 0 170 152" fill="none" xmlns="http://www.w3.org/2000/svg">
<path d="M167.059 8.4873H95.7393V141.046H167.059V8.4873Z" fill="#DBDBDB"/>
<path d="M160.952 15.2051H101.847V90.7143H160.952V15.2051Z" fill="white"/>
<path d="M160.952 42.566H101.847V43.4821H160.952V42.566Z" fill="#C7C7C7"/>
<path d="M160.952 66.1819H101.847V67.0979H160.952V66.1819Z" fill="#C7C7C7"/>
<path d="M160.952 89.7977H101.847V90.7138H160.952V89.7977Z" fill="#C7C7C7"/>
<path d="M132.079 15.2051H130.719V89.7982H132.079V15.2051Z" fill="#EBEBEB"/>
<path d="M133.393 66.1783H140.397V54.5211H133.393V66.1783Z" fill="#EBEBEB"/>
<path d="M132.435 54.521H141.36V52.5382H132.435V54.521Z" fill="#DBDBDB"/>
<path d="M134.294 64.2806H139.5V57.0915H134.294V64.2806Z" fill="#C7C7C7"/>
<path d="M142.832 66.1783H149.836V54.5211H142.832V66.1783Z" fill="#EBEBEB"/>
<path d="M141.874 54.521H150.798V52.5382H141.874V54.521Z" fill="#DBDBDB"/>
<path d="M143.733 64.2806H148.939V57.0915H143.733V64.2806Z" fill="#C7C7C7"/>
<path d="M152.271 66.1783H159.274V54.5211H152.271V66.1783Z" fill="#EBEBEB"/>
<path d="M151.312 54.521H160.237V52.5382H151.312V54.521Z" fill="#DBDBDB"/>
<path d="M153.172 64.2806H158.378V57.0915H153.172V64.2806Z" fill="#C7C7C7"/>
<path d="M112.348 89.7977H103.071V79.2614C103.071 78.7171 103.288 78.195 103.673 77.8101C104.057 77.4252 104.579 77.209 105.124 77.209H110.303C110.847 77.209 111.369 77.4252 111.754 77.8101C112.139 78.195 112.355 78.7171 112.355 79.2614V89.7977H112.348Z" fill="#EBEBEB"/>
<path d="M105.016 77.248H110.396V75.9648H105.016V77.248Z" fill="#EBEBEB"/>
<path d="M103.647 75.9648H111.768V74.5927H103.647V75.9648Z" fill="#DBDBDB"/>
<path d="M104.552 87.0542H112.348V80.2593H104.552V87.0542Z" fill="#C7C7C7"/>
<path d="M122.726 89.7977H113.449V79.2614C113.449 78.7171 113.666 78.195 114.05 77.8101C114.435 77.4252 114.957 77.209 115.502 77.209H120.681C121.225 77.209 121.747 77.4252 122.132 77.8101C122.517 78.195 122.733 78.7171 122.733 79.2614V89.7977H122.726Z" fill="#EBEBEB"/>
<path d="M115.398 77.248H120.778V75.9648H115.398V77.248Z" fill="#EBEBEB"/>
<path d="M114.025 75.9648H122.146V74.5927H114.025V75.9648Z" fill="#DBDBDB"/>
<path d="M114.93 87.0542H122.726V80.2593H114.93V87.0542Z" fill="#C7C7C7"/>
<path d="M132.991 42.6666H144.625V27.6197H132.991V42.6666Z" fill="#EBEBEB"/>
<path d="M132.992 27.6199H144.626L142.392 24.551H135.222L132.992 27.6199Z" fill="#EBEBEB"/>
<path d="M133.896 24.5469H143.721V21.563H133.896V24.5469Z" fill="#C7C7C7"/>
<path d="M134.65 37.7308H144.622V30.9669H134.65V37.7308Z" fill="#DBDBDB"/>
<path d="M145.495 42.6666H157.129V27.6197H145.495V42.6666Z" fill="#EBEBEB"/>
<path d="M145.495 27.6199H157.129L154.895 24.551H147.729L145.495 27.6199Z" fill="#EBEBEB"/>
<path d="M146.399 24.5469H156.225V21.563H146.399V24.5469Z" fill="#C7C7C7"/>
<path d="M147.157 37.7308H157.129V30.9669H147.157V37.7308Z" fill="#DBDBDB"/>
<path d="M126.668 42.5623H105.82C105.244 42.5623 104.691 42.3334 104.284 41.9261C103.876 41.5187 103.647 40.9662 103.647 40.3901C103.647 39.814 103.876 39.2615 104.284 38.8541C104.691 38.4468 105.244 38.2179 105.82 38.2179H126.668C127.244 38.2189 127.795 38.4482 128.202 38.8555C128.608 39.2627 128.837 39.8147 128.837 40.3901C128.837 40.9655 128.608 41.5175 128.202 41.9247C127.795 42.332 127.244 42.5613 126.668 42.5623Z" fill="#DBDBDB"/>
<path d="M126.668 37.924H105.82C105.244 37.924 104.692 37.6957 104.285 37.2892C103.878 36.8827 103.648 36.3311 103.647 35.7557C103.647 35.1796 103.876 34.6271 104.284 34.2197C104.691 33.8124 105.244 33.5835 105.82 33.5835H126.668C127.244 33.5845 127.795 33.8138 128.202 34.2211C128.608 34.6283 128.837 35.1803 128.837 35.7557C128.837 36.3308 128.608 36.8823 128.201 37.2889C127.795 37.6956 127.243 37.924 126.668 37.924Z" fill="#DBDBDB"/>
<path d="M126.305 33.3167H106.179C105.769 33.3167 105.376 33.1538 105.086 32.8639C104.796 32.5739 104.633 32.1807 104.633 31.7707C104.633 31.3606 104.796 30.9674 105.086 30.6774C105.376 30.3875 105.769 30.2246 106.179 30.2246H126.305C126.715 30.2246 127.108 30.3875 127.398 30.6774C127.688 30.9674 127.851 31.3606 127.851 31.7707C127.851 32.1807 127.688 32.5739 127.398 32.8639C127.108 33.1538 126.715 33.3167 126.305 33.3167Z" fill="#EBEBEB"/>
<path d="M126.305 29.9234H106.179C105.769 29.9234 105.376 29.7605 105.086 29.4706C104.796 29.1806 104.633 28.7874 104.633 28.3774C104.633 27.9673 104.796 27.5741 105.086 27.2841C105.376 26.9942 105.769 26.8313 106.179 26.8313H126.305C126.715 26.8313 127.108 26.9942 127.398 27.2841C127.688 27.5741 127.851 27.9673 127.851 28.3774C127.851 28.7874 127.688 29.1806 127.398 29.4706C127.108 29.7605 126.715 29.9234 126.305 29.9234Z" fill="#EBEBEB"/>
<path d="M160.952 107.411L131.446 107.52L101.847 107.582H101.677V107.411L101.653 94.3744V94.1812H101.847L131.399 94.2353L160.952 94.3087H161.022V94.3744L160.952 107.411ZM160.952 107.411L160.886 94.3744L160.952 94.444L131.399 94.5174L101.847 94.5677L102.04 94.3744L102.017 107.411L101.847 107.245L131.357 107.307L160.952 107.411Z" fill="#C7C7C7"/>
<path d="M136.957 99.8937H125.841V101.757H136.957V99.8937Z" fill="#C7C7C7"/>
<path d="M160.952 123.537L131.446 123.645L101.847 123.707H101.677V123.537L101.653 110.5V110.307H101.847L131.399 110.361L160.952 110.434H161.022V110.5L160.952 123.537ZM160.952 123.537L160.886 110.5L160.952 110.569L131.399 110.643L101.847 110.693L102.04 110.5L102.017 123.537L101.847 123.371L131.357 123.433L160.952 123.537Z" fill="#C7C7C7"/>
<path d="M136.957 116.019H125.841V117.882H136.957V116.019Z" fill="#C7C7C7"/>
<path d="M160.952 139.662L131.446 139.771L101.847 139.832H101.677V139.662L101.653 126.625V126.436H101.847L131.399 126.49L160.952 126.56H161.022V126.625L160.952 139.662ZM160.952 139.662L160.886 126.625L160.952 126.695L131.399 126.764L101.847 126.822L102.04 126.629L102.017 139.666L101.847 139.5L131.357 139.562L160.952 139.662Z" fill="#C7C7C7"/>
<path d="M136.957 132.144H125.841V134.007H136.957V132.144Z" fill="#C7C7C7"/>
<path d="M42.4005 8.22839H10.7412V46.6323H42.4005V8.22839Z" fill="#EBEBEB"/>
<path d="M38.7831 11.7305H14.3594V43.1231H38.7831V11.7305Z" fill="white"/>
<path d="M15.3141 11.7305H14.3594V43.1231H15.3141V11.7305Z" fill="#DBDBDB"/>
<path d="M43.3556 8.22827H42.4009V46.6322H43.3556V8.22827Z" fill="#DBDBDB"/>
<path d="M28.3005 16.059H22.5415V33.2163H28.3005V16.059Z" fill="#DBDBDB"/>
<path d="M35.5825 36.3433H19.8359V27.5502H35.5825V36.3433ZM20.2225 35.9568H35.196V27.9367H20.2225V35.9568Z" fill="#EBEBEB"/>
<path d="M83.1232 36.4515H51.4639V74.8555H83.1232V36.4515Z" fill="#EBEBEB"/>
<path d="M79.5058 39.9572H55.082V71.3497H79.5058V39.9572Z" fill="white"/>
<path d="M56.0367 39.9572H55.082V71.3497H56.0367V39.9572Z" fill="#DBDBDB"/>
<path d="M84.0821 36.4515H83.1274V74.8555H84.0821V36.4515Z" fill="#DBDBDB"/>
<path d="M69.8664 48.0699H64.9307V60.5466H69.8664V48.0699Z" fill="#EBEBEB"/>
<path d="M75.2543 64.4468H61.6104V55.4603H75.2543V64.4468ZM61.9969 64.0602H74.8677V55.8468H61.9969V64.0602Z" fill="#DBDBDB"/>
<path d="M83.7188 152C118.038 152 145.858 150.185 145.858 147.946C145.858 145.706 118.038 143.891 83.7188 143.891C49.4 143.891 21.5791 145.706 21.5791 147.946C21.5791 150.185 49.4 152 83.7188 152Z" fill="#EBEBEB"/>
<path d="M153.855 116.827C153.855 116.827 160.453 115.331 164.071 112C167.689 108.668 169.706 102.696 169.706 102.696C167.198 103.173 164.726 103.819 162.305 104.629C161.4 105.562 160.645 106.63 160.067 107.794C160.009 107.042 160.009 106.286 160.067 105.533C159.221 105.897 158.43 106.377 157.717 106.96C154.702 109.596 153.855 116.827 153.855 116.827Z" fill="#1DD3B0"/>
<path d="M165.586 105.599C166.487 104.977 167.403 104.378 168.292 103.748C168.3 103.739 168.306 103.727 168.307 103.715C168.309 103.703 168.306 103.69 168.299 103.68C168.292 103.669 168.282 103.661 168.27 103.658C168.258 103.654 168.245 103.654 168.234 103.659C166.537 104.675 164.859 105.762 163.236 106.898C162.672 107.297 162.115 107.707 161.566 108.127L161.682 107.934C161.879 107.601 162.069 107.277 162.297 106.952C162.711 106.29 163.18 105.664 163.7 105.081C163.719 105.058 163.7 105.027 163.665 105.05C163.155 105.642 162.641 106.229 162.169 106.855C161.948 107.157 161.739 107.466 161.543 107.783C161.443 107.945 161.342 108.112 161.245 108.282L161.149 108.452C160.295 109.12 159.464 109.82 158.671 110.558C158.182 111.014 157.709 111.486 157.253 111.973C157.508 111.177 157.732 110.369 158.026 109.58C158.026 109.553 157.995 109.542 157.983 109.58C157.697 110.404 157.38 111.231 157.16 112.081C156.654 112.626 156.17 113.19 155.714 113.782L155.738 113.673C155.815 113.36 155.892 113.051 155.973 112.742C156.136 112.147 156.31 111.552 156.511 110.968C156.891 109.752 157.492 108.618 158.285 107.621C158.304 107.597 158.285 107.567 158.254 107.59C157.017 109.131 156.152 110.936 155.726 112.866C155.656 113.148 155.587 113.43 155.525 113.712C155.49 113.863 155.452 114.014 155.425 114.168C155.227 114.439 155.038 114.709 154.841 114.988C153.717 116.708 152.781 118.544 152.05 120.464C151.226 122.622 150.52 124.824 149.936 127.058C149.936 127.101 149.99 127.116 150.002 127.058C151.293 123.193 152.611 119.282 154.822 115.83C155.289 115.1 155.792 114.4 156.329 113.72C157.422 113.651 158.501 113.437 159.537 113.082C160.67 112.704 161.75 112.185 162.753 111.536C163.323 111.15 163.873 110.735 164.399 110.291C164.403 110.29 164.406 110.288 164.408 110.286C164.411 110.283 164.413 110.28 164.414 110.276C164.415 110.273 164.415 110.269 164.414 110.265C164.414 110.262 164.412 110.258 164.41 110.255C164.408 110.253 164.405 110.25 164.401 110.249C164.398 110.247 164.394 110.246 164.391 110.246C164.387 110.247 164.383 110.248 164.38 110.249C164.377 110.251 164.374 110.254 164.372 110.257C163.452 110.999 162.435 111.614 161.35 112.085C160.282 112.576 159.165 112.95 158.018 113.202C157.531 113.31 157.04 113.387 156.545 113.453C157.152 112.702 157.797 111.984 158.478 111.3C158.702 111.076 158.93 110.864 159.162 110.651C159.93 110.11 160.747 109.642 161.601 109.252C162.679 108.73 163.746 108.177 164.817 107.632C165.42 107.323 166.019 107.01 166.63 106.712C166.653 106.712 166.63 106.662 166.602 106.674C165.52 107.199 164.419 107.686 163.325 108.189C162.293 108.66 161.249 109.136 160.264 109.692L160.136 109.766C161.033 108.993 161.957 108.247 162.904 107.532C163.796 106.871 164.685 106.221 165.586 105.599Z" fill="#263238"/>
<path d="M165.211 109C164.674 109.236 164.129 109.445 163.595 109.692C163.062 109.94 162.533 110.249 162.015 110.554C162.01 110.557 162.007 110.561 162.005 110.566C162.004 110.571 162.004 110.577 162.007 110.581C162.009 110.586 162.014 110.589 162.019 110.591C162.024 110.592 162.029 110.592 162.034 110.589C162.563 110.338 163.093 110.102 163.615 109.839C164.137 109.576 164.678 109.283 165.223 109.043C165.25 109.043 165.238 108.989 165.211 109Z" fill="#263238"/>
<path d="M132.419 83.5718C133.64 85.1442 134.332 87.0629 134.395 89.0525C134.395 89.6439 134.321 90.471 134.252 91.4412C135.898 92.398 137.356 93.6477 138.553 95.1285C137.236 94.365 135.725 94.0023 134.205 94.0849C134.238 94.7488 134.322 95.4091 134.456 96.06C135.416 96.061 136.367 96.2487 137.255 96.6127C136.388 96.6021 135.528 96.7732 134.731 97.1152C135.89 100.857 139.404 104.699 149.059 106.334C150.083 101.744 149.479 96.9408 147.35 92.7476C144.455 87.0465 132.419 83.5718 132.419 83.5718Z" fill="#1DD3B0"/>
<path d="M152.402 122.339C152.232 120.739 152.023 119.145 151.776 117.558C151.29 114.376 150.645 111.22 149.843 108.103C149.464 106.642 148.999 105.204 148.448 103.798C148.476 103.541 148.489 103.283 148.486 103.025C148.486 102.715 148.486 102.406 148.486 102.097C148.486 101.479 148.452 100.864 148.398 100.246C148.299 99.0243 148.101 97.8131 147.806 96.624C147.628 95.9399 147.42 95.2596 147.223 94.5793C147.223 94.5732 147.22 94.5673 147.216 94.5629C147.211 94.5586 147.206 94.5561 147.199 94.5561C147.193 94.5561 147.187 94.5586 147.183 94.5629C147.179 94.5673 147.176 94.5732 147.176 94.5793C147.497 95.7747 147.732 96.9915 147.88 98.2203C148.052 99.4222 148.16 100.632 148.204 101.846C148.204 102.178 148.224 102.511 148.224 102.843C148.224 102.982 148.224 103.125 148.224 103.268C147.749 102.115 147.205 100.99 146.596 99.9016C145.616 98.1749 144.511 96.5214 143.292 94.9543C143.29 94.7722 143.263 94.5914 143.211 94.417C143.168 94.2006 143.118 93.9841 143.071 93.7715C142.971 93.327 142.863 92.8903 142.743 92.4535C142.503 91.58 142.186 90.7335 141.912 89.8716C141.913 89.8681 141.914 89.8642 141.914 89.8604C141.913 89.8566 141.912 89.8529 141.91 89.8496C141.908 89.8464 141.905 89.8438 141.902 89.8419C141.898 89.8401 141.894 89.8392 141.891 89.8392C141.887 89.8392 141.883 89.8401 141.88 89.8419C141.876 89.8438 141.873 89.8464 141.871 89.8496C141.869 89.8529 141.868 89.8566 141.868 89.8604C141.867 89.8642 141.868 89.8681 141.869 89.8716C142.124 90.7258 142.295 91.6109 142.488 92.4844C142.584 92.9135 142.681 93.3464 142.774 93.7754L142.913 94.4209C142.913 94.4209 142.913 94.4557 142.913 94.4711C142.524 93.979 142.126 93.4932 141.719 93.014C139.875 90.8534 137.853 88.859 135.817 86.88C135.569 86.6365 135.31 86.3969 135.044 86.1572C135.02 86.1572 134.989 86.1572 135.013 86.1881C136.945 88.2173 138.878 90.2697 140.683 92.4187C141.116 92.9289 141.537 93.443 141.954 93.9648C141.734 93.814 141.514 93.671 141.297 93.528C140.733 93.1608 140.165 92.8014 139.581 92.4728C138.998 92.1443 138.402 91.8235 137.803 91.5259C137.204 91.2283 136.52 90.9693 135.925 90.6214C135.898 90.6214 135.875 90.6524 135.902 90.6601C136.516 90.9474 137.109 91.278 137.676 91.6496C138.263 91.9974 138.835 92.3492 139.427 92.7164C140.018 93.0835 140.563 93.4314 141.127 93.7947C141.599 94.1001 142.059 94.4363 142.546 94.7146C143.664 96.1536 144.696 97.6572 145.638 99.2175C146.222 100.2 146.755 101.213 147.234 102.252L146.89 102.101L146.005 101.714L144.297 100.968C143.214 100.501 142.113 100.068 141.054 99.5499C140.455 99.268 139.875 98.9465 139.318 98.5875C139.295 98.5875 139.272 98.6107 139.299 98.6261C141.278 99.9905 143.497 100.945 145.688 101.923L146.639 102.344C146.898 102.456 147.161 102.588 147.412 102.688C148.063 104.139 148.61 105.635 149.047 107.164C149.91 110.238 150.611 113.355 151.146 116.502C151.702 119.656 152.073 122.83 152.363 126.018C152.402 126.405 152.437 126.815 152.483 127.213C152.488 127.242 152.504 127.269 152.527 127.288C152.55 127.308 152.579 127.318 152.609 127.318C152.639 127.318 152.668 127.308 152.691 127.288C152.714 127.269 152.729 127.242 152.734 127.213C152.734 125.566 152.568 123.947 152.402 122.339Z" fill="#263238"/>
<path d="M146.527 95.6733C146.349 94.6915 146.086 93.7407 145.824 92.7706C145.824 92.7435 145.773 92.7706 145.781 92.7706C146.025 93.7137 146.199 94.6761 146.376 95.6308C146.554 96.5855 146.716 97.5865 146.856 98.5721H146.883C146.818 97.6 146.699 96.6323 146.527 95.6733Z" fill="#263238"/>
<path d="M142.364 98.3366C141.693 97.8938 140.992 97.4986 140.266 97.1539C139.914 96.9722 139.558 96.8022 139.203 96.6282C138.847 96.4543 138.453 96.2997 138.086 96.118C138.063 96.118 138.039 96.1451 138.066 96.1567C138.418 96.3345 138.754 96.5432 139.098 96.7365L140.173 97.324C140.868 97.7283 141.582 98.0972 142.314 98.4294C142.326 98.4327 142.339 98.4319 142.35 98.4271C142.361 98.4223 142.37 98.4138 142.376 98.403C142.382 98.3923 142.384 98.3798 142.382 98.3678C142.38 98.3557 142.374 98.3447 142.364 98.3366Z" fill="#263238"/>
<path opacity="0.1" d="M153.975 105.398C153.975 105.398 160.078 103.941 162.884 99.8437C165.563 95.9322 166.425 89.261 166.494 88.6774C166.386 89.2146 165.126 95.0432 160.967 97.7566C157.786 99.836 154.709 101.548 153.975 105.398Z" fill="#263238"/>
<path d="M159.61 94.846C158.524 95.8453 157.743 97.1317 157.357 98.5566C157.357 98.5566 157.357 98.5759 157.376 98.5566C157.825 97.1671 158.601 95.9054 159.637 94.877C159.661 94.8615 159.63 94.8267 159.61 94.846Z" fill="#263238"/>
<path d="M153.975 105.398C153.975 105.398 160.078 103.941 162.884 99.8439C165.563 95.9324 166.425 89.2612 166.494 88.6775C166.496 88.6634 166.496 88.6491 166.494 88.635C166.494 88.635 163.568 92.7978 160.488 93.8607C157.407 94.9236 153.09 98.607 153.975 105.398Z" fill="#1DD3B0"/>
<path d="M165.42 90.931C164.873 92.0524 164.242 93.1312 163.534 94.1583C162.821 95.1332 161.975 96.0035 161.021 96.7441C160.19 97.4012 159.313 98.0003 158.474 98.6458C158.473 98.6355 158.473 98.6251 158.474 98.6148C158.633 98.3791 158.799 98.1549 158.973 97.9307C159.324 97.4862 159.707 97.061 160.09 96.6475C160.863 95.8242 161.636 95.0164 162.304 94.1235C162.681 93.6311 163.009 93.1029 163.282 92.5466C163.282 92.5195 163.251 92.5079 163.24 92.5466C162.25 94.6106 160.271 95.9324 158.861 97.6756C158.659 97.9232 158.471 98.1813 158.296 98.4486C158.157 98.6426 158.039 98.8513 157.945 99.0709C157.171 99.69 156.472 100.397 155.861 101.177C155.914 100.776 155.997 100.38 156.109 99.9908C156.25 99.4476 156.467 98.9271 156.754 98.4448C156.754 98.4216 156.731 98.3945 156.715 98.4216C156.418 98.9069 156.179 99.4259 156.004 99.9676C155.876 100.396 155.802 100.839 155.784 101.286C155.482 101.696 155.206 102.125 154.957 102.569C154.984 102.437 155.007 102.31 155.034 102.182C155.154 101.576 155.289 100.969 155.448 100.366C155.736 99.1433 156.233 97.9796 156.916 96.9258C156.916 96.9026 156.893 96.8794 156.878 96.9026C156.177 97.9411 155.629 99.0748 155.251 100.269C155.057 100.868 154.899 101.475 154.764 102.09C154.699 102.391 154.637 102.693 154.578 102.994C154.547 103.152 154.516 103.311 154.489 103.473C153.883 104.803 153.412 106.189 153.082 107.613C152.482 110.159 152.047 112.741 151.78 115.343C151.465 118.05 151.325 120.774 151.358 123.499C151.358 123.843 151.382 124.187 151.401 124.531C151.401 124.619 151.54 124.631 151.544 124.531C151.602 123.174 151.641 121.825 151.718 120.464C151.795 119.104 151.919 117.759 152.062 116.406C152.34 113.754 152.765 111.119 153.333 108.513C153.828 106.279 154.493 104.034 155.691 102.078C156.298 101.105 157.04 100.222 157.894 99.4574C158.752 98.6844 159.688 98.0157 160.6 97.3046C161.515 96.6116 162.345 95.8138 163.074 94.9275C163.815 93.9404 164.462 92.8857 165.006 91.7774C165.149 91.4991 165.296 91.2247 165.443 90.9464C165.47 90.9309 165.431 90.9039 165.42 90.931Z" fill="#263238"/>
<path d="M164.364 91.8276C163.965 92.6495 163.51 93.4436 163.004 94.2046C163.004 94.2239 163.004 94.2394 163.035 94.224C163.557 93.4684 164.016 92.6707 164.407 91.8392C164.422 91.816 164.38 91.8005 164.364 91.8276Z" fill="#263238"/>
<path d="M131.565 102.696C131.565 102.696 131.468 111.362 136.671 113.878C141.873 116.394 144.641 114.299 148.166 115.138C148.031 114.929 145.514 111.312 141.51 110.318C137.374 109.286 132.806 106.314 131.565 102.696Z" fill="#1DD3B0"/>
<path opacity="0.1" d="M131.565 102.696C131.565 102.696 131.468 111.362 136.671 113.878C141.873 116.394 144.641 114.299 148.166 115.138C146.304 114.25 144.313 113.662 142.268 113.395C138.99 113.001 132.725 110.867 131.565 102.696Z" fill="black"/>
<path d="M148.494 115.293C147.878 114.728 147.183 114.257 146.431 113.893C146.322 113.839 146.206 113.797 146.094 113.75L145.92 113.549C145.762 113.387 145.6 113.233 145.429 113.086C145.104 112.805 144.755 112.553 144.386 112.332C143.528 111.829 142.585 111.474 141.707 111.006C141.705 111.004 141.702 111.002 141.698 111.001C141.695 111 141.692 110.999 141.688 111C141.685 111 141.681 111.001 141.678 111.003C141.675 111.005 141.673 111.008 141.671 111.011C141.669 111.014 141.668 111.017 141.668 111.021C141.668 111.024 141.668 111.028 141.669 111.031C141.671 111.034 141.673 111.037 141.675 111.04C141.678 111.042 141.681 111.044 141.684 111.045C142.117 111.269 142.538 111.52 142.963 111.764C143.389 112.007 143.794 112.235 144.193 112.494C144.554 112.726 144.898 112.985 145.221 113.267C145.313 113.345 145.399 113.434 145.487 113.522C144.914 113.328 144.327 113.171 143.733 113.055C142.782 112.861 141.823 112.726 140.876 112.525C140.411 112.421 139.952 112.292 139.5 112.139C139.067 111.791 138.638 111.447 138.229 111.072C137.736 110.619 137.287 110.121 136.887 109.584C136.887 109.561 136.833 109.584 136.853 109.607C137.48 110.459 138.193 111.245 138.979 111.953C138.754 111.868 138.534 111.779 138.314 111.679C136.532 110.879 135.003 109.608 133.892 108.003C133.892 107.976 133.838 108.003 133.853 108.026C134.798 109.404 136.017 110.572 137.432 111.458C138.142 111.902 138.901 112.261 139.694 112.529C140.613 112.815 141.55 113.037 142.5 113.194C143.432 113.344 144.352 113.562 145.252 113.847C146.084 114.126 146.867 114.536 147.571 115.061C148.887 116.092 149.946 117.415 150.663 118.926C151.592 120.93 152.172 123.077 152.379 125.276C152.379 125.369 152.534 125.369 152.526 125.276C152.282 121.62 151.308 117.824 148.494 115.293Z" fill="#263238"/>
<path d="M142.469 112.463C142.198 112.058 141.831 111.725 141.402 111.493C140.911 111.237 140.479 110.88 140.134 110.446C140.134 110.423 140.08 110.446 140.096 110.469C140.408 110.867 140.787 111.207 141.216 111.474C141.688 111.723 142.104 112.066 142.438 112.483C142.469 112.521 142.488 112.483 142.469 112.463Z" fill="#263238"/>
<path d="M145.228 121.697L145.464 126.467L146.187 141.046H157.071L157.794 126.467L158.029 121.697H145.228Z" fill="#455A64"/>
<path d="M145.228 121.697L145.464 126.467H157.794L158.029 121.697H145.228Z" fill="#263238"/>
<path d="M144.463 124.26H158.795V119.707H144.463V124.26Z" fill="#455A64"/>
<path d="M3.78027 141.054H55.4803L45.172 81.094H6.51292L3.78027 141.054Z" fill="#DBDBDB"/>
<path d="M3.78027 141.054H8.31407L10.8573 81.094H6.51292L3.78027 141.054Z" fill="#A6A6A6"/>
<path d="M39.4171 46.3543C38.4277 46.4935 34.0948 46.0335 31.2462 49.9914C28.5406 53.7406 27.7019 65.0654 27.1415 67.5391C26.581 70.0128 23.3498 70.4109 22.6154 73.2827C21.9815 75.7525 23.7749 76.6415 23.9875 78.4465C24.1421 79.8457 22.7507 81.9599 24.0494 84.0239C25.2321 85.8985 27.2729 85.4772 28.5136 86.057C29.7543 86.6367 30.5505 89.4892 32.8464 90.239C35.1423 90.9889 37.1406 88.8824 38.3542 88.8824C39.5679 88.8824 41.0598 92.5929 44.9945 92.2296C48.9292 91.8663 50.0617 88.5036 51.6928 87.8311C53.3239 87.1585 57.4325 88.2524 59.2878 86.1961C61.143 84.1399 61.4368 81.4034 62.2716 80.3984C63.1065 79.3935 64.869 79.5326 65.8971 77.1981C66.9253 74.8636 64.7376 73.4103 64.4284 71.4004C64.2003 69.9974 65.4372 68.6948 64.5405 66.5612C63.3075 63.6237 59.7052 64.2886 58.2983 61.2738C57.1967 58.9083 54.8661 48.6077 48.6045 46.1224C44.2949 44.4025 39.4171 46.3543 39.4171 46.3543Z" fill="#263238"/>
<path d="M27.2536 66.9437C27.02 67.4679 26.6617 67.927 26.2101 68.2811L24.9307 69.4058C24.058 70.0943 23.2977 70.9146 22.6773 71.837C22.3906 72.2778 22.2094 72.7787 22.1477 73.3009C22.0861 73.8231 22.1456 74.3525 22.3217 74.8479C22.5309 75.3433 22.8151 75.8035 23.1643 76.2123C23.5678 76.6575 23.9026 77.1603 24.1577 77.7042C24.3135 78.3243 24.2633 78.9782 24.0147 79.5672C23.833 80.1199 23.6282 80.6456 23.4851 81.1751C23.1759 82.2226 23.0986 83.3396 23.6204 84.2672C23.8552 84.7312 24.239 85.1028 24.7104 85.3224C25.2134 85.5296 25.7511 85.6398 26.2951 85.6471C26.8517 85.6819 27.416 85.6471 27.988 85.6471C28.563 85.5984 29.1393 85.7237 29.6423 86.0065C29.1219 85.7909 28.5511 85.7266 27.9957 85.821C27.4314 85.8635 26.8671 85.937 26.2912 85.9524C25.6993 85.9772 25.1083 85.8853 24.5519 85.6819C23.975 85.452 23.4928 85.0339 23.1837 84.4953C22.5073 83.4401 22.6116 82.0912 22.917 80.9973C23.0638 80.433 23.261 79.8919 23.4194 79.3624C23.6157 78.9012 23.6603 78.3896 23.547 77.9014C23.1991 77.0008 22.171 76.2007 21.7729 75.0296C21.5679 74.4536 21.5048 73.8367 21.5889 73.2312C21.673 72.6256 21.9018 72.0493 22.256 71.551C22.9476 70.6208 23.7841 69.8078 24.7336 69.143L26.1018 68.1303C26.568 67.8239 26.9612 67.4188 27.2536 66.9437Z" fill="#263238"/>
<path d="M54.4292 51.8855C55.5269 53.6093 56.2149 55.5419 57.0807 57.3663C57.5174 58.2784 57.9194 59.2061 58.4141 60.0718C58.6447 60.4973 58.9208 60.8964 59.2374 61.2623C59.303 61.3485 59.3827 61.423 59.4732 61.4826C59.5564 61.5527 59.6487 61.6113 59.7476 61.6565C59.9602 61.7686 60.1882 61.8653 60.4163 61.9619C61.3705 62.3354 62.3046 62.7585 63.2146 63.2297C64.1757 63.7167 64.9628 64.4889 65.468 65.4405C65.7115 65.9319 65.8246 66.4776 65.7966 67.0252C65.7464 67.5545 65.5942 68.069 65.3482 68.5403C64.8844 69.4487 64.4476 70.357 64.4283 71.3928C64.293 70.3647 64.695 69.3443 65.0583 68.4167C65.2553 67.9725 65.3667 67.4952 65.3868 67.0098C65.3821 66.539 65.257 66.0773 65.0235 65.6686C64.5264 64.8357 63.7988 64.1645 62.9286 63.736C62.027 63.2923 61.1033 62.895 60.1612 62.5455C59.9254 62.4412 59.6896 62.3329 59.4539 62.2093C59.1971 62.0736 58.9688 61.8899 58.7813 61.6681C58.4392 61.2604 58.1436 60.8157 57.9001 60.3424C57.4169 59.4385 56.9909 58.5052 56.6246 57.5479L55.5462 54.6954C55.2307 53.7372 54.8577 52.7988 54.4292 51.8855Z" fill="#263238"/>
<path d="M63.2337 79.6951C62.8047 80.2826 62.7544 81.0401 62.5998 81.7397C62.4452 82.4393 62.3061 83.166 62.1244 83.8771C61.9501 84.6017 61.7014 85.3063 61.3823 85.9798C61.0583 86.6891 60.5661 87.3087 59.9483 87.7848C58.5723 88.6815 56.9297 88.5926 55.5073 88.3491C54.7845 88.2215 54.0772 88.0553 53.366 87.9626C52.6638 87.8027 51.9336 87.8133 51.2363 87.9935C51.914 87.687 52.6612 87.5669 53.4008 87.6456C54.1352 87.6959 54.8579 87.8041 55.573 87.8698C56.9799 88.0051 58.4796 88.0128 59.5773 87.2669C60.1125 86.8572 60.5441 86.3277 60.8373 85.7208C61.1603 85.0892 61.4317 84.4326 61.649 83.7573C61.8848 83.077 62.0819 82.3775 62.2906 81.6817C62.4066 81.3339 62.5225 80.986 62.6539 80.642C62.758 80.2797 62.9583 79.9525 63.2337 79.6951Z" fill="#263238"/>
<path d="M52.8292 90.7492C61.1701 94.8579 90.0388 106.415 98.1053 101.831C103.397 98.8235 119.75 81.0593 119.039 74.0596C118.73 71.0139 104.931 60.176 103.002 62.8237C101.074 65.4713 88.4154 80.2167 86.1968 81.2913C83.9782 82.3658 57.1388 78.9722 48.8172 79.6215C34.4737 80.7269 48.3379 88.5577 52.8292 90.7492Z" fill="#C27D68"/>
<path d="M96.7565 66.7509L114.451 85.748C114.451 85.748 102.581 101.042 94.4142 104.131C84.4924 107.884 53.3704 93.4164 48.5467 90.7804C40.6579 86.4553 38.1108 81.9756 42.4978 79.9387C44.1907 79.1347 46.9388 78.7096 50.8348 78.8178C54.9048 78.9183 79.5605 81.0557 85.9302 80.0353C89.5171 79.4633 96.7565 66.7509 96.7565 66.7509Z" fill="#EBEBEB"/>
<path d="M110.126 88.1477C107.42 85.4189 96.7874 73.8467 94.6655 71.1914C94.5186 71.0097 94.5997 70.8706 94.7775 71.0406C103.064 79.026 107.726 85.2257 110.238 88.0472C110.292 88.1052 110.192 88.2173 110.126 88.1477Z" fill="#263238"/>
<path d="M65.2013 141.046C65.2013 141.046 14.4367 141.046 14.2241 141.046C14.2241 141.046 14.3787 139.856 14.6763 138.31C14.6763 138.255 14.6763 138.205 14.7073 138.151C14.7382 138.097 14.7073 138.132 14.7073 138.12C14.7498 137.896 14.7962 137.66 14.8425 137.409C15.0126 136.547 15.2291 135.542 15.4416 134.41C16.2495 130.444 17.4322 124.959 18.9203 118.984C19.0749 118.354 19.2372 117.72 19.3995 117.082C19.7319 115.78 20.0798 114.458 20.4393 113.128C20.4972 112.923 20.5513 112.718 20.6093 112.514C20.6093 112.452 20.6441 112.39 20.6596 112.328C20.7175 112.123 20.7717 111.918 20.8296 111.71C23.3149 102.75 26.38 93.617 29.8083 87.4173C30.7681 85.6126 31.9356 83.9263 33.2869 82.3927C33.8591 81.7656 34.478 81.1828 35.1383 80.6495C35.32 80.5065 35.4978 80.3673 35.6756 80.2359C35.8534 80.1045 36.0621 79.9731 36.2283 79.8494C36.7215 79.5196 37.2383 79.2263 37.7744 78.972C38.1594 78.7875 38.5558 78.6274 38.961 78.4927C39.2508 78.3923 39.5407 78.3111 39.8267 78.2415C42.0044 77.6985 44.305 77.9607 46.3047 78.9798C46.7456 79.2084 47.1704 79.4666 47.5763 79.7528C47.673 79.8223 47.7696 79.8919 47.8624 79.9654C48.3058 80.3004 48.7244 80.6673 49.1147 81.063L49.2306 81.1867C49.4509 81.438 49.8452 81.9288 50.3631 82.6014C51.0356 83.471 51.9091 84.6538 52.9179 86.0259C53.2735 86.5129 53.6394 87.0218 54.0156 87.5526L54.1161 87.6956C54.2244 87.8425 54.3287 87.9932 54.4331 88.144C55.0438 89.0059 55.6699 89.9142 56.2961 90.8496C56.7715 91.5492 57.2469 92.2642 57.7146 92.9831C58.3523 93.9571 58.9746 94.9389 59.566 95.909C60.9086 98.0369 62.0808 100.268 63.0716 102.58C63.2811 103.098 63.4567 103.628 63.5973 104.169C63.6122 104.22 63.6238 104.271 63.6321 104.323C63.6321 104.37 63.6553 104.42 63.6669 104.466C63.817 105.212 63.8908 105.971 63.8872 106.731C63.8816 107.743 63.7741 108.752 63.5664 109.742L63.5316 109.916C63.1297 111.756 62.5027 113.54 61.6647 115.227C61.6635 115.236 61.6635 115.245 61.6647 115.254L61.5295 115.521C61.3864 115.787 61.3014 115.934 61.3014 115.934V115.985L61.3787 116.506L62.3373 123.077L63.7403 132.74L65.2013 141.046Z" fill="#1DD3B0"/>
<path d="M12.5039 141.046C12.674 140.119 12.844 139.191 13.018 138.275C13.018 138.252 13.018 138.225 13.018 138.202V138.136C13.0605 137.908 13.103 137.68 13.1494 137.452C14.2239 131.94 15.3061 126.656 16.4657 121.817C16.6009 121.226 16.7401 120.638 16.8792 120.063C17.3933 117.933 17.9112 115.9 18.4253 113.983C18.4485 113.905 18.4678 113.828 18.491 113.751C18.5335 113.592 18.576 113.434 18.6224 113.279C18.6881 113.032 18.7577 112.788 18.8273 112.549C19.4998 110.187 20.1801 108.023 20.8642 106.098C24.0529 97.1423 27.0484 91.1359 29.5916 87.1123C31.5551 84.0202 33.2635 82.0876 34.6163 80.8856C34.996 80.541 35.3962 80.2196 35.8145 79.9232L35.9111 79.8574C37.1132 79.0303 37.7934 78.9414 37.7934 78.9414V78.9723C37.7934 79.0264 37.7934 79.1463 37.7934 79.3318C37.7934 79.7183 40.3406 92.0365 40.3754 93.54C40.4527 96.8795 43.2742 138.607 43.309 141.05C43.309 141.054 12.5039 141.046 12.5039 141.046Z" fill="#EBEBEB"/>
<path d="M65.5531 141.046H55.4457C55.4457 141.019 55.4457 140.988 55.4457 140.961C55.1172 137.595 54.7964 134.259 54.4872 130.985C54.464 130.777 54.4447 130.572 54.4254 130.363C54.2244 128.26 54.0388 126.181 53.834 124.144C53.834 124.071 53.834 123.997 53.834 123.924C53.5712 121.16 53.3161 118.466 53.061 115.861C53.061 115.781 53.0532 115.7 53.0378 115.618C52.7749 112.827 52.5237 110.145 52.2879 107.594C52.2879 107.539 52.2879 107.489 52.2879 107.435V107.296C52.0599 104.869 51.8009 102.553 51.5149 100.37C51.1052 97.1422 50.6646 94.2047 50.2317 91.6267C50.108 90.8846 49.9856 90.1734 49.8645 89.4931C49.8413 89.3656 49.8181 89.2419 49.7988 89.1066C48.9717 84.511 48.2527 81.4111 47.9938 80.3444C47.9513 80.1627 47.9203 80.0429 47.9049 79.981C47.9041 79.9682 47.9041 79.9553 47.9049 79.9424C48.3757 80.2455 48.7979 80.6182 49.1572 81.0478L49.2731 81.1715C49.5901 81.5155 49.9379 81.9175 50.3206 82.3736C51.0936 83.278 51.9439 84.3873 52.8677 85.6319C53.3212 86.24 53.7837 86.8739 54.2553 87.5335L54.379 87.7036L54.7114 88.1751C55.6854 89.555 56.6787 91.0237 57.6373 92.5002L57.9929 93.0606C58.6152 94.0308 59.2142 94.9932 59.7786 95.9556C61.0759 98.0658 62.2004 100.277 63.1412 102.569C63.3433 103.082 63.5099 103.609 63.6398 104.146C63.6547 104.197 63.6663 104.248 63.6746 104.3C63.6746 104.385 63.7094 104.467 63.7249 104.548C63.8483 105.262 63.9168 105.984 63.9297 106.708C63.95 107.721 63.8697 108.734 63.6901 109.731C63.6901 109.808 63.663 109.886 63.6514 109.959C63.29 111.814 62.6184 113.595 61.6647 115.227C61.6635 115.236 61.6635 115.245 61.6647 115.254L61.5217 115.478V115.521L61.6029 116.035L61.6763 116.507L62.6658 122.749L65.1086 138.12L65.5531 141.046Z" fill="#EBEBEB"/>
<path d="M65.4021 141.046H65.2011C64.9963 139.922 64.7682 138.805 64.5673 137.68C64.2735 136.037 63.9991 134.394 63.7324 132.744C63.7092 132.613 63.6899 132.477 63.6667 132.358C63.1719 129.292 62.7274 126.22 62.283 123.147L62.0511 121.543C61.8114 119.869 61.5525 118.192 61.336 116.518C61.3128 116.344 61.2896 116.167 61.2703 115.993L61.2007 115.417C61.1775 115.192 62.0974 113.735 62.3603 113.179C62.7235 112.424 63.0209 111.639 63.2492 110.833C63.3381 110.52 63.4193 110.203 63.4812 109.882C63.4924 109.838 63.5014 109.795 63.5082 109.75C63.7693 108.447 63.8266 107.11 63.6783 105.789C63.5467 104.68 63.2873 103.591 62.9052 102.542C62.1322 100.354 60.9108 98.3135 59.6856 96.3577L59.3493 95.8243C58.7348 94.8464 58.1125 93.8724 57.4941 92.8984C57.0844 92.2491 56.6785 91.5997 56.2765 90.9427C56.2728 90.9354 56.2707 90.9274 56.2705 90.9193C56.2703 90.9111 56.2719 90.903 56.2753 90.8956C56.2786 90.8882 56.2836 90.8816 56.2898 90.8764C56.2961 90.8711 56.3034 90.8674 56.3113 90.8654C56.3183 90.8594 56.3272 90.8561 56.3365 90.8561C56.3457 90.8561 56.3546 90.8594 56.3616 90.8654C56.779 91.4142 57.1952 91.9669 57.61 92.5235L58.0506 93.1187C58.6021 93.8737 59.1522 94.6287 59.7011 95.3837C59.4189 94.7498 59.1406 94.1121 58.8778 93.4511C58.8005 93.2733 58.7309 93.0917 58.6575 92.91C58.6188 92.8173 58.7541 92.7361 58.7966 92.8327C58.9126 93.0723 59.0247 93.3159 59.1329 93.5594C59.5194 94.3904 59.8595 95.233 60.2074 96.0756L60.2886 96.1915C61.2324 97.5161 62.0723 98.9117 62.8009 100.366C63.1863 101.153 63.5144 101.967 63.7826 102.801C64.5499 105.057 64.7373 107.469 64.3276 109.816C64.289 110.044 64.2387 110.272 64.1846 110.5C64.1863 110.518 64.1863 110.536 64.1846 110.554C63.9555 111.491 63.621 112.399 63.1874 113.26C62.8859 113.859 61.9158 115.158 61.9158 115.192L62.0781 116.116C62.0974 116.224 62.1129 116.337 62.1322 116.445C62.4608 118.377 62.7468 120.345 63.0251 122.297C63.1951 123.503 63.3613 124.708 63.5314 125.91C64.0377 129.528 64.5518 133.142 64.9731 136.772C65.0233 137.208 65.0697 137.645 65.1161 138.082C65.2011 139.094 65.2939 140.072 65.4021 141.046Z" fill="#263238"/>
<path d="M47.959 80.3481C49.1546 82.1519 50.3682 83.9492 51.5999 85.74C52.8445 87.5141 54.062 89.3114 55.3259 91.07L55.353 90.6487L52.3111 93.8374L52.0599 94.1003L52.3266 94.3592C53.6059 95.5999 54.9124 96.8175 56.211 98.0388L56.1028 97.7219C55.6313 101.027 55.1249 104.324 54.7036 107.636C54.2823 110.948 53.8417 114.257 53.4745 117.577C54.1045 114.296 54.6804 111.006 55.2293 107.717C55.7781 104.428 56.2961 101.127 56.8179 97.8301L56.8488 97.6446L56.7096 97.5132C55.4226 96.2802 54.1432 95.0395 52.8445 93.822V94.3438L55.8284 91.1009L56.0139 90.8999L55.8554 90.6796C54.5761 88.9287 53.2465 87.201 51.9439 85.4849C50.6414 83.7688 49.3195 82.0488 47.959 80.3481Z" fill="#A6A6A6"/>
<path d="M28.1001 88.5037C15.4418 106.388 7.49894 133.057 15.2717 137.977C20.4355 141.24 31.1458 111.694 30.7825 111.841C30.0095 112.158 32.8117 102.008 36.2864 89.6941C40.1632 75.9497 35.3317 78.2804 28.1001 88.5037Z" fill="#C27D68"/>
<path d="M34.4271 80.5336C24.6328 88.1711 6.5556 123.866 13.1727 136.663C18.5375 147.037 32.166 111.717 31.8181 111.3C31.4702 110.883 35.2387 97.3005 36.7771 91.7734C38.3154 86.2462 39.6566 76.4713 34.4271 80.5336Z" fill="#EBEBEB"/>
<path d="M34.9101 101.514C34.5816 102.082 34.2569 102.646 33.9515 103.23C33.8974 103.338 33.8472 103.45 33.7931 103.558C33.8626 103.268 33.9283 102.979 33.9979 102.689C34.2769 101.678 34.5026 100.654 34.6743 99.6198C34.6747 99.6099 34.6717 99.6002 34.6657 99.5924C34.6598 99.5845 34.6513 99.579 34.6417 99.5767C34.6321 99.5744 34.622 99.5756 34.6132 99.5799C34.6043 99.5842 34.5972 99.5915 34.5931 99.6004C34.2261 100.628 33.9138 101.674 33.6578 102.735C33.3679 103.759 33.0742 104.784 32.8075 105.827C32.5408 106.871 32.2547 107.891 32.0035 108.919C31.7211 109.934 31.5093 110.967 31.3696 112.011C31.3706 112.023 31.3751 112.034 31.3826 112.042C31.3901 112.051 31.4002 112.057 31.4114 112.06C31.4226 112.062 31.4343 112.061 31.4449 112.057C31.4554 112.052 31.4643 112.044 31.4701 112.035C31.8703 111.02 32.1971 109.977 32.448 108.915C32.7263 107.887 32.9814 106.851 33.2481 105.823C33.3602 105.394 33.4645 104.958 33.5689 104.525L33.7312 104.219C33.8858 103.941 34.025 103.651 34.1603 103.365C34.4385 102.766 34.6936 102.163 34.9333 101.552C34.9526 101.514 34.9217 101.498 34.9101 101.514Z" fill="#263238"/>
<path d="M37.8942 80.0967C37.1985 82.0937 36.4822 84.0842 35.7452 86.0683C34.9992 88.0434 34.2842 90.0339 33.5112 91.9974L33.3991 91.6109L36.8042 94.1426L37.0864 94.3513L36.9009 94.6566C36.008 96.1176 35.092 97.5593 34.1953 99.0049L34.2262 98.6725C35.3394 101.811 36.4873 104.938 37.558 108.096C38.6286 111.253 39.7224 114.404 40.7467 117.577C39.4944 114.485 38.2794 111.384 37.1019 108.273C35.8959 105.181 34.7828 102.039 33.6001 98.916L33.5382 98.7421L33.6348 98.5836C34.5316 97.1303 35.4244 95.6693 36.3404 94.2276L36.4371 94.7417L33.0705 92.1482L32.8618 91.9858L32.9584 91.7423C33.7315 89.7827 34.5818 87.8501 35.3896 85.906C36.1974 83.9618 37.0362 82.0176 37.8942 80.0967Z" fill="#A6A6A6"/>
<path d="M36.0736 83.533C35.8069 79.5441 39.0652 78.1218 42.053 77.7353C45.5973 77.256 47.955 77.5575 49.6518 80.9936C51.4375 84.6152 52.3574 88.8205 53.0686 92.7861C53.2 93.5243 54.3557 93.3427 54.2281 92.6005C53.4242 88.032 52.2724 79.5132 47.727 77.0241C43.5449 74.7359 34.4734 76.9738 34.9218 83.7378C34.972 84.4876 36.1238 84.2982 36.0813 83.5523L36.0736 83.533Z" fill="#455A64"/>
<path d="M56.6633 94.4326C56.7475 94.9564 56.6746 95.4935 56.4536 95.9759C56.2326 96.4583 55.8735 96.8643 55.4217 97.1426C54.97 97.4209 54.4458 97.5589 53.9156 97.5393C53.3853 97.5196 52.8728 97.3432 52.4429 97.0322C52.013 96.7213 51.6849 96.2898 51.5002 95.7923C51.3156 95.2949 51.2826 94.7539 51.4054 94.2377C51.5282 93.7215 51.8014 93.2534 52.1904 92.8924C52.5793 92.5315 53.0666 92.2941 53.5905 92.2101C54.2925 92.0987 55.0101 92.27 55.586 92.6865C56.1619 93.1031 56.5493 93.731 56.6633 94.4326Z" fill="#263238"/>
<path d="M55.5885 94.6028C55.6389 94.9185 55.5945 95.242 55.461 95.5324C55.3274 95.8228 55.1107 96.0671 54.8383 96.2343C54.5659 96.4016 54.25 96.4842 53.9306 96.4719C53.6112 96.4595 53.3026 96.3527 53.0439 96.1649C52.7853 95.9771 52.5881 95.7168 52.4774 95.4169C52.3667 95.1171 52.3475 94.7911 52.4221 94.4803C52.4967 94.1695 52.6619 93.8878 52.8966 93.6708C53.1314 93.4539 53.4252 93.3115 53.741 93.2616C54.1638 93.1948 54.5958 93.2985 54.9422 93.55C55.2886 93.8015 55.521 94.1801 55.5885 94.6028Z" fill="#EBEBEB"/>
<path d="M40.1049 96.0481C43.0386 107.257 42.5786 110.005 41.651 111.292C40.9474 112.193 40.0453 112.919 39.015 113.414L38.6787 112.672L38.8488 113.059L38.6787 112.672C39.5801 112.234 40.3724 111.6 40.9978 110.817C41.6742 109.885 42.2346 107.361 39.3319 96.2568L40.1049 96.0481Z" fill="#C7C7C7"/>
<path d="M37.2579 113.394L37.6815 114.162C37.7959 114.369 38.0569 114.445 38.2644 114.33L39.9805 113.384C40.188 113.27 40.2634 113.009 40.149 112.801L39.7254 112.033C39.611 111.826 39.35 111.75 39.1426 111.865L37.4265 112.811C37.219 112.925 37.1435 113.186 37.2579 113.394Z" fill="#263238"/>
<path d="M32.788 96.3147C30.5463 104.764 30.0013 109.387 31.0681 110.871C31.6898 111.66 32.4828 112.297 33.3871 112.734L33.047 113.476C32.0198 112.976 31.1208 112.247 30.4187 111.346C29.1471 109.58 29.607 105.162 32.0112 96.106L32.788 96.3147Z" fill="#C7C7C7"/>
<path d="M31.8881 112.866L32.3125 112.102C32.3678 112.003 32.4603 111.929 32.5697 111.898C32.6792 111.867 32.7965 111.88 32.8959 111.936L34.6087 112.888C34.7091 112.944 34.7831 113.037 34.8147 113.147C34.8462 113.258 34.8325 113.376 34.7767 113.476L34.3523 114.24C34.3249 114.289 34.2881 114.333 34.244 114.368C34.1999 114.403 34.1493 114.429 34.0951 114.444C34.0409 114.46 33.9842 114.464 33.9282 114.458C33.8723 114.451 33.8181 114.434 33.7689 114.406L32.0561 113.454C32.0061 113.427 31.9619 113.39 31.9263 113.346C31.8907 113.301 31.8643 113.25 31.8486 113.195C31.833 113.14 31.8284 113.083 31.8352 113.026C31.842 112.97 31.8599 112.915 31.8881 112.866Z" fill="#263238"/>
<path d="M31.7215 95.7545C32.0946 93.8851 32.5825 92.0406 33.1825 90.2312C33.5386 89.4307 34.1033 88.7405 34.8175 88.233C34.9798 88.233 34.9141 86.7913 34.8175 85.6279C34.7441 84.6036 34.6397 83.4093 34.8832 83.0807C35.0254 82.9276 35.2219 82.8362 35.4307 82.8261C35.6394 82.816 35.8439 82.888 36.0002 83.0266C36.2824 83.3281 36.294 84.5263 36.3288 85.5544C36.3636 86.714 36.4409 88.1441 36.6032 88.1402C37.3221 88.6089 37.9174 89.2439 38.3386 89.9916C39.1225 91.7795 39.7686 93.6247 40.2712 95.511C40.5302 96.7131 40.1359 96.8599 39.7919 96.9798C39.3049 97.146 38.9957 96.8097 38.6324 95.4801C38.0294 93.3736 37.2719 89.8254 35.807 89.8331C34.3498 89.9761 33.7546 93.733 33.283 95.8241C32.9854 97.1344 32.711 97.2619 32.2085 97.146C31.8491 97.0609 31.4858 96.9141 31.7215 95.7545Z" fill="#263238"/>
<path d="M66.2953 40.4869L63.8062 97.7411L109.504 91.7154L111.997 34.4612L66.2953 40.4869Z" fill="#37474F"/>
<path opacity="0.2" d="M71.5131 67.145C71.8494 72.676 73.8322 75.714 74.4699 77.4842C75.1077 79.2545 77.9486 83.622 77.9486 83.8462C77.9486 84.0704 75.2739 96.2146 75.2739 96.2146L95.5272 93.5438C95.5272 93.5438 95.1716 87.1509 95.3223 86.5402C95.4731 85.9295 99.8291 77.0745 101.298 73.2287C102.767 69.3829 105.414 57.5402 105.236 53.3272C105.059 49.1142 100.985 49.8717 100.161 53.103C99.4967 55.6617 96.8606 64.8452 96.5669 64.7757C96.2731 64.7061 98.113 51.5917 97.5139 46.826C96.9148 42.0603 92.7945 43.7687 92.3423 47.5063C91.8901 51.2439 91.0861 63.6393 90.9083 63.6084C90.7306 63.5775 89.9846 49.7442 89.2657 45.9873C88.5468 42.2304 83.9202 43.0575 83.7617 47.4135C83.6033 51.7695 84.6932 64.8375 84.5154 64.7138C84.3376 64.5901 82.7375 55.882 81.2301 51.3791C79.7227 46.8763 75.3048 49.2649 75.9116 53.8374C76.5185 58.4098 80.3643 71.8682 80.1633 71.8257C79.9623 71.7832 77.8906 67.9605 77.0364 64.3737C76.1822 60.7869 71.173 61.6101 71.5131 67.145Z" fill="white"/>
<path d="M82.0337 77.5924C82.1303 76.8735 81.3573 77.0281 80.9089 76.5334C80.4606 76.0386 79.0769 74.7786 79.0344 74.3302C78.9918 73.8819 79.0343 73.2364 78.4353 73.0199C78.014 72.8615 77.5501 73.3214 77.2409 73.5533C76.9317 73.7852 76.5723 74.3264 76.6921 74.7438C76.8815 75.3931 77.5888 75.3429 77.6506 75.4434C77.7125 75.5439 79.475 77.4417 79.6566 77.7315C79.8383 78.0214 79.5755 79.2776 80.4103 79.3124C80.9785 79.3317 81.1563 79.0805 81.4655 78.7674C81.6355 78.6208 81.7736 78.4408 81.8713 78.2387C81.969 78.0367 82.0243 77.8167 82.0337 77.5924Z" fill="white"/>
<path d="M85.3889 73.422C85.7406 72.7495 85.0024 72.591 84.8207 71.9224C84.6004 71.1841 83.9008 69.4564 84.0477 68.9965C84.1945 68.5365 84.4342 67.9065 84.0206 67.4504C83.7191 67.1296 83.151 67.4002 82.7954 67.5084C82.5733 67.5775 82.3726 67.7021 82.2123 67.8706C82.052 68.039 81.9373 68.2456 81.8793 68.4708C81.7982 69.1859 82.4243 69.4178 82.4436 69.5415C82.463 69.6651 83.263 72.247 83.3094 72.6065C83.3558 72.966 82.6601 74.1139 83.3674 74.4734C83.8467 74.7207 84.094 74.5429 84.4767 74.3535C84.6826 74.2661 84.8693 74.1388 85.0258 73.9789C85.1824 73.819 85.3057 73.6298 85.3889 73.422Z" fill="white"/>
<path d="M88.9252 72.6797C89.4431 72.042 88.7629 71.6825 88.7319 70.9017C88.6971 70.0398 88.4343 67.9758 88.6817 67.512C88.9291 67.0482 89.3465 66.4337 89.0411 65.8384C88.8208 65.4055 88.1869 65.5485 87.8082 65.5717C87.5617 65.5918 87.3249 65.6763 87.1214 65.8167C86.9179 65.9571 86.7548 66.1485 86.6486 66.3718C86.3858 67.1448 86.954 67.5314 86.9385 67.686C86.923 67.8406 87.0777 70.8438 87.0351 71.2457C86.9926 71.6477 86.007 72.7106 86.6216 73.2865C87.039 73.673 87.3289 73.5532 87.7579 73.4527C87.9952 73.4111 88.2213 73.321 88.4222 73.188C88.623 73.0549 88.7943 72.8819 88.9252 72.6797Z" fill="white"/>
<path d="M79.7108 61.3004C79.6606 62.0116 80.3022 62.2165 80.3215 62.3363C80.3215 62.3633 80.3795 62.5179 80.4568 62.7421L82.4164 63.5152C82.1304 62.7962 81.8405 62.0116 81.9139 61.7179C82.026 61.254 82.2657 60.6202 81.8212 60.195C81.5042 59.8897 80.9438 60.195 80.5921 60.3071C80.3733 60.3849 80.1778 60.5167 80.0237 60.6904C79.8696 60.8641 79.762 61.074 79.7108 61.3004Z" fill="white"/>
<path d="M81.4966 67.4582C82.0339 67.5857 82.2465 67.3693 82.5982 67.1103C82.7922 66.9909 82.9604 66.834 83.0931 66.6488C83.2259 66.4637 83.3204 66.254 83.3712 66.0319C83.5954 65.3207 82.8301 65.3207 82.4977 64.7332C82.3624 64.4936 82.1383 64.1419 81.9102 63.7708L79.8037 63.3534C80.1902 64.0375 80.9942 65.4444 81.0831 65.6995C81.1913 66.0319 80.712 67.261 81.4966 67.4582Z" fill="white"/>
<path d="M88.829 64.3313C89.3044 63.6627 88.5855 63.365 88.4928 62.5998C88.3923 61.7572 87.9632 59.7511 88.1719 59.2719C88.3807 58.7926 88.7594 58.1587 88.4039 57.5983C88.1488 57.1924 87.5187 57.3857 87.1361 57.4398C86.8912 57.4798 86.6609 57.5822 86.4672 57.7373C86.2736 57.8923 86.1232 58.0947 86.0307 58.3249C85.8297 59.0979 86.4172 59.4535 86.4172 59.5888C86.4172 59.7241 86.8037 62.6809 86.8037 63.0674C86.8037 63.4539 85.8838 64.5942 86.5486 65.1121C87.0047 65.4638 87.2868 65.3131 87.7081 65.1778C87.9425 65.1198 88.1626 65.0149 88.3553 64.8694C88.5479 64.7239 88.7091 64.5409 88.829 64.3313Z" fill="white"/>
<path d="M81.346 58.8965C81.7093 58.2278 80.9904 58.0578 80.8049 57.3814C80.5961 56.6354 80.0318 55.5184 80.1555 55.0623C80.2792 54.6062 80.5652 53.9762 80.1555 53.5163C79.8579 53.1877 79.2859 53.4467 78.9341 53.551C78.7105 53.6154 78.5073 53.7364 78.3442 53.9023C78.181 54.0682 78.0634 54.2734 78.0026 54.498C77.9099 55.2169 78.5283 55.4604 78.5438 55.5841C78.5592 55.7078 79.2279 57.6867 79.2665 58.0462C79.3052 58.4056 78.594 59.5497 79.2936 59.9208C79.769 60.1759 80.0164 60.0019 80.399 59.8203C80.6112 59.7385 80.8046 59.6145 80.9674 59.4557C81.1302 59.2969 81.259 59.1066 81.346 58.8965Z" fill="white"/>
<path d="M88.1484 56.3148C88.6277 55.65 87.9165 55.3408 87.8315 54.5755C87.7348 53.729 87.329 51.7191 87.5454 51.2399C87.7619 50.7606 88.1407 50.1306 87.7928 49.5663C87.5377 49.1566 86.9077 49.3421 86.525 49.3962C86.2804 49.4334 86.0495 49.5334 85.8551 49.6865C85.6606 49.8396 85.5093 50.0406 85.4158 50.2697C85.2032 51.0427 85.8023 51.4022 85.8023 51.5413C85.8023 51.6805 86.1579 54.6335 86.1424 55.0393C86.1269 55.4451 85.2109 56.5583 85.868 57.0839C86.3202 57.4434 86.6023 57.2927 87.0275 57.1612C87.2625 57.1047 87.4833 57.0004 87.6761 56.8548C87.869 56.7091 88.0297 56.5253 88.1484 56.3148Z" fill="white"/>
<path d="M92.8253 73.6924C93.4553 73.1861 92.9219 72.645 93.0843 71.8526C93.262 70.983 93.5249 68.8417 93.8573 68.4397C94.1897 68.0377 94.7269 67.5314 94.5955 66.855C94.4989 66.3641 93.8805 66.3409 93.5249 66.2675C93.2901 66.2271 93.0487 66.2528 92.8276 66.3415C92.6065 66.4302 92.4144 66.5785 92.2726 66.77C91.8474 67.4618 92.2726 68.03 92.2185 68.1653C92.1643 68.3006 91.573 71.3695 91.4454 71.7598C91.3179 72.1502 90.1467 72.9658 90.568 73.6924C90.8579 74.1987 91.1517 74.1446 91.573 74.1524C91.8027 74.1727 92.0341 74.142 92.2506 74.0625C92.4671 73.983 92.6633 73.8566 92.8253 73.6924Z" fill="white"/>
<path d="M94.8353 65.4365C95.3957 64.8452 94.7657 64.42 94.8043 63.6315C94.8469 62.7657 94.7696 60.6708 95.0517 60.2264C95.3339 59.7819 95.7938 59.2098 95.5503 58.5837C95.3725 58.1276 94.7425 58.1972 94.3714 58.1972C94.1284 58.1959 93.8894 58.2597 93.6794 58.3821C93.4693 58.5044 93.2959 58.6808 93.1771 58.8929C92.8563 59.6273 93.3704 60.0988 93.3472 60.2379C93.324 60.3771 93.2042 63.4151 93.1269 63.8171C93.0496 64.219 92.0021 65.1892 92.5471 65.8269C92.9336 66.2637 93.2119 66.1593 93.6371 66.0975C93.8721 66.0782 94.1005 66.0093 94.307 65.8954C94.5135 65.7815 94.6936 65.6251 94.8353 65.4365Z" fill="white"/>
<path d="M95.5502 57.1418C96.0952 56.5312 95.442 56.133 95.4497 55.3523C95.4497 54.4904 95.3569 52.8245 95.6236 52.3723C95.8903 51.9201 96.3271 51.3287 96.0604 50.718C95.8633 50.2774 95.2333 50.3856 94.8583 50.3895C94.6172 50.3997 94.383 50.4733 94.1795 50.6029C93.9759 50.7325 93.8101 50.9135 93.6988 51.1277C93.4051 51.8698 93.9384 52.3182 93.9191 52.4534C93.8998 52.5887 93.8457 55.2093 93.78 55.6074C93.7143 56.0055 92.7016 57.0182 93.2775 57.6288C93.664 58.0463 93.9578 57.9303 94.3829 57.853C94.6161 57.8217 94.8402 57.7423 95.0412 57.6199C95.2421 57.4975 95.4154 57.3347 95.5502 57.1418Z" fill="white"/>
<path d="M96.0218 75.3082C96.6634 75.0222 96.3619 74.396 96.6904 73.7274C97.0538 72.9891 97.5678 71.3851 97.9466 71.1145C98.3254 70.844 98.8781 70.527 98.9399 69.8854C98.9863 69.4177 98.4916 69.2322 98.221 69.0737C98.042 68.974 97.8366 68.9317 97.6327 68.9524C97.4288 68.9731 97.2361 69.056 97.0808 69.1897C96.5629 69.6999 96.76 70.3222 96.6943 70.4304C96.6286 70.5386 95.6043 72.8886 95.3956 73.2056C95.1869 73.5225 94.0428 73.9438 94.1974 74.7207C94.3056 75.2502 94.5608 75.2811 94.897 75.401C95.078 75.4778 95.2749 75.5094 95.4708 75.4933C95.6668 75.4771 95.8558 75.4136 96.0218 75.3082Z" fill="white"/>
<path d="M99.6125 68.3007C100.134 67.8871 99.6976 67.4426 99.8329 66.7894C99.9836 66.0743 100.123 64.8336 100.405 64.5051C100.687 64.1766 101.124 63.7591 101.019 63.2025C100.942 62.7967 100.436 62.7774 100.142 62.7155C99.949 62.6812 99.7501 62.7013 99.5678 62.7737C99.3855 62.846 99.227 62.9678 99.1101 63.1252C98.7584 63.6934 99.1101 64.1611 99.0598 64.2848C99.0096 64.4085 98.5999 66.399 98.4878 66.7198C98.3757 67.0406 97.4171 67.7093 97.7611 68.32C97.9931 68.7336 98.2366 68.7065 98.5806 68.7065C98.7721 68.7212 98.9644 68.6923 99.1431 68.622C99.3219 68.5517 99.4823 68.4418 99.6125 68.3007Z" fill="white"/>
<path d="M101.394 61.9657C101.916 61.556 101.483 61.1077 101.623 60.4544C101.781 59.7394 101.986 58.3286 102.268 58.0001C102.55 57.6716 102.995 57.2619 102.89 56.7014C102.817 56.2956 102.311 56.2724 102.021 56.2067C101.83 56.1679 101.632 56.1836 101.449 56.252C101.267 56.3203 101.107 56.4385 100.989 56.5932C100.633 57.1575 100.969 57.629 100.931 57.7527C100.892 57.8764 100.397 60.0332 100.281 60.3578C100.165 60.6825 99.203 61.3357 99.5431 61.9503C99.775 62.3677 100.019 62.3368 100.363 62.3368C100.551 62.3553 100.742 62.3316 100.92 62.2674C101.099 62.2033 101.261 62.1002 101.394 61.9657Z" fill="white"/>
<path d="M77.6544 72.2122C77.9482 71.5165 77.2022 71.4392 76.9394 70.7976C76.6456 70.098 76.0118 69.1974 76.1007 68.7336C76.1896 68.2698 76.3983 67.6282 75.9306 67.2339C75.5943 66.9479 75.0455 67.2649 74.6976 67.4079C74.4822 67.4953 74.2924 67.6358 74.1457 67.8162C73.9991 67.9966 73.9004 68.2111 73.8589 68.4399C73.8589 69.1511 74.5005 69.3173 74.5276 69.4332C74.5546 69.5492 75.3779 71.2807 75.4591 71.6286C75.5402 71.9765 74.945 73.1747 75.691 73.4491C76.2012 73.6423 76.4331 73.4491 76.8041 73.221C77.0059 73.118 77.1851 72.9757 77.3311 72.8025C77.4771 72.6292 77.5871 72.4286 77.6544 72.2122Z" fill="white"/>
<path d="M92.6092 80.1433C93.6721 80.0389 94.793 77.5305 94.2983 76.4289C93.6644 75.0027 90.2901 76.3477 89.722 77.7392C89.2852 78.8137 90.294 78.1257 91.1598 78.9915C91.8014 79.6254 92.1106 80.1974 92.6092 80.1433Z" fill="white"/>
<path d="M90.638 74.9333C90.0969 74.0366 86.7728 74.3343 85.2268 75.057C84.3224 75.4783 82.9077 76.9432 82.9077 77.6042C82.9077 78.2651 83.7503 79.3937 84.4538 79.1502C85.499 78.8473 86.5647 78.6199 87.6425 78.4699C88.9992 78.354 91.0902 75.6909 90.638 74.9333Z" fill="white"/>
<path d="M102.793 55.8048C102.886 55.7588 102.968 55.6941 103.034 55.6148C103.1 55.5356 103.149 55.4434 103.178 55.3442C103.206 55.245 103.214 55.141 103.201 55.0386C103.187 54.9363 103.152 54.8378 103.099 54.7496C102.975 54.5563 103.42 53.161 102.913 53.0528C102.407 52.9446 102.237 54.2123 101.92 54.5138C101.603 54.8153 101.205 55.4221 101.676 55.7236C101.845 55.8194 102.032 55.8763 102.226 55.8904C102.419 55.9044 102.613 55.8752 102.793 55.8048Z" fill="white"/>
<path d="M95.6119 49.7053C95.7049 49.6364 95.7817 49.5479 95.837 49.4462C95.8923 49.3445 95.9248 49.232 95.9322 49.1164C95.9395 49.0009 95.9216 48.8851 95.8797 48.7772C95.8377 48.6693 95.7727 48.5719 95.6892 48.4917C95.4921 48.3216 95.639 46.7099 95.0205 46.7369C94.4021 46.764 94.5413 48.1515 94.2475 48.5728C93.9538 48.9941 93.66 49.7324 94.2862 49.9295C94.5108 49.9844 94.7442 49.9929 94.9722 49.9543C95.2002 49.9158 95.4179 49.831 95.6119 49.7053Z" fill="white"/>
<path d="M87.1556 48.6152C87.251 48.5482 87.3299 48.4605 87.3866 48.3587C87.4433 48.2568 87.4762 48.1435 87.4829 48.0272C87.4895 47.9108 87.4699 47.7944 87.4252 47.6868C87.3806 47.5791 87.3122 47.4829 87.2252 47.4054C87.0281 47.2392 87.1633 45.6275 86.541 45.6584C85.9188 45.6893 86.0734 47.073 85.7951 47.4982C85.5168 47.9234 85.2153 48.6577 85.8415 48.851C86.065 48.9035 86.2969 48.9097 86.5229 48.8691C86.7489 48.8286 86.9643 48.7422 87.1556 48.6152Z" fill="white"/>
<path d="M79.5137 52.9327C79.5987 52.856 79.6651 52.7609 79.7077 52.6546C79.7502 52.5483 79.7679 52.4337 79.7594 52.3195C79.7508 52.2053 79.7162 52.0946 79.6582 51.9959C79.6002 51.8972 79.5203 51.8131 79.4248 51.75C79.2044 51.6147 79.1271 50.0377 78.5049 50.1537C77.8826 50.2696 78.215 51.5876 77.9869 52.0399C77.7589 52.4921 77.5502 53.2535 78.2111 53.3424C78.682 53.3804 79.1493 53.2335 79.5137 52.9327Z" fill="white"/>
<path d="M75.2427 66.5265C75.3255 66.449 75.3903 66.3542 75.4323 66.2488C75.4744 66.1435 75.4928 66.0301 75.4861 65.9169C75.4795 65.8036 75.448 65.6932 75.3939 65.5935C75.3398 65.4938 75.2644 65.4072 75.1731 65.3399C74.9528 65.2008 74.9026 63.6161 74.2803 63.7243C73.658 63.8325 73.9672 65.1583 73.7314 65.6066C73.4957 66.055 73.2792 66.8164 73.9363 66.9169C74.4062 66.9647 74.876 66.8243 75.2427 66.5265Z" fill="white"/>
<path d="M84.1403 80.3984C84.2138 80.0118 82.7412 78.69 82.3044 78.7827C81.8676 78.8755 80.9555 80.3945 80.9825 80.9395C81.0096 81.4845 81.9875 82.5242 82.4938 82.2111C83.0001 81.898 84.0051 81.1095 84.1403 80.3984Z" fill="white"/>
<path d="M80.4648 95.5458L82.2544 95.3101C82.8342 91.6575 83.5376 87.5025 83.8739 85.5313C83.9512 85.0829 84.0092 84.7582 84.044 84.5573C84.2333 83.448 83.5917 82.8991 83.0197 82.8837C82.8615 82.8737 82.7043 82.9149 82.5713 83.0012C82.4384 83.0876 82.3367 83.2144 82.2815 83.3629C82.0341 84.0355 81.1026 90.6564 80.4648 95.5458Z" fill="white"/>
<path d="M84.3648 85.4656C84.8247 86.0222 85.277 86.4241 85.2615 86.5826C85.246 86.7411 85.0721 90.3743 84.8557 94.9661L88.8831 94.4327C89.1343 90.181 89.4281 86.7681 89.7064 86.2386C90.4794 84.793 93.5715 82.5706 91.9636 80.8467C90.3557 79.1229 88.5971 79.6022 87.4182 79.6872C86.2394 79.7722 86.2084 79.5597 84.1599 81.7473C83.859 82.0516 83.6362 82.4243 83.5106 82.8334C83.2168 83.8384 83.7966 84.7737 84.3648 85.4656Z" fill="white"/>
<path d="M111.548 55.213C113.824 58.0384 118.578 61.0919 119.514 63.6197C119.766 64.2345 119.814 64.9143 119.649 65.5583C119.485 66.2022 119.118 66.7761 118.602 67.1949C118.602 67.1949 121.508 67.8713 121.98 70.3063C122.219 71.5625 120.434 73.0467 120.434 73.0467C120.434 73.0467 122.753 73.6922 123.023 75.8837C123.251 77.6269 121.423 78.856 121.423 78.856C121.423 78.856 123.356 80.5064 123.008 82.3578C122.32 86.1147 107.617 89.6243 104.069 84.7503C102.411 82.4815 106.048 81.8167 106.048 81.8167C106.048 81.8167 100.586 81.5075 99.7861 78.4927C98.9861 75.4779 103.763 74.9058 103.763 74.9058C103.763 74.9058 98.472 74.558 97.9656 71.3538C97.4284 68.0143 102.306 68.2617 102.306 68.2617C102.306 68.2617 98.5068 66.8277 98.6768 64.2806C98.9513 60.0792 106.318 63.5076 109.364 61.9847L109.874 56.2295L111.548 55.213Z" fill="#C27D68"/>
<path d="M115.603 59.14C113.67 56.2759 116.65 51.4638 115.216 48.4606C113.284 44.3984 109.449 49.7516 109.859 56.2257L111.065 61.2001L115.603 59.14Z" fill="#C27D68"/>
<path d="M121.16 79.0922C121.17 79.0881 121.181 79.0881 121.191 79.0921C121.201 79.096 121.209 79.1038 121.213 79.1135C121.217 79.1232 121.217 79.1342 121.213 79.144C121.209 79.1538 121.201 79.1616 121.191 79.1657C116.638 81.4847 110.918 82.6636 105.831 81.8713C105.665 81.8442 105.634 81.5621 105.831 81.5543C111.223 81.3727 115.997 80.7736 121.16 79.0922Z" fill="#263238"/>
<path d="M120.508 73.0624C120.566 73.0624 120.596 73.1358 120.538 73.1629C115.835 75.5438 109.357 76.6801 103.601 75.0954C103.404 75.0413 103.281 74.794 103.513 74.8403C107.42 75.5979 115.869 74.5968 120.508 73.0624Z" fill="#263238"/>
<path d="M101.885 68.0107C107.462 69.3287 112.905 68.7257 118.401 67.3033C118.474 67.3033 118.494 67.3884 118.436 67.4193C115.935 68.8494 112.336 69.3905 109.499 69.576C106.87 69.7949 104.229 69.3219 101.839 68.2039C101.754 68.1614 101.777 67.9836 101.885 68.0107Z" fill="#263238"/>
<path d="M39.2006 80.0543C39.4982 80.8273 42.4202 85.9332 46.0728 85.9332C48.3919 85.9332 47.8121 78.0599 47.8121 78.0599L47.8507 77.569L48.3803 70.7007L39.8422 66.7969L38.6208 66.2944C38.6208 66.2944 38.5976 68.1845 38.5938 70.5461V70.8823C38.5938 71.0138 38.5938 71.1413 38.5938 71.2689C38.5938 71.6206 38.5938 71.98 38.5938 72.3356C38.5938 72.6101 38.5938 72.8729 38.5938 73.1589C38.5938 73.4449 38.5938 73.7232 38.6131 74.0092C38.729 76.8231 39.0769 79.7142 39.2006 80.0543Z" fill="#C27D68"/>
<path d="M38.5938 70.5345C39.5341 72.3072 40.8493 73.8537 42.4479 75.0666C44.0466 76.2794 45.8903 77.1294 47.8507 77.5574L48.3803 70.6891L39.8422 66.7969L38.6208 66.2944C38.6208 66.2944 38.5976 68.1845 38.5938 70.5345Z" fill="#263238"/>
<path d="M56.6053 59.0437C59.1563 70.8594 52.3536 73.7312 49.8143 74.2685C47.4952 74.7671 39.5601 76.1624 35.8032 64.6714C32.0462 53.1803 36.7308 48.26 41.9642 46.8415C47.1976 45.423 54.0543 47.2242 56.6053 59.0437Z" fill="#C27D68"/>
<path d="M35.3007 63.0053C36.6264 62.87 39.9388 59.0706 39.7688 52.6467C39.7688 52.6467 39.5175 58.4251 39.1194 59.287C38.7213 60.149 40.9708 57.1496 40.909 51.9665C40.909 51.9665 43.8619 53.899 46.3202 54.4981C48.7784 55.0972 50.2896 54.9929 50.4558 54.8112C50.622 54.6295 46.9772 53.6517 45.9568 52.5617C45.9568 52.5617 52.5855 55.3137 55.5926 55.4142C55.9405 55.4142 56.0564 48.2791 51.2946 45.4499C46.5327 42.6206 39.3127 46.192 37.4381 48.1825C37.4381 48.1825 35.119 48.6115 32.7613 52.1443C30.4035 55.677 33.859 63.1522 35.3007 63.0053Z" fill="#263238"/>
<path d="M37.7242 63.736C37.7242 63.736 34.6321 60.323 33.0513 61.471C31.4705 62.6189 34.1258 67.7982 36.213 68.2891C36.4766 68.3701 36.7539 68.397 37.0282 68.3682C37.3024 68.3395 37.5681 68.2556 37.8092 68.1217C38.0503 67.9878 38.2619 67.8066 38.4313 67.589C38.6006 67.3713 38.7243 67.1217 38.7949 66.8551L37.7242 63.736Z" fill="#C27D68"/>
<path d="M33.8279 62.9395C33.797 62.9395 33.797 62.9859 33.8279 62.9936C35.3005 63.3801 36.1972 64.586 36.8852 65.8654C36.4021 65.4016 35.803 65.189 35.1691 65.7687C35.1382 65.7997 35.1691 65.8538 35.2193 65.8422C35.4546 65.7321 35.7182 65.6979 35.9737 65.7443C36.2292 65.7907 36.464 65.9154 36.6456 66.1011C36.9493 66.4133 37.2176 66.7581 37.4456 67.1293C37.5268 67.2452 37.7433 67.1525 37.6776 67.0133C37.6776 67.0133 37.6776 67.0133 37.6776 66.9824C37.4688 65.1928 35.7643 62.8738 33.8279 62.9395Z" fill="#263238"/>
<path d="M53.6061 57.969C53.3201 57.969 53.0573 57.9458 52.7713 57.9304C52.4766 57.9579 52.1813 57.8858 51.9325 57.7255C51.863 57.6608 51.817 57.5748 51.8016 57.4811C51.7862 57.3874 51.8023 57.2912 51.8475 57.2076C51.9623 57.0569 52.1153 56.9395 52.2905 56.8675C52.4658 56.7955 52.6571 56.7715 52.8447 56.7979C53.2332 56.7926 53.61 56.9301 53.9037 57.1844C53.9665 57.2471 54.0098 57.3265 54.0284 57.4132C54.0471 57.4999 54.0403 57.5901 54.0088 57.673C53.9774 57.7559 53.9226 57.828 53.8512 57.8805C53.7797 57.933 53.6946 57.9638 53.6061 57.969Z" fill="#263238"/>
<path d="M45.1644 57.9575C45.4272 57.8707 45.6852 57.77 45.9374 57.656C46.2265 57.5881 46.4856 57.428 46.6757 57.1999C46.7195 57.116 46.735 57.0202 46.7196 56.9268C46.7043 56.8334 46.659 56.7475 46.5906 56.682C46.4341 56.5742 46.2516 56.5102 46.062 56.4966C45.8724 56.483 45.6826 56.5203 45.5123 56.6047C45.1411 56.7189 44.8265 56.9687 44.631 57.3043C44.5901 57.3839 44.5732 57.4738 44.5826 57.5628C44.592 57.6519 44.6271 57.7362 44.6838 57.8056C44.7404 57.875 44.816 57.9263 44.9014 57.9533C44.9868 57.9802 45.0782 57.9817 45.1644 57.9575Z" fill="#263238"/>
<path d="M47.6189 60.9606C47.6189 60.9297 47.5648 61.0109 47.5687 61.0418C47.7464 61.8458 47.8122 62.7966 47.1319 63.1985C47.1087 63.1985 47.1319 63.2527 47.1319 63.2449C48.0131 62.955 47.9126 61.695 47.6189 60.9606Z" fill="#263238"/>
<path d="M46.7411 60.2496C45.423 60.3926 45.8057 63.017 47.0271 62.8856C48.2485 62.7542 47.8465 60.1298 46.7411 60.2496Z" fill="#263238"/>
<path d="M46.2467 60.4622C46.0379 60.6438 45.8601 60.9415 45.578 61.0072C45.2958 61.0729 44.9828 60.8448 44.7354 60.6207C44.7083 60.5975 44.689 60.6207 44.6929 60.6554C44.7586 61.1618 45.0291 61.6488 45.578 61.6449C46.1268 61.6411 46.3703 61.1463 46.4206 60.6207C46.4322 60.5163 46.3278 60.3887 46.2467 60.4622Z" fill="#263238"/>
<path d="M52.2607 59.9286C52.2607 59.8976 52.3302 59.9595 52.3302 59.9943C52.4191 60.8098 52.6549 61.7336 53.4279 61.9036C53.4511 61.9036 53.455 61.95 53.4279 61.95C52.5119 61.9462 52.2104 60.7286 52.2607 59.9286Z" fill="#263238"/>
<path d="M52.8712 58.978C54.1661 58.6997 54.6299 61.2971 53.4278 61.5715C52.2258 61.8459 51.7813 59.2138 52.8712 58.978Z" fill="#263238"/>
<path d="M53.4434 59.0552C53.6753 59.1557 53.9265 59.3722 54.1739 59.3451C54.4213 59.3181 54.6261 58.9934 54.7614 58.6881C54.7614 58.6571 54.8001 58.6881 54.8039 58.7112C54.9083 59.206 54.8349 59.7548 54.371 59.9365C53.9072 60.1182 53.5516 59.7316 53.3468 59.2562C53.3081 59.1828 53.3506 59.0127 53.4434 59.0552Z" fill="#263238"/>
<path d="M48.5234 67.226C48.7398 67.3961 48.9602 67.6396 49.2616 67.6357C49.5652 67.5996 49.8577 67.4995 50.1197 67.342C50.1222 67.3394 50.1252 67.3374 50.1286 67.336C50.1319 67.3347 50.1354 67.334 50.139 67.334C50.1426 67.334 50.1462 67.3347 50.1495 67.336C50.1528 67.3374 50.1558 67.3394 50.1583 67.342C50.1609 67.3445 50.1629 67.3475 50.1643 67.3508C50.1656 67.3541 50.1663 67.3577 50.1663 67.3613C50.1663 67.3649 50.1656 67.3684 50.1643 67.3717C50.1629 67.3751 50.1609 67.3781 50.1583 67.3806C50.0575 67.5531 49.912 67.6951 49.7372 67.7917C49.5623 67.8883 49.3647 67.9359 49.165 67.9295C48.9937 67.9027 48.8342 67.8256 48.7069 67.7079C48.5795 67.5902 48.4901 67.4372 48.45 67.2685C48.4306 67.2221 48.4925 67.1989 48.5234 67.226Z" fill="#263238"/>
<path d="M51.457 63.7553C51.457 63.7553 51.8435 65.1313 51.9362 65.6879C51.9362 65.742 50.0037 65.6454 48.4847 66.0435C48.4151 66.0628 48.3339 65.943 48.4847 65.8502C49.4316 65.313 51.4222 65.2743 51.4222 65.2743C51.4222 65.1816 50.738 63.2606 50.8269 63.2413C51.2772 63.2097 51.7298 63.2396 52.172 63.3302C51.4995 60.8372 50.4288 58.4717 49.7949 55.9864C49.7887 55.9678 49.7898 55.9474 49.798 55.9295C49.8062 55.9117 49.821 55.8976 49.8392 55.8902C49.8574 55.8828 49.8778 55.8826 49.8962 55.8897C49.9145 55.8969 49.9295 55.9107 49.938 55.9284C51.2366 58.3248 52.0754 61.1773 52.8368 63.736C52.9489 64.0607 51.7005 63.821 51.457 63.7553Z" fill="#263238"/>
<path d="M48.3801 83.0343C48.2294 82.8836 48.5965 79.8843 48.4535 79.7644C48.067 79.4398 47.1394 80.3635 45.4928 80.3055C42.6288 80.2089 39.5483 77.4685 38.8873 77.6927C38.2264 77.9169 38.2844 81.2216 38.1143 81.3182C37.9442 81.4148 44.0937 86.8917 46.0455 86.3699C47.9974 85.8481 48.3801 83.0343 48.3801 83.0343Z" fill="#1DD3B0"/>
<path d="M47.387 82.7601C47.4527 82.0605 47.5725 81.3686 47.6073 80.6652C47.6106 80.6528 47.6178 80.6419 47.628 80.6341C47.6381 80.6263 47.6506 80.6221 47.6633 80.6221C47.6761 80.6221 47.6886 80.6263 47.6987 80.6341C47.7088 80.6419 47.7161 80.6528 47.7194 80.6652C47.7638 81.3783 47.7638 82.0934 47.7194 82.8065C47.6643 83.5031 47.5268 84.1908 47.3097 84.855C47.307 84.8637 47.3016 84.8712 47.2943 84.8766C47.287 84.8819 47.2782 84.8848 47.2691 84.8848C47.26 84.8848 47.2512 84.8819 47.2439 84.8766C47.2366 84.8712 47.2312 84.8637 47.2285 84.855C47.2478 84.1322 47.3213 83.4365 47.387 82.7601Z" fill="#263238"/>
<path d="M45.7326 85.1137C45.7326 84.9514 45.7597 84.7852 45.7751 84.6228C45.8061 84.2634 45.8447 83.9039 45.8834 83.5444C45.922 83.185 45.9529 82.8255 45.9839 82.4661C46.0148 82.1066 46.0766 81.751 46.0728 81.3838C46.0728 81.3104 46.181 81.3143 46.1849 81.3838C46.2119 81.7472 46.2815 82.1028 46.2969 82.4699C46.3104 82.845 46.3027 83.2205 46.2737 83.5947C46.2478 83.9429 46.1988 84.2889 46.1269 84.6305C46.0921 84.8083 46.0457 84.9823 45.9955 85.1523C45.9452 85.3224 45.8447 85.5157 45.7945 85.6973C45.7945 85.7437 45.7017 85.7321 45.7094 85.6973C45.7365 85.5041 45.7172 85.3031 45.7326 85.1137Z" fill="#263238"/>
<path d="M44.3491 81.0476C44.3491 80.9819 44.4573 81.0051 44.4611 81.067C44.5531 82.368 44.4224 83.6751 44.0746 84.9321C44.0746 84.9403 44.0714 84.9482 44.0656 84.954C44.0598 84.9598 44.0519 84.963 44.0437 84.963C44.0355 84.963 44.0276 84.9598 44.0218 84.954C44.016 84.9482 44.0128 84.9403 44.0128 84.9321C43.9548 83.6282 44.0679 82.3222 44.3491 81.0476Z" fill="#263238"/>
<path d="M42.4973 82.2691C42.5205 81.9637 42.5282 81.6584 42.5668 81.3569C42.5845 81.0672 42.6298 80.7799 42.7021 80.4988C42.7054 80.4865 42.7127 80.4755 42.7228 80.4677C42.7329 80.4599 42.7454 80.4557 42.7582 80.4557C42.771 80.4557 42.7834 80.4599 42.7935 80.4677C42.8037 80.4755 42.8109 80.4865 42.8142 80.4988C42.8677 80.7828 42.8885 81.072 42.8761 81.3608C42.8761 81.6738 42.8567 81.9946 42.8335 82.3077C42.7724 82.911 42.6743 83.5099 42.5398 84.1011C42.5398 84.1514 42.4548 84.1359 42.4586 84.1011C42.4702 83.4866 42.4509 82.8759 42.4973 82.2691Z" fill="#263238"/>
<path d="M41.0555 79.6291C41.0555 79.5673 41.1638 79.5866 41.1638 79.6485C41.2083 80.7289 41.1003 81.8102 40.843 82.8604C40.843 82.8686 40.8397 82.8765 40.8339 82.8823C40.8281 82.8881 40.8202 82.8913 40.812 82.8913C40.8038 82.8913 40.796 82.8881 40.7902 82.8823C40.7844 82.8765 40.7811 82.8686 40.7811 82.8604C40.7187 81.7757 40.8111 80.6877 41.0555 79.6291Z" fill="#263238"/>
<path d="M39.2431 80.3137C39.2431 80.047 39.5137 78.8178 39.5562 78.5743C39.5562 78.4932 39.676 78.5086 39.6683 78.5937C39.6374 78.8874 39.5562 80.0392 39.5214 80.3214C39.448 80.8818 39.3939 81.4461 39.3088 82.0027C39.3088 82.0259 39.2663 82.0375 39.2663 82.0027C39.2146 81.4412 39.2068 80.8764 39.2431 80.3137Z" fill="#263238"/>
<path d="M16.5739 138.773C24.4394 141.711 45.1759 129.207 57.3317 118.864C59.6508 116.897 40.6382 96.9489 38.3926 99.2989C36.035 101.812 33.5216 104.175 30.8672 106.372C30.1714 106.848 7.96239 135.55 16.5739 138.773Z" fill="#C27D68"/>
<path d="M71.9651 85.7673C72.9275 88.5154 65.951 90.3088 65.951 90.3088C67.1665 90.6229 68.235 91.3498 68.9735 92.3651C70.1833 94.2203 67.814 96.9298 67.814 96.9298C69.0071 97.5158 69.9958 98.4479 70.651 99.6045C71.6327 101.495 69.6267 104.571 69.6267 104.571C70.4251 105.716 70.7859 107.11 70.6432 108.498C70.106 112.189 64.7025 114.122 61.595 115.981C58.1405 118.14 54.8675 120.577 51.8085 123.267L37.063 100.679C37.063 100.679 48.6313 87.0428 52.7593 85.8407C56.234 84.8242 70.4964 81.5659 71.9651 85.7673Z" fill="#C27D68"/>
<path d="M65.8702 90.2505C61.9124 90.4437 58.0086 91.584 54.2749 92.7242C54.2579 92.7293 54.2438 92.7409 54.2354 92.7565C54.2271 92.7721 54.2253 92.7904 54.2304 92.8073C54.2355 92.8242 54.2472 92.8384 54.2627 92.8467C54.2783 92.855 54.2966 92.8568 54.3135 92.8517C58.0356 91.6922 62.1597 91.4641 65.9089 90.436C65.9294 90.4273 65.9463 90.4117 65.9567 90.3919C65.967 90.3721 65.9702 90.3493 65.9656 90.3274C65.9611 90.3055 65.9491 90.2859 65.9317 90.2719C65.9143 90.2579 65.8926 90.2503 65.8702 90.2505Z" fill="#263238"/>
<path d="M67.6131 96.6743C66.7187 96.8031 65.8452 97.05 65.0158 97.4087C64.1139 97.7334 63.2121 98.0722 62.3102 98.4252C60.5284 99.1325 58.762 99.8785 57.0227 100.679C56.9454 100.713 56.9802 100.841 57.0613 100.806C58.8393 100.107 60.625 99.4302 62.43 98.804C63.3344 98.4922 64.2363 98.1869 65.1356 97.888C66.0102 97.6607 66.8567 97.3366 67.6595 96.9217C67.6825 96.9072 67.7006 96.8862 67.7115 96.8613C67.7224 96.8365 67.7255 96.8089 67.7205 96.7822C67.7155 96.7555 67.7026 96.731 67.6834 96.7117C67.6643 96.6925 67.6398 96.6795 67.6131 96.6743Z" fill="#263238"/>
<path d="M69.5458 104.598C68.7728 104.629 67.9534 105.089 67.2268 105.371C66.4228 105.711 65.615 106.044 64.8072 106.376C63.1916 107.033 61.5759 107.694 59.9333 108.309C59.8521 108.339 59.8946 108.467 59.9758 108.436C61.6455 107.833 63.3191 107.253 65.0005 106.631C65.8173 106.33 66.6315 106.022 67.4432 105.707C68.1351 105.441 69.0279 105.189 69.5845 104.675C69.6154 104.652 69.5884 104.598 69.5458 104.598Z" fill="#263238"/>
<path d="M14.2475 137.935C22.3217 146.38 51.0049 124.612 51.0049 124.612L39.1157 98.3597C39.1157 98.3597 32.201 105.966 31.772 105.63C31.343 105.294 6.17708 129.49 14.2475 137.935Z" fill="#EBEBEB"/>
<path d="M46.3974 124.434C44.6039 121.036 37.782 106.878 36.5142 103.721C36.4253 103.5 36.5451 103.392 36.665 103.608C42.2771 113.658 44.9402 120.936 46.5288 124.357C46.5674 124.442 46.4399 124.503 46.3974 124.434Z" fill="#263238"/>
<path d="M38.9262 98.4523C38.0992 99.1123 37.3239 99.8346 36.6071 100.613C35.9385 101.282 35.2737 101.946 34.6166 102.623C33.1865 104.092 31.7951 105.591 30.4113 107.102C29.0276 108.614 27.6671 110.137 26.322 111.679C24.977 113.221 23.7363 114.84 22.3951 116.387C22.3371 116.456 22.4492 116.541 22.511 116.472C23.887 114.949 25.3673 113.515 26.7627 112.023L30.9138 107.636C32.2975 106.175 33.689 104.725 35.0688 103.261C35.7452 102.545 36.4139 101.823 37.0864 101.104C37.8432 100.363 38.5471 99.5699 39.1929 98.7306C39.2144 98.693 39.2232 98.6494 39.2179 98.6063C39.2126 98.5633 39.1935 98.5232 39.1635 98.4919C39.1335 98.4606 39.0942 98.4398 39.0514 98.4327C39.0087 98.4255 38.9647 98.4324 38.9262 98.4523Z" fill="#263238"/>
<path d="M50.8653 123.997C50.788 123.819 50.6836 123.812 50.7145 124.02C50.7145 124.132 50.7841 124.329 50.8034 124.442C49.7985 125.106 46.1653 127.673 45.2956 128.307C43.4326 129.605 41.6469 130.993 39.6912 132.145C16.6318 145.688 13.9919 137.065 13.4353 136.849C13.3503 136.814 13.3851 136.868 13.4353 136.949C13.8218 137.656 16.6704 146.612 39.9385 132.624C41.9097 131.437 43.8694 130.212 45.7362 128.883C46.6755 128.218 47.5954 127.526 48.5037 126.822C49.4141 126.196 50.2585 125.479 51.0237 124.681C51.0507 124.649 51.0682 124.61 51.0744 124.568C51.0805 124.527 51.075 124.484 51.0585 124.445C51.0005 124.295 50.9348 124.144 50.8653 123.997Z" fill="#263238"/>
<path d="M0 141.046L20.9297 140.953L41.8594 140.918L83.7187 140.853L125.578 140.918L146.508 140.953L167.437 141.046L146.508 141.143L125.578 141.174L83.7187 141.239L41.8594 141.174L20.9297 141.143L0 141.046Z" fill="#263238"/>
<path d="M105.99 143.891H56.5317V146.109H105.99V143.891Z" fill="#455A64"/>
<path d="M105.99 143.891H81.0986V146.109H105.99V143.891Z" fill="#263238"/>
<path d="M83.7773 146.106H131.979L138.28 113.372H90.0775L83.7773 146.106Z" fill="#455A64"/>
<path d="M108.093 129.737C108.052 130.111 108.091 130.489 108.208 130.846C108.325 131.203 108.516 131.532 108.769 131.81C109.023 132.087 109.332 132.308 109.677 132.457C110.022 132.606 110.395 132.68 110.771 132.674C111.57 132.66 112.337 132.352 112.925 131.811C113.513 131.27 113.883 130.532 113.964 129.737C114.004 129.363 113.965 128.985 113.848 128.628C113.732 128.271 113.54 127.943 113.287 127.665C113.034 127.388 112.724 127.167 112.379 127.019C112.034 126.87 111.661 126.797 111.285 126.803C110.487 126.818 109.721 127.124 109.133 127.665C108.545 128.205 108.175 128.942 108.093 129.737Z" fill="#263238"/>
<path d="M86.8107 29.839C86.5395 32.4286 85.5543 34.8919 83.965 36.9543C82.3756 39.0166 80.2445 40.5969 77.8095 41.5188C75.3744 42.4407 72.7311 42.668 70.1744 42.1754C67.6177 41.6828 65.2481 40.4895 63.33 38.7288L56.2993 39.7608L59.832 33.6732C59.0212 31.694 58.6728 29.5558 58.8134 27.4216C58.954 25.2874 59.5799 23.2134 60.6434 21.3577C61.7069 19.5019 63.18 17.9134 64.9503 16.7132C66.7207 15.513 68.7416 14.7326 70.8592 14.4317C72.9768 14.1307 75.1351 14.3171 77.1698 14.9766C79.2044 15.636 81.0617 16.7512 82.6001 18.2372C84.1386 19.7231 85.3175 21.5406 86.0472 23.5511C86.7768 25.5617 87.038 27.7123 86.8107 29.839Z" fill="white"/>
<path d="M86.8107 29.8386C86.5396 32.4284 85.5593 34.8933 83.9776 36.962C83.5818 37.4763 83.1559 37.9667 82.7021 38.4307C82.2343 38.8792 81.7386 39.2974 81.2179 39.683C79.1332 41.2552 76.6546 42.2209 74.0558 42.4737C73.4069 42.5329 72.7546 42.5458 72.1039 42.5123C71.4553 42.4957 70.809 42.4272 70.1713 42.3075C67.5776 41.8344 65.1678 40.6456 63.2141 38.8752L63.3803 38.9293L56.3574 40.0077L55.8472 40.085L56.1061 39.6367L59.6041 33.5452L59.5847 33.7848C58.7611 31.7697 58.4108 29.5925 58.5609 27.4207C58.711 25.249 59.3575 23.1406 60.4505 21.258C61.5455 19.3841 63.0506 17.7826 64.8529 16.5734C66.6546 15.3791 68.7036 14.6087 70.8458 14.3201C72.9881 14.0316 75.1679 14.2324 77.2213 14.9076C79.2502 15.5986 81.0989 16.7343 82.6325 18.2316C84.1617 19.7241 85.3322 21.5442 86.0559 23.5548C86.7796 25.5653 87.0377 27.7138 86.8107 29.8386ZM86.8107 29.8386C87.0326 27.7238 86.7669 25.5864 86.034 23.5903C85.301 21.5943 84.1204 19.7928 82.5827 18.3242C81.0451 16.8555 79.1913 15.7589 77.1637 15.1183C75.1361 14.4778 72.9887 14.3105 70.8864 14.6293C68.8053 14.9449 66.823 15.7286 65.0887 16.9213C63.3728 18.1286 61.9393 19.6939 60.8873 21.5092C59.85 23.3301 59.2394 25.3627 59.1016 27.4538C58.971 29.5428 59.3091 31.6346 60.0911 33.5761L60.1413 33.7037L60.0756 33.8196L56.5352 39.884L56.2839 39.4975L63.3223 38.5119H63.419L63.4885 38.5737C65.3633 40.3382 67.6941 41.5431 70.2177 42.0524C70.8455 42.1816 71.4828 42.2592 72.1232 42.2843C72.7666 42.331 73.4125 42.331 74.0558 42.2843C75.3392 42.1867 76.6025 41.9095 77.8088 41.461C79.0221 41.0208 80.1642 40.4048 81.1986 39.6328C81.7176 39.2492 82.2132 38.8349 82.6828 38.3921C83.1396 37.9366 83.5669 37.4525 83.9621 36.9427C85.5475 34.882 86.5332 32.4237 86.8107 29.8386Z" fill="#263238"/>
<path d="M74.3111 30.0128V31.6632C74.3149 31.8275 74.2852 31.9908 74.2239 32.1433C74.1626 32.2957 74.071 32.4342 73.9546 32.5502C73.8383 32.6662 73.6996 32.7574 73.5469 32.8182C73.3943 32.879 73.2308 32.9082 73.0666 32.9039C72.7378 32.9029 72.4228 32.7719 72.1904 32.5394C71.9579 32.3069 71.8269 31.992 71.8259 31.6632V29.0349C71.8259 29.0079 71.8529 29.0079 71.8529 28.9847C71.8529 28.9615 71.8259 28.9576 71.8259 28.9306C71.8356 28.6046 71.9694 28.2946 72.2 28.064C72.4306 27.8334 72.7406 27.6996 73.0666 27.6899C73.4482 27.7039 73.8288 27.6409 74.1855 27.5046C74.5422 27.3683 74.8678 27.1614 75.1428 26.8964C75.4177 26.6314 75.6364 26.3137 75.7858 25.9622C75.9352 25.6108 76.0122 25.2328 76.0122 24.8509C76.0122 24.469 75.9352 24.0911 75.7858 23.7396C75.6364 23.3882 75.4177 23.0704 75.1428 22.8054C74.8678 22.5404 74.5422 22.3336 74.1855 22.1972C73.8288 22.0609 73.4482 21.9979 73.0666 22.012C72.5744 22.0102 72.0905 22.1383 71.6637 22.3833C71.2368 22.6283 70.8822 22.9815 70.6354 23.4073C70.553 23.5513 70.4428 23.6775 70.3112 23.7785C70.1796 23.8795 70.0292 23.9534 69.8689 23.9958C69.7085 24.0383 69.5413 24.0484 69.3769 24.0257C69.2126 24.0029 69.0544 23.9478 68.9116 23.8634C68.7715 23.7806 68.6492 23.6709 68.5518 23.5406C68.4544 23.4103 68.3836 23.262 68.3438 23.1043C68.3039 22.9466 68.2956 22.7825 68.3194 22.6216C68.3432 22.4606 68.3987 22.306 68.4825 22.1666C68.9248 21.4029 69.5499 20.7611 70.3017 20.2988C71.0535 19.8366 71.9083 19.5684 72.7894 19.5183C73.6705 19.4683 74.5502 19.638 75.3495 20.0121C76.1488 20.3862 76.8426 20.9531 77.3685 21.6618C77.8945 22.3705 78.2361 23.1988 78.3626 24.0722C78.4892 24.9456 78.3967 25.8367 78.0935 26.6655C77.7904 27.4943 77.286 28.2348 76.6258 28.8204C75.9656 29.4061 75.1702 29.8184 74.3111 30.0205V30.0128ZM74.3111 35.5631V36.0192C74.3154 36.1838 74.2861 36.3476 74.2251 36.5005C74.164 36.6534 74.0725 36.7923 73.9561 36.9087C73.8397 37.0252 73.7008 37.1167 73.5478 37.1777C73.3949 37.2388 73.2312 37.268 73.0666 37.2638C72.7372 37.2628 72.4216 37.1312 72.189 36.8979C71.9565 36.6646 71.8259 36.3486 71.8259 36.0192V35.5631C71.8309 35.2356 71.9632 34.9229 72.1948 34.6913C72.4264 34.4597 72.7391 34.3274 73.0666 34.3224C73.2303 34.3204 73.3927 34.351 73.5444 34.4126C73.6961 34.4742 73.8339 34.5654 73.9499 34.681C74.0658 34.7965 74.1575 34.9341 74.2195 35.0856C74.2815 35.2371 74.3127 35.3994 74.3111 35.5631Z" fill="#1DD3B0"/>
</svg>
