<svg width="116" height="38" viewBox="0 0 116 38" fill="none" xmlns="http://www.w3.org/2000/svg">
<path d="M17.52 3.55717V12.277C17.5197 13.6139 17.0106 14.9006 16.0962 15.8758C15.1818 16.8511 13.9305 17.4419 12.5964 17.5282H3.55717C3.30374 17.5282 3.05944 17.6229 2.87222 17.7937C2.68501 17.9645 2.56839 18.1992 2.54525 18.4515C2.54525 18.4701 2.54525 18.4866 2.54525 18.5031V18.5958C2.54525 18.6123 2.54525 18.6288 2.54525 18.6473C2.56839 18.8997 2.68501 19.1343 2.87222 19.3052C3.05944 19.476 3.30374 19.5707 3.55717 19.5706H6.62178C6.8616 19.3734 7.15253 19.2483 7.46068 19.2101C7.76883 19.1718 8.08152 19.2219 8.36229 19.3545C8.64306 19.4871 8.88037 19.6968 9.04657 19.9591C9.21276 20.2214 9.301 20.5255 9.301 20.836C9.301 21.1466 9.21276 21.4507 9.04657 21.713C8.88037 21.9753 8.64306 22.1849 8.36229 22.3176C8.08152 22.4502 7.76883 22.5003 7.46068 22.462C7.15253 22.4237 6.8616 22.2987 6.62178 22.1015H3.55717C2.62973 22.1002 1.73932 21.7374 1.0751 21.0901C0.410889 20.4428 0.0252102 19.5621 0 18.635V18.4598C0 18.4289 0 18.4 0 18.3691V18.2805C0.0665213 17.3849 0.468939 16.5475 1.12666 15.936C1.78437 15.3246 2.64882 14.9842 3.54687 14.983H12.2481C12.3306 14.983 12.413 14.983 12.4954 14.983C13.1738 14.9248 13.8057 14.6148 14.2669 14.1139C14.728 13.6131 14.985 12.9578 14.9871 12.277V3.55717C14.9871 3.2877 14.8801 3.02927 14.6895 2.83872C14.499 2.64818 14.2405 2.54113 13.9711 2.54113C13.7016 2.54113 13.4432 2.64818 13.2526 2.83872C13.0621 3.02927 12.955 3.2877 12.955 3.55717V11.9678C12.9418 12.296 12.8022 12.6062 12.5653 12.8337C12.3285 13.0612 12.0129 13.1883 11.6845 13.1883C11.3561 13.1883 11.0404 13.0612 10.8036 12.8337C10.5668 12.6062 10.4271 12.296 10.4139 11.9678V3.55717C10.4139 2.61375 10.7887 1.70897 11.4558 1.04187C12.1229 0.374772 13.0277 0 13.9711 0C14.9145 0 15.8193 0.374772 16.4864 1.04187C17.1535 1.70897 17.5282 2.61375 17.5282 3.55717H17.52Z" fill="#00B5AC"/>
<path d="M27.9258 18.5404C27.9258 18.5713 27.9258 18.6022 27.9258 18.6331C27.9258 18.664 27.9258 18.6929 27.9258 18.7218V18.8104C27.8592 19.7059 27.4568 20.5433 26.7991 21.1548C26.1414 21.7663 25.2769 22.1067 24.3789 22.1079H15.6673C15.5847 22.1078 15.5022 22.1119 15.42 22.1202C14.7443 22.1829 14.1163 22.4954 13.6589 22.9966C13.2015 23.4979 12.9476 24.1518 12.9469 24.8304V33.5419C12.9469 33.8114 13.0539 34.0698 13.2445 34.2604C13.435 34.4509 13.6935 34.558 13.9629 34.558C14.2324 34.558 14.4908 34.4509 14.6814 34.2604C14.8719 34.0698 14.979 33.8114 14.979 33.5419V25.1333C14.9721 24.9622 14.9998 24.7914 15.0606 24.6312C15.1213 24.471 15.2138 24.3248 15.3325 24.2013C15.4511 24.0777 15.5935 23.9794 15.7511 23.9123C15.9087 23.8451 16.0782 23.8105 16.2495 23.8105C16.4208 23.8105 16.5904 23.8451 16.748 23.9123C16.9056 23.9794 17.048 24.0777 17.1666 24.2013C17.2853 24.3248 17.3777 24.471 17.4385 24.6312C17.4992 24.7914 17.527 24.9622 17.5201 25.1333V33.5419C17.5201 34.4853 17.1453 35.3901 16.4782 36.0572C15.8111 36.7243 14.9064 37.0991 13.9629 37.0991C13.0195 37.0991 12.1147 36.7243 11.4476 36.0572C10.7805 35.3901 10.4058 34.4853 10.4058 33.5419V24.8201C10.4061 23.4832 10.9152 22.1965 11.8296 21.2212C12.744 20.2459 13.9952 19.6552 15.3293 19.5688H24.3686C24.6222 19.5683 24.8665 19.4732 25.0537 19.302C25.2409 19.1309 25.3574 18.896 25.3805 18.6434C25.3805 18.6269 25.3805 18.6105 25.3805 18.594V18.4992C25.3805 18.4827 25.3805 18.4662 25.3805 18.4497C25.3574 18.1971 25.2409 17.9623 25.0537 17.7911C24.8665 17.62 24.6222 17.5248 24.3686 17.5243H21.3019C21.0622 17.7219 20.7712 17.8473 20.463 17.8858C20.1547 17.9243 19.8419 17.8744 19.5609 17.7418C19.2799 17.6093 19.0424 17.3996 18.8761 17.1372C18.7098 16.8749 18.6214 16.5706 18.6214 16.26C18.6214 15.9493 18.7098 15.6451 18.8761 15.3827C19.0424 15.1203 19.2799 14.9106 19.5609 14.7781C19.8419 14.6456 20.1547 14.5957 20.463 14.6342C20.7712 14.6727 21.0622 14.798 21.3019 14.9956H24.3748C25.3008 14.9979 26.1894 15.3611 26.852 16.0079C27.5146 16.6547 27.899 17.5344 27.9237 18.46C27.9258 18.4868 27.9258 18.5136 27.9258 18.5404Z" fill="#0D4958"/>
<path d="M34.5547 14.4459V16.7332H38.7447V27.9001H41.3394V16.7332H45.5295V14.4459H34.5547Z" fill="#00B5AC"/>
<path d="M48.5065 13.2927C47.7185 13.2927 47.1611 13.8693 47.1611 14.6766C47.1611 15.4838 47.7185 16.0604 48.5065 16.0604C49.2945 16.0604 49.8519 15.4838 49.8519 14.6766C49.8519 13.8693 49.2945 13.2927 48.5065 13.2927ZM47.2572 17.6173V27.9001H49.7558V17.6173H47.2572Z" fill="#00B5AC"/>
<path d="M58.905 17.5404C57.3673 17.5404 56.1757 18.1747 55.4453 19.3087V13.6387H52.9467V27.9001H55.4453V26.228C56.1949 27.362 57.3866 27.9962 58.9434 27.9962C61.8649 27.9962 63.7677 25.9012 63.7677 22.8068C63.7677 19.6546 61.8072 17.5404 58.905 17.5404ZM58.3476 25.8436C56.637 25.8436 55.4453 24.575 55.4453 22.7299C55.4453 20.9232 56.637 19.6354 58.3476 19.6354C60.039 19.6354 61.2306 20.9232 61.2306 22.7299C61.2306 24.5558 60.039 25.8436 58.3476 25.8436Z" fill="#00B5AC"/>
<path d="M74.4669 27.9001L74.4477 21.173C74.4285 18.8858 72.9101 17.5212 70.2192 17.5212C68.3357 17.5212 67.1824 17.9633 65.7025 18.7897L66.6058 20.5195C67.663 19.8853 68.7008 19.5585 69.6619 19.5585C71.1995 19.5585 71.9875 20.2697 71.9875 21.4613V21.7304H68.9892C66.4905 21.7496 65.0874 22.9221 65.0874 24.8249C65.0874 26.6508 66.4713 28.0155 68.6816 28.0155C70.1424 28.0155 71.2956 27.5542 72.0067 26.6508V27.9001H74.4669ZM69.2775 26.0934C68.1435 26.0934 67.4515 25.536 67.4515 24.6711C67.4515 23.7678 68.0666 23.4026 69.3928 23.4026H71.9875V24.3252C71.853 25.3246 70.719 26.0934 69.2775 26.0934Z" fill="#00B5AC"/>
<path d="M77.3662 14.4459V27.9001H85.7462V25.5745H79.9417V14.4459H77.3662Z" fill="#00B5AC"/>
<path d="M88.9179 13.2927C88.1298 13.2927 87.5724 13.8693 87.5724 14.6766C87.5724 15.4838 88.1298 16.0604 88.9179 16.0604C89.7059 16.0604 90.2633 15.4838 90.2633 14.6766C90.2633 13.8693 89.7059 13.2927 88.9179 13.2927ZM87.6685 17.6173V27.9001H90.1672V17.6173H87.6685Z" fill="#00B5AC"/>
<path d="M99.4509 17.5212C97.7787 17.5404 96.491 18.1747 95.7606 19.5393V17.6173H93.2619V27.9001H95.7606V22.8452C95.7606 21.1538 96.76 19.9045 98.4514 19.8853C99.8737 19.8853 100.739 20.7694 100.739 22.2109V27.9001H103.256V21.4806C103.256 19.0396 101.815 17.5212 99.4509 17.5212Z" fill="#00B5AC"/>
<path d="M113.021 27.9001H116L111.964 21.5959L115.769 17.6365H112.886L108.658 21.9034V13.6387H106.159V27.9001H108.658V25.0555L110.234 23.4026L113.021 27.9001Z" fill="#00B5AC"/>
</svg>
