<svg width="307" height="91" viewBox="0 0 307 91" fill="none" xmlns="http://www.w3.org/2000/svg">
<path d="M294.815 90.8589H11.339C5.10264 90.8589 0 85.7481 0 79.5016V11.3574C0 5.11081 5.10254 0 11.339 0H294.815C301.051 0 306.154 5.11081 306.154 11.3574V79.5015C306.154 85.7481 301.051 90.8589 294.815 90.8589Z" fill="#006466"/>
<path d="M107.535 23.2676C107.535 25.1707 106.973 26.6862 105.846 27.8166C104.566 29.1609 102.898 29.8335 100.847 29.8335C98.8829 29.8335 97.2131 29.1521 95.84 27.7873C94.4644 26.4236 93.7778 24.7324 93.7778 22.7147C93.7778 20.6961 94.4644 19.006 95.84 17.6411C97.2131 16.2774 98.8829 15.595 100.847 15.595C101.821 15.595 102.754 15.7859 103.64 16.1665C104.526 16.5481 105.236 17.0547 105.768 17.689L104.572 18.8877C103.671 17.8097 102.431 17.2711 100.847 17.2711C99.4146 17.2711 98.1761 17.7752 97.1308 18.784C96.0854 19.7938 95.5628 21.1034 95.5628 22.7147C95.5628 24.3261 96.0854 25.6356 97.1308 26.6455C98.1761 27.6543 99.4145 28.1583 100.847 28.1583C102.366 28.1583 103.633 27.6516 104.647 26.6366C105.306 25.9754 105.686 25.0564 105.788 23.8761H100.847V22.2391H107.44C107.504 22.5951 107.535 22.9367 107.535 23.2676" fill="white"/>
<path d="M107.536 23.2675H107.31C107.308 25.1272 106.765 26.5716 105.686 27.6559L105.684 27.6577L105.683 27.6596C104.444 28.9575 102.851 29.6035 100.848 29.6063C98.9363 29.6035 97.3364 28.9505 96.0004 27.6266C94.6673 26.3001 94.0082 24.6807 94.0056 22.7146C94.0082 20.7475 94.6673 19.129 96.0004 17.8034C97.3364 16.4787 98.9363 15.8247 100.848 15.822C101.793 15.822 102.693 16.0067 103.552 16.3749C104.411 16.7458 105.09 17.232 105.595 17.8355L105.769 17.6889L105.609 17.5283L104.413 18.7278L104.573 18.8876L104.748 18.7422C103.805 17.6108 102.482 17.0405 100.848 17.0438C99.3624 17.042 98.0557 17.5736 96.9749 18.6207C95.8836 19.6712 95.3353 21.0545 95.3371 22.7146C95.3353 24.3748 95.8836 25.7579 96.9749 26.8085C98.0557 27.8556 99.3624 28.3872 100.848 28.3853C102.418 28.3881 103.755 27.8547 104.809 26.7971C105.512 26.0906 105.911 25.1121 106.015 23.8955L106.036 23.6489H101.075V22.4661H107.441V22.239L107.218 22.2789C107.28 22.6233 107.31 22.9506 107.31 23.2675H107.763C107.763 22.9222 107.731 22.5674 107.665 22.1983L107.631 22.0118H100.621V24.1031H105.789V23.876L105.563 23.8565C105.463 24.9994 105.1 25.8601 104.488 26.476C103.514 27.4484 102.318 27.9283 100.848 27.931C99.4687 27.9292 98.2985 27.4536 97.2895 26.482C96.2903 25.514 95.7932 24.278 95.7907 22.7146C95.7932 21.1511 96.2903 19.9152 97.2895 18.9471C98.2985 17.9756 99.4686 17.4999 100.848 17.4981C102.381 17.5018 103.539 18.0092 104.4 19.0341L104.559 19.224L105.929 17.8496L106.076 17.7024L105.943 17.5433C105.385 16.878 104.643 16.3499 103.731 15.9579C102.816 15.5647 101.852 15.3677 100.848 15.3677C98.8318 15.3659 97.092 16.0757 95.6807 17.4804C94.2643 18.8824 93.5503 20.6446 93.5523 22.7146C93.5503 24.7836 94.2643 26.5469 95.6816 27.9496C97.092 29.3534 98.8318 30.0624 100.848 30.0605C102.947 30.0624 104.689 29.3639 106.011 27.9735L105.847 27.8165L106.007 27.9772C107.182 26.8015 107.765 25.2132 107.763 23.2675H107.536ZM117.989 17.5745H111.793V21.8957H117.381V23.5334H111.793V27.8547H117.989V29.529H110.046V15.9002H117.989V17.5745Z" fill="white"/>
<path d="M117.989 17.5745V17.3474H111.566V22.123H117.154V23.3057L111.566 23.3063V28.0819H117.762V29.3019H110.272V16.1274H117.762V17.5745H117.989H118.216V15.6731H109.819V29.7562H118.216V27.6276H112.019V23.7606H117.607V21.6687H112.019V17.8017H118.216V17.5745H117.989ZM125.362 29.5292H123.613V17.5744H119.812V15.9001H129.163V17.5744H125.362V29.529" fill="white"/>
<path d="M125.361 29.5292V29.3019H123.838V17.3474H120.038V16.1275H128.935V17.3474H125.134V29.5291H125.361H125.588V17.8017H129.388V15.6731H119.584V17.8016H123.385V29.7561H125.588V29.529H125.361M135.927 29.5292V15.9001H137.675V29.529H135.927" fill="white"/>
<path d="M135.927 29.5292H136.154V16.1274H137.448V29.3019H135.927V29.5291V29.7562H137.902V15.6731H135.701V29.7562H135.927V29.5291M145.431 29.5292H143.681V17.5744H139.881V15.9001H149.231V17.5744H145.431V29.529" fill="white"/>
<path d="M145.431 29.5292V29.302H143.908V17.3475H140.108V16.1276H149.005V17.3475H145.205V29.5291H145.431H145.658V17.8018H149.458V15.6732H139.655V17.8017H143.455V29.7562H145.658V29.529H145.431M158.246 26.6269C159.253 27.6481 160.486 28.1582 161.943 28.1582C163.4 28.1582 164.633 27.6481 165.639 26.6269C166.647 25.6057 167.152 24.3002 167.152 22.7147C167.152 21.1293 166.647 19.8239 165.639 18.8026C164.633 17.7813 163.4 17.2711 161.943 17.2711C160.486 17.2711 159.253 17.7813 158.246 18.8026C157.241 19.8239 156.736 21.1292 156.736 22.7147C156.736 24.3002 157.241 25.6057 158.246 26.6269ZM166.932 27.7678C165.594 29.1457 163.931 29.8335 161.943 29.8335C159.953 29.8335 158.29 29.1457 156.956 27.7678C155.617 26.3915 154.951 24.7068 154.951 22.7147C154.951 20.7226 155.617 19.0376 156.956 17.6616C158.29 16.2834 159.953 15.595 161.943 15.595C163.92 15.595 165.579 16.2871 166.923 17.6705C168.265 19.0537 168.937 20.7351 168.937 22.7147C168.937 24.7068 168.267 26.3915 166.932 27.7678Z" fill="white"/>
<path d="M158.247 26.6268L158.085 26.7865C159.13 27.8486 160.433 28.3881 161.943 28.3853C163.453 28.3881 164.758 27.8486 165.801 26.7865C166.852 25.7233 167.381 24.348 167.379 22.7146C167.381 21.0812 166.852 19.7058 165.801 18.6427C164.758 17.5806 163.453 17.0412 161.943 17.0438C160.433 17.0412 159.13 17.5806 158.085 18.6427C157.037 19.7058 156.507 21.0812 156.51 22.7146C156.507 24.3479 157.037 25.7233 158.085 26.7865L158.247 26.6268L158.408 26.467C157.446 25.4865 156.965 24.2531 156.963 22.7146C156.965 21.1761 157.446 19.9427 158.408 18.9621C159.379 17.9818 160.538 17.5009 161.943 17.4982C163.347 17.5009 164.51 17.9818 165.478 18.9621C166.442 19.9427 166.923 21.1761 166.925 22.7146C166.923 24.253 166.442 25.4865 165.478 26.467C164.51 27.4475 163.348 27.9283 161.943 27.9309C160.538 27.9283 159.379 27.4475 158.408 26.467L158.247 26.6268ZM166.933 27.7677L166.77 27.6099C165.47 28.9443 163.88 29.6036 161.943 29.6063C160.006 29.6035 158.416 28.9443 157.118 27.6099C155.82 26.2708 155.18 24.656 155.178 22.7146C155.18 20.7731 155.82 19.1583 157.118 17.8194C158.416 16.4848 160.006 15.8247 161.943 15.8221C163.867 15.8247 165.454 16.4876 166.762 17.8291C168.064 19.1742 168.708 20.7865 168.711 22.7146C168.708 24.656 168.066 26.2708 166.77 27.6099L166.933 27.7677L167.096 27.9255C168.47 26.5113 169.166 24.7571 169.164 22.7146C169.166 20.6837 168.468 18.933 167.087 17.5125C165.705 16.0864 163.974 15.3652 161.943 15.3677C159.902 15.3652 158.166 16.083 156.793 17.5036V17.5026C155.416 18.9178 154.723 20.672 154.725 22.7146C154.723 24.7571 155.416 26.5113 156.793 27.9264L156.799 27.9329L156.793 27.9255C158.166 29.3461 159.902 30.0624 161.943 30.0605C163.984 30.0624 165.72 29.3461 167.096 27.9255L166.933 27.7677ZM171.391 29.5291V15.9001H173.519L180.132 26.5023H180.207L180.132 23.8759V15.9001H181.882V29.5289H180.057L173.138 18.4128H173.063L173.138 21.0402V29.5289H171.391" fill="white"/>
<path d="M171.39 29.5292H171.617V16.1274H173.392L180.005 26.7297H180.439L180.358 23.8727V16.1275H181.654V29.3019H180.182L173.263 18.1858H172.829L172.91 21.044V29.3019H171.39L171.39 29.5292L171.39 29.7562H173.364V21.0368L173.289 18.4068L173.062 18.413V18.6401H173.137V18.413L172.945 18.5337L179.93 29.7562H182.107V15.6731H179.904V23.8787L179.98 26.5087L180.206 26.5025V26.2754H180.131V26.5025L180.323 26.382L173.644 15.6731H171.164V29.7562H171.39L171.39 29.5292ZM242.51 68.1441H246.742V39.748H242.51L242.51 68.1441ZM280.625 49.977L275.774 62.2881H275.629L270.595 49.9769H266.036L273.586 67.184L269.281 76.7553H273.697L285.331 49.9769L280.625 49.977ZM256.627 64.9189C255.239 64.9189 253.307 64.225 253.307 62.5073C253.307 60.3155 255.715 59.4753 257.793 59.4753C259.655 59.4753 260.528 59.8771 261.659 60.4257C261.331 63.0556 259.069 64.9189 256.627 64.9189ZM257.137 49.3557C254.074 49.3557 250.901 50.7078 249.588 53.7035L253.343 55.274C254.146 53.7035 255.641 53.1914 257.21 53.1914C259.398 53.1914 261.623 54.5073 261.659 56.8454V57.1374C260.893 56.6989 259.253 56.0415 257.246 56.0415C253.198 56.0415 249.075 58.2694 249.075 62.4344C249.075 66.2339 252.395 68.6818 256.115 68.6818C258.961 68.6818 260.528 67.4032 261.514 65.9056H261.659V68.0972H265.744V57.2099C265.744 52.1694 261.988 49.3557 257.137 49.3557ZM230.985 53.4336H224.966V43.7002H230.985C234.149 43.7002 235.945 46.3238 235.945 48.5668C235.945 50.7673 234.149 53.4336 230.985 53.4336ZM230.876 39.748H220.737V68.1441H224.966V57.3857H230.876C235.566 57.3857 240.176 53.9847 240.176 48.5668C240.176 43.1491 235.566 39.748 230.876 39.748ZM175.585 64.9241C172.661 64.9241 170.214 62.4725 170.214 59.1053C170.214 55.7026 172.661 53.2137 175.585 53.2137C178.471 53.2137 180.736 55.7025 180.736 59.1053C180.736 62.4725 178.471 64.9241 175.585 64.9241ZM180.444 51.567H180.298C179.348 50.4328 177.52 49.4082 175.219 49.4082C170.396 49.4082 165.976 53.6529 165.976 59.1053C165.976 64.5214 170.396 68.7298 175.219 68.7298C177.52 68.7298 179.348 67.7048 180.298 66.5345H180.444V67.9249C180.444 71.6216 178.471 73.5975 175.293 73.5975C172.699 73.5975 171.091 71.7306 170.433 70.1573L166.743 71.6942C167.803 74.2558 170.616 77.4032 175.293 77.4032C180.261 77.4032 184.463 74.4749 184.463 67.3394V49.9937H180.444V51.567ZM187.385 68.1441H191.623V39.747H187.385V68.1441ZM197.871 58.7761C197.761 55.0432 200.757 53.1408 202.913 53.1408C204.595 53.1408 206.019 53.982 206.493 55.1907L197.871 58.7761ZM211.024 55.5561C210.221 53.3963 207.772 49.4082 202.766 49.4082C197.798 49.4082 193.67 53.3236 193.67 59.0689C193.67 64.4851 197.761 68.7298 203.241 68.7298C207.663 68.7298 210.221 66.0217 211.28 64.4484L207.992 62.2524C206.896 63.8629 205.397 64.9241 203.241 64.9241C201.086 64.9241 199.552 63.9357 198.565 61.9968L211.462 56.6537L211.024 55.5561ZM108.274 52.3724V56.4708H118.065C117.773 58.7761 117.005 60.4593 115.836 61.6304C114.412 63.0581 112.183 64.6314 108.273 64.6314C102.245 64.6314 97.5324 59.7644 97.5324 53.7264C97.5324 47.6884 102.245 42.8209 108.274 42.8209C111.525 42.8209 113.9 44.102 115.653 45.7487L118.54 42.858C116.092 40.5155 112.84 38.7225 108.274 38.7225C100.016 38.7225 93.0747 45.456 93.0747 53.7264C93.0747 61.9968 100.016 68.7298 108.274 68.7298C112.731 68.7298 116.092 67.2667 118.722 64.5214C121.426 61.8133 122.267 58.0077 122.267 54.9341C122.267 53.982 122.194 53.1045 122.047 52.3724H108.274ZM133.398 64.9241C130.475 64.9241 127.954 62.5088 127.954 59.0689C127.954 55.5924 130.475 53.2137 133.398 53.2137C136.321 53.2137 138.842 55.5924 138.842 59.0689C138.842 62.5089 136.321 64.9241 133.398 64.9241ZM133.398 49.4082C128.064 49.4082 123.716 53.4699 123.716 59.0689C123.716 64.6314 128.064 68.7298 133.398 68.7298C138.732 68.7298 143.08 64.6314 143.08 59.0689C143.08 53.4699 138.732 49.4082 133.398 49.4082ZM154.519 64.9241C151.597 64.9241 149.075 62.5088 149.075 59.0689C149.075 55.5924 151.597 53.2137 154.519 53.2137C157.441 53.2137 159.963 55.5924 159.963 59.0689C159.963 62.5089 157.441 64.9241 154.519 64.9241ZM154.519 49.4082C149.184 49.4082 144.837 53.4699 144.837 59.0689C144.837 64.6314 149.184 68.7298 154.519 68.7298C159.853 68.7298 164.201 64.6314 164.201 59.0689C164.201 53.4699 159.853 49.4082 154.519 49.4082Z" fill="white"/>
<path d="M23.8315 17.2889C23.0705 17.9766 22.6162 19.1238 22.6162 20.6465V20.3022V70.5497V70.2188C22.6162 71.625 23.0059 72.711 23.6658 73.4104L23.8342 73.5719V73.5726C24.3683 74.0553 25.0532 74.3117 25.8381 74.3109C26.6051 74.3109 27.468 74.066 28.3787 73.5488L61.2964 54.8153L72.6034 48.3797C74.0394 47.5626 74.8456 46.5085 74.9803 45.4348V45.4304C74.8456 44.3542 74.0394 43.3009 72.6035 42.4837L61.2955 36.0489L28.3788 17.3154C27.4662 16.7973 26.6026 16.5515 25.8336 16.5515C25.0496 16.5515 24.3656 16.807 23.8317 17.2889H23.8315Z" fill="#00C1FF"/>
<path d="M23.8343 73.5718L23.6658 73.4103C23.0059 72.711 22.6162 71.6249 22.6162 70.2187V70.5496V20.3146V20.6464C22.6162 19.1237 23.0705 17.9765 23.8315 17.2888L51.9292 45.4312L23.8343 73.5718Z" fill="url(#paint0_linear_4963_10332)"/>
<path d="M61.2968 54.8154L51.9297 45.4315L61.296 36.0492L72.6039 42.4838C74.0399 43.3011 74.846 44.3543 74.9808 45.4306V45.4349C74.846 46.5086 74.0399 47.5629 72.6039 48.3799L61.2969 54.8153" fill="url(#paint1_linear_4963_10332)"/>
<path d="M25.8377 74.3105C25.0529 74.3113 24.368 74.0548 23.834 73.5722V73.5714L51.9289 45.4309L61.2961 54.8148L28.3783 73.5484C27.4676 74.0656 26.6047 74.3105 25.8377 74.3105Z" fill="url(#paint2_linear_4963_10332)"/>
<path d="M51.9298 45.4314L23.832 17.289C24.3661 16.8071 25.0501 16.5516 25.834 16.5516C26.603 16.5516 27.4667 16.7973 28.3792 17.3155L61.2961 36.049L51.9297 45.4314" fill="url(#paint3_linear_4963_10332)"/>
<path d="M25.8396 74.6436C25.0548 74.6436 24.369 74.3871 23.8348 73.9045L23.8339 73.9053C23.8317 73.9031 23.8294 73.901 23.8269 73.8991L23.6808 73.7562C23.6762 73.7517 23.6719 73.7465 23.6665 73.7413L23.8349 73.5726C24.3691 74.0552 25.0538 74.3117 25.8389 74.3108C26.6057 74.3108 27.4687 74.066 28.3794 73.5487L61.297 54.8152L61.508 55.0265L61.2944 55.148L28.3793 73.8805C27.5493 74.3517 26.7599 74.5974 26.0468 74.6383C25.9778 74.6417 25.9087 74.6435 25.8396 74.6436Z" fill="url(#paint4_linear_4963_10332)"/>
<path d="M23.6658 73.7412C23.0059 73.0419 22.6162 71.9568 22.6162 70.5496V70.2186C22.6162 71.6249 23.0059 72.7109 23.6658 73.4102L23.8342 73.5717L23.6658 73.7412Z" fill="url(#paint5_linear_4963_10332)"/>
<path d="M61.5073 55.026L61.2964 54.8147L72.6034 48.3792C74.0394 47.5622 74.8456 46.508 74.9803 45.4343C74.9803 45.8283 74.8925 46.2223 74.7182 46.6057C74.3664 47.3785 73.6614 48.1087 72.6035 48.7111L61.5073 55.0261" fill="url(#paint6_linear_4963_10332)"/>
<path d="M74.9803 45.4302C74.8455 44.3539 74.0394 43.3007 72.6034 42.4834L61.2954 36.0487L61.5063 35.8374H61.5072L72.6034 42.1524C74.1866 43.0539 74.9794 44.2419 74.9803 45.4302Z" fill="url(#paint7_linear_4963_10332)"/>
<path d="M22.6162 20.6462V20.2991C22.6162 20.174 22.6196 20.0516 22.626 19.9328V19.9274C22.626 19.9257 22.626 19.924 22.6266 19.9221V19.9088C22.6949 18.6975 23.0705 17.7527 23.6658 17.1218L23.8315 17.2885C23.0705 17.9764 22.6162 19.1235 22.6162 20.6462Z" fill="url(#paint8_linear_4963_10332)"/>
<path d="M61.2952 36.0491L28.3784 17.3154C27.4659 16.7973 26.6023 16.5516 25.8333 16.5516C25.0493 16.5516 24.3653 16.8071 23.8313 17.2889L23.6655 17.1221C23.7173 17.0672 23.7711 17.0143 23.8268 16.9634C23.8286 16.9615 23.8313 16.9597 23.833 16.958C24.3629 16.4798 25.0396 16.2243 25.8166 16.2197H25.8333C26.6023 16.2197 27.4659 16.4655 28.3784 16.9838L61.507 35.837L61.5061 35.8378L61.2952 36.0491Z" fill="url(#paint9_linear_4963_10332)"/>
<defs>
<linearGradient id="paint0_linear_4963_10332" x1="40.5723" y1="19.7837" x2="16.3584" y2="44.0365" gradientUnits="userSpaceOnUse">
<stop stop-color="#00A0FF"/>
<stop offset="0.00657" stop-color="#00A1FF"/>
<stop offset="0.2601" stop-color="#00BEFF"/>
<stop offset="0.5122" stop-color="#00D2FF"/>
<stop offset="0.7604" stop-color="#00DFFF"/>
<stop offset="1" stop-color="#00E3FF"/>
</linearGradient>
<linearGradient id="paint1_linear_4963_10332" x1="76.7304" y1="45.2694" x2="21.8563" y2="45.2694" gradientUnits="userSpaceOnUse">
<stop stop-color="#FFE000"/>
<stop offset="0.4087" stop-color="#FFBD00"/>
<stop offset="0.7754" stop-color="#FFA500"/>
<stop offset="1" stop-color="#FF9C00"/>
</linearGradient>
<linearGradient id="paint2_linear_4963_10332" x1="56.3229" y1="54.3527" x2="15.2906" y2="95.1509" gradientUnits="userSpaceOnUse">
<stop stop-color="#FF3A44"/>
<stop offset="1" stop-color="#C31162"/>
</linearGradient>
<linearGradient id="paint3_linear_4963_10332" x1="16.5904" y1="13.1167" x2="34.8776" y2="31.3275" gradientUnits="userSpaceOnUse">
<stop stop-color="#32A071"/>
<stop offset="0.0685" stop-color="#2DA771"/>
<stop offset="0.4762" stop-color="#15CF74"/>
<stop offset="0.8009" stop-color="#06E775"/>
<stop offset="1" stop-color="#00F076"/>
</linearGradient>
<linearGradient id="paint4_linear_4963_10332" x1="56.3035" y1="60.8623" x2="23.4428" y2="93.7762" gradientUnits="userSpaceOnUse">
<stop stop-color="#CC2E36"/>
<stop offset="1" stop-color="#9C0E4E"/>
</linearGradient>
<linearGradient id="paint5_linear_4963_10332" x1="26.3592" y1="19.7836" x2="5.02713" y2="41.1504" gradientUnits="userSpaceOnUse">
<stop stop-color="#008DE0"/>
<stop offset="0.00657" stop-color="#008DE0"/>
<stop offset="0.2601" stop-color="#00A7E0"/>
<stop offset="0.5122" stop-color="#00B8E0"/>
<stop offset="0.7604" stop-color="#00C4E0"/>
<stop offset="1" stop-color="#00C7E0"/>
</linearGradient>
<linearGradient id="paint6_linear_4963_10332" x1="76.73" y1="45.4322" x2="21.8558" y2="45.4322" gradientUnits="userSpaceOnUse">
<stop stop-color="#E0C500"/>
<stop offset="0.4087" stop-color="#E0A600"/>
<stop offset="0.7754" stop-color="#E09100"/>
<stop offset="1" stop-color="#E08900"/>
</linearGradient>
<linearGradient id="paint7_linear_4963_10332" x1="76.7299" y1="45.4324" x2="21.8559" y2="45.4324" gradientUnits="userSpaceOnUse">
<stop stop-color="#FFE840"/>
<stop offset="0.4087" stop-color="#FFCE40"/>
<stop offset="0.7754" stop-color="#FFBC40"/>
<stop offset="1" stop-color="#FFB540"/>
</linearGradient>
<linearGradient id="paint8_linear_4963_10332" x1="26.3361" y1="19.8221" x2="5.7895" y2="39.5103" gradientUnits="userSpaceOnUse">
<stop stop-color="#40B8FF"/>
<stop offset="0.00657" stop-color="#40B9FF"/>
<stop offset="0.2601" stop-color="#40CEFF"/>
<stop offset="0.5122" stop-color="#40DDFF"/>
<stop offset="0.7604" stop-color="#40E7FF"/>
<stop offset="1" stop-color="#40EAFF"/>
</linearGradient>
<linearGradient id="paint9_linear_4963_10332" x1="16.5487" y1="19.0683" x2="31.2225" y2="33.7659" gradientUnits="userSpaceOnUse">
<stop stop-color="#65B895"/>
<stop offset="0.0685" stop-color="#62BD95"/>
<stop offset="0.4762" stop-color="#50DB97"/>
<stop offset="0.8009" stop-color="#44ED98"/>
<stop offset="1" stop-color="#40F498"/>
</linearGradient>
</defs>
</svg>
