<svg width="28" height="28" viewBox="0 0 28 28" fill="none" xmlns="http://www.w3.org/2000/svg">
<path d="M18.6668 16.3333H19.2502C20.215 16.3333 21.0002 15.5481 21.0002 14.5833V4.08325C21.0002 3.11842 20.215 2.33325 19.2502 2.33325H4.0835C3.11866 2.33325 2.3335 3.11842 2.3335 4.08325V20.9999L8.55533 16.3333H18.6668ZM7.77833 13.9999L4.66683 16.3333V4.66659H18.6668V13.9999H7.77833Z" fill="#B4B7C9"/>
<path d="M23.9168 9.33325H23.3335V16.3344C23.3335 17.6178 22.2917 18.6596 21.0118 18.6666H9.3335V19.2499C9.3335 20.2148 10.1187 20.9999 11.0835 20.9999H19.445L25.6668 25.6666V11.0833C25.6668 10.1184 24.8817 9.33325 23.9168 9.33325Z" fill="#B4B7C9"/>
</svg>
