<svg width="28" height="32" viewBox="0 0 28 32" fill="none" xmlns="http://www.w3.org/2000/svg">
<path d="M5.3279 28.711C4.66681 28.711 4.09321 28.4332 3.6071 27.8777C3.12099 27.3221 2.87793 26.6666 2.87793 25.9111V6.08878C2.87793 5.33325 3.12099 4.67771 3.6071 4.12215C4.09321 3.5666 4.66681 3.28882 5.3279 3.28882H18.9779L25.1224 10.311V25.9111C25.1224 26.6666 24.8793 27.3221 24.3932 27.8777C23.9071 28.4332 23.3335 28.711 22.6724 28.711H5.3279ZM5.3279 25.9111H22.6724V11.7555H18.9196C18.58 11.7555 18.2941 11.6229 18.0621 11.3577C17.83 11.0925 17.714 10.7658 17.714 10.3777V6.08878H5.3279V25.9111ZM9.07098 23.0444H18.9488C19.2829 23.0444 19.569 22.9065 19.807 22.6308C20.045 22.3551 20.164 22.0236 20.164 21.6364C20.164 21.2491 20.045 20.9203 19.807 20.6499C19.569 20.3795 19.2829 20.2444 18.9488 20.2444H9.07098C8.72422 20.2444 8.43175 20.3808 8.19355 20.6538C7.95536 20.9268 7.83626 21.2569 7.83626 21.6442C7.83626 22.0314 7.95536 22.3616 8.19355 22.6347C8.43175 22.9078 8.72422 23.0444 9.07098 23.0444ZM9.07098 11.7555H12.7849C13.119 11.7555 13.4051 11.6176 13.6431 11.3419C13.8811 11.0662 14.0001 10.7348 14.0001 10.3475C14.0001 9.96022 13.8811 9.63141 13.6431 9.36105C13.4051 9.09067 13.119 8.95548 12.7849 8.95548H9.07098C8.72422 8.95548 8.43175 9.09197 8.19355 9.36495C7.95536 9.63791 7.83626 9.96802 7.83626 10.3553C7.83626 10.7426 7.95536 11.0727 8.19355 11.3458C8.43175 11.6189 8.72422 11.7555 9.07098 11.7555ZM9.07098 17.3888H18.9488C19.2829 17.3888 19.569 17.2524 19.807 16.9798C20.045 16.707 20.164 16.3793 20.164 15.9964C20.164 15.6136 20.045 15.2833 19.807 15.0055C19.569 14.7277 19.2829 14.5888 18.9488 14.5888H9.07098C8.72422 14.5888 8.43175 14.7273 8.19355 15.0044C7.95536 15.2814 7.83626 15.6146 7.83626 16.0038C7.83626 16.3868 7.95536 16.7133 8.19355 16.9835C8.43175 17.2537 8.72422 17.3888 9.07098 17.3888Z" fill="#B4B7C9"/>
</svg>
