<svg width="28" height="28" viewBox="0 0 28 28" fill="none" xmlns="http://www.w3.org/2000/svg">
<path d="M19.3715 12.8894C20.0821 11.6785 20.3889 10.2729 20.2477 8.87604C20.0388 6.79471 18.8768 4.95488 16.9775 3.69604L15.6883 5.63971C16.9938 6.50538 17.7883 7.73855 17.926 9.10938C17.9895 9.74649 17.9102 10.3897 17.6938 10.9924C17.4775 11.595 17.1295 12.1418 16.6753 12.593L15.2847 13.9837L17.1723 14.5379C22.1097 15.9845 22.1668 20.9499 22.1668 21H24.5002C24.5002 18.9129 23.3848 14.8342 19.3715 12.8894Z" fill="#B4B7C9"/>
<path d="M11.0835 14.0001C13.6572 14.0001 15.7502 11.9071 15.7502 9.33341C15.7502 6.75975 13.6572 4.66675 11.0835 4.66675C8.50983 4.66675 6.41683 6.75975 6.41683 9.33341C6.41683 11.9071 8.50983 14.0001 11.0835 14.0001ZM11.0835 7.00008C12.3703 7.00008 13.4168 8.04658 13.4168 9.33341C13.4168 10.6202 12.3703 11.6667 11.0835 11.6667C9.79666 11.6667 8.75016 10.6202 8.75016 9.33341C8.75016 8.04658 9.79666 7.00008 11.0835 7.00008ZM12.8335 15.1667H9.3335C5.473 15.1667 2.3335 18.3062 2.3335 22.1667V23.3334H4.66683V22.1667C4.66683 19.5931 6.75983 17.5001 9.3335 17.5001H12.8335C15.4072 17.5001 17.5002 19.5931 17.5002 22.1667V23.3334H19.8335V22.1667C19.8335 18.3062 16.694 15.1667 12.8335 15.1667Z" fill="#B4B7C9"/>
</svg>
