<svg width="28" height="32" viewBox="0 0 28 32" fill="none" xmlns="http://www.w3.org/2000/svg">
<path d="M3.69977 32C2.67027 32 1.79627 31.5894 1.07778 30.7683C0.359259 29.9471 0 28.9483 0 27.7717V4.22831C0 3.05173 0.359259 2.05288 1.07778 1.23175C1.79627 0.410582 2.67027 0 3.69977 0H24.3002C25.3297 0 26.2037 0.410582 26.9222 1.23175C27.6407 2.05288 28 3.05173 28 4.22831V27.7717C28 28.9483 27.6407 29.9471 26.9222 30.7683C26.2037 31.5894 25.3297 32 24.3002 32H3.69977ZM3.69977 28.3011H24.3002C24.416 28.3011 24.5222 28.246 24.6187 28.1357C24.7152 28.0254 24.7635 27.904 24.7635 27.7717V4.22831C24.7635 4.09595 24.7152 3.97462 24.6187 3.86431C24.5222 3.75403 24.416 3.69889 24.3002 3.69889H3.69977C3.58396 3.69889 3.47779 3.75403 3.38127 3.86431C3.28478 3.97462 3.23653 4.09595 3.23653 4.22831V27.7717C3.23653 27.904 3.28478 28.0254 3.38127 28.1357C3.47779 28.246 3.58396 28.3011 3.69977 28.3011ZM8.06635 25.1084C8.5694 25.1084 8.99847 24.9051 9.35357 24.4984C9.70869 24.0918 9.88625 23.601 9.88625 23.0261C9.88625 22.4512 9.70835 21.9608 9.35255 21.555C8.99678 21.1492 8.56737 20.9462 8.06432 20.9462C7.56127 20.9462 7.13219 21.1496 6.77707 21.5562C6.42198 21.9628 6.24443 22.4535 6.24443 23.0285C6.24443 23.6034 6.42232 24.0937 6.77809 24.4996C7.13388 24.9054 7.56331 25.1084 8.06635 25.1084ZM8.06635 18.081C8.5694 18.081 8.99847 17.8777 9.35357 17.4711C9.70869 17.0645 9.88625 16.5738 9.88625 15.9988C9.88625 15.4239 9.70835 14.9335 9.35255 14.5277C8.99678 14.1219 8.56737 13.919 8.06432 13.919C7.56127 13.919 7.13219 14.1223 6.77707 14.5289C6.42198 14.9355 6.24443 15.4262 6.24443 16.0012C6.24443 16.5761 6.42232 17.0665 6.77809 17.4723C7.13388 17.8781 7.56331 18.081 8.06635 18.081ZM8.06635 10.9677C8.5694 10.9677 8.99847 10.7644 9.35357 10.3578C9.70869 9.95119 9.88625 9.46044 9.88625 8.88553C9.88625 8.31062 9.70835 7.82024 9.35255 7.41439C8.99678 7.00853 8.56737 6.80561 8.06432 6.80561C7.56127 6.80561 7.13219 7.00892 6.77707 7.41555C6.42198 7.82217 6.24443 8.31294 6.24443 8.88785C6.24443 9.46276 6.42232 9.95313 6.77809 10.359C7.13388 10.7648 7.56331 10.9677 8.06635 10.9677ZM14.0318 24.9198H20.1171C20.5624 24.9198 20.9434 24.7387 21.2602 24.3766C21.5769 24.0145 21.7353 23.5788 21.7353 23.0697C21.7353 22.5606 21.5769 22.1252 21.2602 21.7635C20.9434 21.4017 20.5624 21.2209 20.1171 21.2209H14.0318C13.5865 21.2209 13.2054 21.4019 12.8887 21.7641C12.5719 22.1262 12.4136 22.5618 12.4136 23.0709C12.4136 23.58 12.5719 24.0154 12.8887 24.3771C13.2054 24.7389 13.5865 24.9198 14.0318 24.9198ZM14.0318 17.8064H20.1171C20.5624 17.8064 20.9434 17.6254 21.2602 17.2633C21.5769 16.9011 21.7353 16.4655 21.7353 15.9564C21.7353 15.4473 21.5769 15.0119 21.2602 14.6501C20.9434 14.2884 20.5624 14.1076 20.1171 14.1076H14.0318C13.5865 14.1076 13.2054 14.2886 12.8887 14.6507C12.5719 15.0128 12.4136 15.4484 12.4136 15.9575C12.4136 16.4667 12.5719 16.9021 12.8887 17.2638C13.2054 17.6256 13.5865 17.8064 14.0318 17.8064ZM14.0318 10.7791H20.1171C20.5624 10.7791 20.9434 10.5981 21.2602 10.2359C21.5769 9.87385 21.7353 9.43823 21.7353 8.9291C21.7353 8.41999 21.5769 7.98458 21.2602 7.62286C20.9434 7.26111 20.5624 7.08023 20.1171 7.08023H14.0318C13.5865 7.08023 13.2054 7.26129 12.8887 7.62342C12.5719 7.98554 12.4136 8.42115 12.4136 8.93026C12.4136 9.43939 12.5719 9.87482 12.8887 10.2365C13.2054 10.5983 13.5865 10.7791 14.0318 10.7791Z" fill="#B4B7C9"/>
</svg>
